<?xml version="1.0" encoding="utf-8"?>
<!-- Generator: Adobe Illustrator 24.3.0, SVG Export Plug-In . SVG Version: 6.00 Build 0)  -->
<svg version="1.1" id="Layer_1" xmlns="http://www.w3.org/2000/svg" xmlns:xlink="http://www.w3.org/1999/xlink" x="0px" y="0px"
	 viewBox="0 0 297 548.6" style="enable-background:new 0 0 297 548.6;" xml:space="preserve">
<style type="text/css">
	.st0{fill:url(#back_1_);}
	.st1{fill:#B8B8B8;}
	.st2{fill:#FFBFB8;}
	.st3{fill:url(#SVGID_1_);}
	.st4{opacity:0.5;fill:#FFFFFF;}
	.st5{fill:#1C1C1C;}
	.st6{fill:#34C57F;}
	.st7{fill:#FFFFFF;}
	.st8{fill:url(#SVGID_2_);}
	.st9{fill:url(#SVGID_3_);}
	.st10{fill:url(#SVGID_4_);}
	.st11{opacity:0.15;fill:#1C1C1C;}
	.st12{fill:none;stroke:#2261FF;stroke-width:0.6294;stroke-miterlimit:10;}
	.st13{fill:url(#SVGID_5_);}
	.st14{fill:#22CBFF;}
	.st15{fill:#F7931A;}
	.st16{fill:#F0B90B;}
	.st17{fill:url(#SVGID_6_);}
	.st18{fill:#0E3CA5;}
	.st19{fill:#5493F7;}
	.st20{fill:#BC2020;}
	.st21{fill:url(#SVGID_7_);}
	.st22{fill:url(#SVGID_8_);}
	.st23{fill:url(#SVGID_9_);}
	.st24{fill:#DF3030;}
	.st25{fill:url(#SVGID_10_);}
	.st26{fill:url(#SVGID_11_);}
	.st27{fill:url(#SVGID_12_);}
	.st28{fill:#26A17B;}
	.st29{fill:#EFEFEF;}
</style>
<linearGradient id="back_1_" gradientUnits="userSpaceOnUse" x1="4.4211" y1="288.4226" x2="291.0852" y2="288.4226">
	<stop  offset="0" style="stop-color:#1B9BFD"/>
	<stop  offset="1" style="stop-color:#72C8ED"/>
</linearGradient>
<path id="back" class="st0" d="M129.8,393.8c0,0-36.4-29.3-69-37.1s-74.7-32.5-47.8-89.5s109.4-31.8,127.3-94.3
	C165.8,83.3,250,76.9,268,142.5s-2.6,114.8,19.7,215.6c7.4,33.5,4.3,81.5-30,109.1C229.8,489.6,187,483.5,129.8,393.8z"/>
<g id="hand">
	<rect x="64.2" y="215.3" transform="matrix(-0.9 0.4359 -0.4359 -0.9 223.6149 381.7851)" class="st1" width="7.6" height="2.5"/>
	<path class="st2" d="M51.5,215.4c0.1,0.1,0.1,0.3,0.2,0.4c0.3,0.5,0.7,1.1,1.2,1.7c2.1,2.7,4.9,11.4,6.5,18.7
		c0.9,4,1.5,7.7,1.5,9.7c0,5.7,5,14.1,7.3,22.3c2.3,8.2,13.7,42.1,14.3,49c0.6,6.9,25.1,63.2,24.7,76.5
		c-0.2,7.2,13.2,130.8,13.5,154.4h108.2l-34.5-160.8l0.2-0.2c0.9-0.9,4.6-5.1,9.9-11.1c3.3-3.7,7.1-8,11.3-12.7
		c6-6.8,12.5-14.3,18.7-21.6c4.3-5,8.3-9.9,11.9-14.3c1.2-1.5,2.3-2.9,3.4-4.3c0.4-0.5,0.8-1,1.2-1.6c1.2-1.5,2.2-2.9,3.2-4.2
		c1.8-2.5,3.2-4.6,4.1-6.1c0.1-0.2-2.4,0-6.8,0.5c-0.3,0-0.7,0.1-1,0.1c-1.2,0.1-2.5,0.3-3.9,0.4c-1,0.1-2.1,0.2-3.3,0.3
		c-5.4,0.6-12,1.3-19.3,2.1c-16.9,1.8-37.6,4-56,5.7c-18.4,1.7-34.6,2.8-42.5,2.4c-3-0.1-4.7-0.5-5-1.1c-2-4.1-13.6-27.1-20.5-41
		c-2.5-5-4.4-8.9-4.9-10.2c0-0.1-0.1-0.2-0.1-0.2c-0.9-2.3-4-15.8-9-29.1c-2.5-6.7-5.5-13.3-8.9-18.3c-1.1-1.6-2.1-3-3.3-4.2
		c0,0-1-1-2.5-2.4c-0.6-0.5-1.3-1.1-2.1-1.7c-0.6-0.5-1.3-0.9-2-1.4c-4.3-2.8-9.9-5-14.7-1.7c-0.3,0.2-0.6,0.5-0.9,0.7
		C51.5,212.2,50.3,213,51.5,215.4z"/>
	
		<linearGradient id="SVGID_1_" gradientUnits="userSpaceOnUse" x1="474.4805" y1="1280.3622" x2="457.388" y2="1266.0522" gradientTransform="matrix(-0.9 0.4359 0.4359 0.9 39.9461 -964.5753)">
		<stop  offset="0" style="stop-color:#FFBFB8"/>
		<stop  offset="1" style="stop-color:#EF6359"/>
	</linearGradient>
	<path class="st3" d="M147.9,388.1c3.3,10.9,15.8,15.9,25.7,10.4c7.4-4.1,15.4-8.4,20.8-11.1l0.2-0.2l39.9-45.4l-10.5-27
		c-16.9,1.8-37.6,4.1-56,5.7l-25.5,49.7L147.9,388.1z"/>
	<path class="st4" d="M62.8,224.5c1.9,4-2,6.9-5.1,8.5c-1.2-6.4-3.4-13.9-5.3-16.2c-0.4-0.5-0.8-1-1-1.4c-0.1-0.1-0.1-0.2-0.2-0.4
		c-1-2.1,0.3-2.8,0.3-2.8c0.3-0.2,0.6-0.5,0.9-0.7C57.6,213.6,60.5,219.6,62.8,224.5z"/>
	<g>
		<g>
			<g>
				<g>
					<path class="st5" d="M262.1,334c3.1,6.3,0.4,14-5.9,17.1l-87.6,42.4c-6.3,3.1-14,0.4-17.1-5.9L54.4,186.9
						c-3.1-6.3-0.4-14,5.9-17.1l87.6-42.4c6.3-3.1,14-0.4,17.1,5.9L262.1,334z"/>
				</g>
				<g>
					<path class="st6" d="M251.9,345.9l-84.6,41c-4.9,2.4-10.7,0.3-13-4.5L59.4,186.6c-2.4-4.9-0.3-10.7,4.5-13l84.6-41
						c4.9-2.4,10.7-0.3,13,4.5l94.8,195.7C258.7,337.7,256.7,343.5,251.9,345.9z"/>
				</g>
			</g>
		</g>
		<path class="st5" d="M125.3,141.4l1.5,3.1c1.2,2.5,0.7,5.3-1.2,6.2l-33.4,16.2c-1.9,0.9-4.3-0.4-5.5-2.9l-1.5-3.1L125.3,141.4z"/>
		<path class="st7" d="M138.4,296.1l60.2-29.2c2.4-1.2,5.3-0.2,6.4,2.2l1.6,3.4c1.2,2.4,0.2,5.3-2.2,6.4l-60.2,29.2
			c-2.4,1.2-5.3,0.2-6.4-2.2l-1.6-3.4C135,300.1,136,297.3,138.4,296.1z"/>
		<path class="st7" d="M150.4,321l60.2-29.2c2.4-1.2,5.3-0.2,6.4,2.2l1.6,3.4c1.2,2.4,0.2,5.3-2.2,6.4l-60.2,29.2
			c-2.4,1.2-5.3,0.2-6.4-2.2l-1.6-3.4C147.1,325.1,148.1,322.2,150.4,321z"/>
	</g>
	<path class="st2" d="M257.3,331.5c3.4-1.3,8.8-27.8,8.9-30.6c0.1-3.7-1.6-7.7-4.3-13.4c-2.7-5.8-14.4-9-14.4-9l-14.2,3.4l9.9,20.5
		c0.1,0.6-0.2,6,0.1,11.8c0.2,3.3,0.5,6.7,1.1,9.3C246.2,330.7,254.3,332.6,257.3,331.5z"/>
	
		<linearGradient id="SVGID_2_" gradientUnits="userSpaceOnUse" x1="365.2798" y1="1225.873" x2="351.8393" y2="1224.1199" gradientTransform="matrix(-0.9 0.4359 0.4359 0.9 39.9461 -964.5753)">
		<stop  offset="0" style="stop-color:#FFBFB8"/>
		<stop  offset="1" style="stop-color:#EF6359"/>
	</linearGradient>
	<path class="st8" d="M243.3,314.2c12.1-16.7,9.6-33.7,9.6-33.7l-16.1,8.5l6.5,13.3C243.2,303,243,308.4,243.3,314.2z"/>
	<path class="st4" d="M257.3,328.5c0,0-4.7-2.9-6.5-3.4c-1.7-0.5-0.7-17.9,4.7-16C260.9,310.9,260.1,321.2,257.3,328.5z"/>
	<path class="st2" d="M245.1,300.7c2.7-0.4,6.1-12.3,8.4-23c0,0,0,0,0-0.1c0.1-0.5,0.2-1.1,0.4-1.6c1.1-5.9,3.4-26.4-14.7-41.3
		c-3.7-1.6-6.8-2.5-6.8-2.5l-18.3,4.3l12.8,26.5c0.1,0.9-0.3,10,0.3,18.5c0.2,3.2,0.6,6.2,1.3,8.8
		C230.7,299.7,240.4,301.3,245.1,300.7z"/>
	
		<linearGradient id="SVGID_3_" gradientUnits="userSpaceOnUse" x1="371.2545" y1="1180.0676" x2="357.814" y2="1178.3145" gradientTransform="matrix(-0.9 0.4359 0.4359 0.9 39.9461 -964.5753)">
		<stop  offset="0" style="stop-color:#FFBFB8"/>
		<stop  offset="1" style="stop-color:#EF6359"/>
	</linearGradient>
	<path class="st9" d="M227.1,281.6c12.6-24,12-46.9,12-46.9c-3.7-1.6-6.8-2.5-6.8-2.5l-18.3,4.3l12.8,26.5
		C227,263.9,226.5,273.1,227.1,281.6z"/>
	<path class="st4" d="M245.2,296.7c0,0-6.3-3.9-8.6-4.6c-2.3-0.6-1-24,6.2-21.5C250,273.2,248.9,286.9,245.2,296.7z"/>
	<path class="st2" d="M228.8,267.1c4.6-0.7,8.3-32.7,8.4-36.4c0.2-4.8-2.9-11.2-6.3-18.6c-3.5-7.5-14.8-13.5-14.8-13.5l-0.8,0.2
		l-17.6,4.1l12.8,26.5c0.2,1.2-0.7,17.9,1.6,27.3C214.5,266.1,224.2,267.8,228.8,267.1z"/>
	
		<linearGradient id="SVGID_4_" gradientUnits="userSpaceOnUse" x1="358.8674" y1="1135.5054" x2="367.0486" y2="1126.4476" gradientTransform="matrix(-0.9 0.4359 0.4359 0.9 39.9461 -964.5753)">
		<stop  offset="0" style="stop-color:#FFBFB8"/>
		<stop  offset="1" style="stop-color:#EF6359"/>
	</linearGradient>
	<path class="st10" d="M197.8,203l12.8,26.5c0,0,8.5-17.1,4.7-30.6L197.8,203z"/>
	<path class="st4" d="M229,263.1c0,0-6.3-4-8.7-4.6c-2.3-0.7-1-24.1,6.2-21.6C233.7,239.5,232.7,253.3,229,263.1z"/>
	<path class="st2" d="M182.9,170.4l15.6,34c23.2,0.8,26.8-8.5,26.8-10.4c0-1.9-29.3-19.1-33.6-21.5
		C187.3,170.1,182.9,170.4,182.9,170.4z"/>
	<path class="st4" d="M226,195.3c0,0-8.5-1.8-11.1-1.6c-2.6,0.2-11.5-8-9.6-9.9C209,179.9,227.1,193.5,226,195.3z"/>
	<path class="st11" d="M97.3,277.1c0,0,57.2,31.8,45.1,93.1C142.4,370.2,108.6,325,97.3,277.1z"/>
	<path class="st2" d="M97.3,277.1c0,0,47.2,46,45.1,93.1C142.4,370.2,104.5,324.9,97.3,277.1z"/>
	<path class="st12" d="M117.3,188.6l10-4.9c7-3.4,15.5-0.5,18.9,6.6l23.4,48.3l-35.5,17.2l-23.4-48.3
		C107.3,200.5,110.2,192,117.3,188.6z"/>
	
		<linearGradient id="SVGID_5_" gradientUnits="userSpaceOnUse" x1="427.5462" y1="1094.2155" x2="427.5462" y2="1185.2444" gradientTransform="matrix(-0.9 0.4359 0.4359 0.9 39.9461 -964.5753)">
		<stop  offset="0" style="stop-color:#1B9BFD"/>
		<stop  offset="1" style="stop-color:#72C8ED"/>
	</linearGradient>
	<polygon class="st13" points="133.3,277.4 187,251.4 159.2,201.7 112.3,224.4 	"/>
	<polygon class="st14" points="159.2,201.7 170.6,247.5 187,251.4 	"/>
	<polygon class="st14" points="133.3,277.4 140.3,261.3 112.3,224.4 	"/>
	<g>
		<g>
			<path class="st7" d="M78.6,206c-0.2,0.1-0.3,0-0.4-0.1l-1.1-2.4c-0.1-0.2,0-0.3,0.1-0.4l1-0.5c0.3-0.1,0.6-0.2,0.8-0.1
				s0.4,0.3,0.6,0.5c0.1,0.3,0.1,0.5,0,0.8c-0.1,0.2-0.3,0.4-0.6,0.6l-0.7,0.3l0.4,0.8C78.8,205.8,78.8,205.9,78.6,206z M78.2,204.3
				l0.6-0.3c0.4-0.2,0.5-0.4,0.3-0.8c-0.1-0.3-0.4-0.4-0.8-0.2l-0.6,0.3L78.2,204.3z"/>
			<path class="st7" d="M80.6,205.1c-0.1,0-0.2,0-0.2,0c-0.1,0-0.1-0.1-0.1-0.2l0-2.9c0-0.1,0-0.2,0.1-0.2c0-0.1,0.1-0.1,0.2-0.1
				c0.1,0,0.1,0,0.2,0c0.1,0,0.1,0,0.2,0.1l2.2,1.9c0.1,0.1,0.1,0.2,0.1,0.2c0,0.1-0.1,0.1-0.2,0.2c-0.1,0-0.1,0-0.2,0
				s-0.1-0.1-0.2-0.1l-0.4-0.4l-1.4,0.6l0,0.6c0,0.1,0,0.2,0,0.2C80.8,205,80.7,205,80.6,205.1z M80.7,202.2l0,1.5l1-0.5L80.7,202.2
				L80.7,202.2z"/>
			<path class="st7" d="M84.2,203.4c-0.2,0.1-0.3,0-0.4-0.2l-0.5-1.1l-1.4-0.8c-0.1,0-0.1-0.1-0.1-0.1c0-0.1,0-0.1,0-0.2
				c0-0.1,0.1-0.1,0.1-0.1c0.1,0,0.2,0,0.4,0l1.1,0.6l0.2-1.3c0-0.1,0-0.1,0.1-0.2c0,0,0.1-0.1,0.1-0.1c0.1,0,0.2,0,0.3,0
				s0.1,0.2,0.1,0.3l-0.3,1.6l0.5,1.1C84.4,203.2,84.4,203.3,84.2,203.4z"/>
			<path class="st7" d="M86.1,202.5c-0.2,0.1-0.3,0-0.4-0.2l-1.1-2.3c-0.1-0.2,0-0.3,0.2-0.4l1-0.5c0.3-0.1,0.6-0.2,0.8-0.1
				c0.2,0.1,0.4,0.2,0.5,0.4c0.1,0.2,0.1,0.3,0.1,0.5c0,0.1-0.1,0.3-0.2,0.4c0.2,0,0.4,0,0.5,0.1c0.1,0.1,0.3,0.2,0.3,0.4
				c0.1,0.3,0.1,0.5,0,0.7c-0.1,0.2-0.3,0.4-0.6,0.5L86.1,202.5z M85.5,200.7l0.7-0.3c0.4-0.2,0.5-0.4,0.3-0.7
				c-0.1-0.3-0.4-0.3-0.7-0.2l-0.7,0.3L85.5,200.7z M86.1,202l0.7-0.3c0.4-0.2,0.5-0.4,0.3-0.7c-0.1-0.3-0.4-0.4-0.7-0.2l-0.7,0.3
				L86.1,202z"/>
			<path class="st7" d="M89.8,200.8c-0.3,0.1-0.6,0.2-0.8,0.2c-0.3,0-0.5-0.1-0.7-0.3c-0.2-0.2-0.4-0.4-0.5-0.7
				c-0.1-0.3-0.2-0.6-0.2-0.9s0.1-0.5,0.2-0.7c0.2-0.2,0.4-0.4,0.6-0.5c0.3-0.1,0.6-0.2,0.8-0.2c0.3,0,0.5,0.1,0.7,0.3
				c0.2,0.2,0.4,0.4,0.5,0.7c0.1,0.3,0.2,0.6,0.2,0.9s-0.1,0.5-0.2,0.7C90.3,200.5,90.1,200.7,89.8,200.8z M89.6,200.4
				c0.3-0.1,0.4-0.3,0.5-0.6c0.1-0.3,0-0.5-0.1-0.9c-0.2-0.3-0.3-0.5-0.6-0.7c-0.2-0.1-0.5-0.1-0.7,0c-0.3,0.1-0.4,0.3-0.5,0.6
				s0,0.5,0.1,0.9c0.1,0.3,0.3,0.5,0.6,0.7C89.1,200.5,89.3,200.5,89.6,200.4z"/>
			<path class="st7" d="M91.6,200c-0.1,0-0.1,0-0.2,0s-0.1-0.1-0.1-0.1c0-0.1,0-0.1,0-0.2l0.3-1.5l-1.3-0.7c-0.1,0-0.1-0.1-0.1-0.1
				c0-0.1,0-0.1,0-0.2c0-0.1,0.1-0.1,0.1-0.1c0.1,0,0.2,0,0.4,0l1.1,0.6l0.2-1.2c0-0.1,0.1-0.2,0.2-0.3c0.1,0,0.1,0,0.2,0
				c0.1,0,0.1,0,0.1,0.1c0,0.1,0,0.1,0,0.2l-0.3,1.5l1.4,0.7c0.1,0,0.1,0.1,0.1,0.1c0,0.1,0,0.1,0,0.2c0,0.1-0.1,0.1-0.1,0.1
				c-0.1,0-0.2,0-0.4,0l-1.1-0.6l-0.3,1.3C91.8,199.9,91.7,200,91.6,200z"/>
		</g>
		<g>
			<g>
				<g>
					<path class="st7" d="M85,184.1l-7.1-0.9c-0.3,0-0.5,0.1-0.7,0.3l-3.5,5.3c-0.1,0.2-0.2,0.5-0.1,0.7c0.1,0.2,0.3,0.4,0.6,0.4
						l6.3,0.8c0.3,0,0.5-0.1,0.7-0.3l1.6-2.2c0.1-0.2,0.1-0.4,0.1-0.5l-0.4-0.9c-0.1-0.2-0.3-0.2-0.4,0l-1.7,2.4l-4.8-0.6l2.7-3.9
						l6.3,0.8l2.6,5.7l-3.5,5.4l-7.3-0.5l-5.8-12.5l2.6-4l1.7,3.6l-1.6,2.2c0.3,0.1,0.6,0.3,0.6,0.6c0,0,0,0.1,0,0.2
						c0,0,0,0.1,0,0.1c0.1,0.1,0.1,0.3,0.2,0.4l2.1-3c0.1-0.2,0.2-0.5,0.1-0.7l-2.4-5.1c-0.1-0.2-0.2-0.3-0.4-0.4
						c-0.3-0.1-0.6,0-0.8,0.3l-3.6,5.4c-0.1,0.2-0.2,0.5-0.1,0.7l6.1,13.3c0.1,0.2,0.3,0.4,0.6,0.4l8.1,0.6c0.1,0,0.2,0,0.3-0.1
						c0.1-0.1,0.2-0.1,0.3-0.2l3.9-6.1c0.1-0.2,0.2-0.5,0.1-0.7l-3-6.4C85.5,184.2,85.3,184.1,85,184.1z"/>
				</g>
			</g>
			<g>
				<path class="st7" d="M70.6,183.5l2.6-4l1.7,3.6l-1.9,2.7c-0.1,0.1-0.1,0.2,0,0.3l0.5,1c0.1,0.2,0.3,0.2,0.4,0l2.5-3.6
					c0.1-0.2,0.2-0.5,0.1-0.7l-2.4-5.1c-0.1-0.2-0.2-0.3-0.4-0.4c-0.3-0.1-0.6,0-0.8,0.3l-3.6,5.4c-0.1,0.2-0.2,0.5-0.1,0.7
					l6.1,13.3c0,0.1,0.1,0.1,0.1,0.1l1-1.2L70.6,183.5z"/>
			</g>
		</g>
	</g>
</g>
<g id="coin4">
	<circle class="st15" cx="230.3" cy="142.7" r="17.9"/>
	<path class="st7" d="M236.7,140.8c0.3-2.2-1.3-3.3-3.6-4.1l0.7-2.9l-1.8-0.4l-0.7,2.9c-0.5-0.1-1-0.2-1.4-0.3l0.7-2.9l-1.8-0.4
		l-0.7,2.9l-3.6-0.9l-0.5,1.9c0,0,1.3,0.3,1.3,0.3c0.7,0.2,0.9,0.7,0.8,1l-2,8.1c-0.1,0.2-0.3,0.6-0.8,0.4c0,0-1.3-0.3-1.3-0.3
		l-0.9,2.1l3.6,0.9l-0.7,3l1.8,0.4l0.7-2.9c0.5,0.1,1,0.3,1.4,0.4l-0.7,2.9l1.8,0.4l0.7-3c3.1,0.6,5.3,0.3,6.3-2.4
		c0.8-2.2,0-3.5-1.6-4.3C235.6,143.2,236.5,142.4,236.7,140.8 M232.6,146.6c-0.6,2.2-4.3,1-5.5,0.7l1-3.9
		C229.3,143.6,233.2,144.2,232.6,146.6 M233.2,140.8c-0.5,2-3.6,1-4.6,0.7l0.9-3.6C230.4,138.2,233.7,138.7,233.2,140.8"/>
</g>
<g id="coin3">
	<circle class="st16" cx="49.4" cy="120.5" r="17.9"/>
	<path class="st7" d="M59.5,118.7l2.8,2.8l-2.8,2.8l-2.8-2.8L59.5,118.7z M54.7,119.5l2.8-2.8l-4.8-4.8l-2.8-2.8l-2.8,2.8l-4.8,4.8
		l2.8,2.8l4.8-4.8L54.7,119.5z M37.5,121.5l2.8,2.8l2.8-2.8l-2.8-2.8L37.5,121.5z M45.1,123.5l-2.8,2.8l4.8,4.8l2.8,2.8l2.8-2.8
		l4.8-4.8l-2.8-2.8l-4.8,4.8L45.1,123.5z M52.7,121.5l-2.8-2.8l-2.8,2.8l2.8,2.8L52.7,121.5z"/>
</g>
<g id="coin2">
	<g id="Layer_3">
	</g>
	<g>
		
			<linearGradient id="SVGID_6_" gradientUnits="userSpaceOnUse" x1="132.459" y1="794.4804" x2="163.0673" y2="794.4804" gradientTransform="matrix(1 0 0 1 9.9682 -702)">
			<stop  offset="0" style="stop-color:#DF3030"/>
			<stop  offset="0.4018" style="stop-color:#DD3030"/>
			<stop  offset="0.5465" style="stop-color:#D63030"/>
			<stop  offset="0.6496" style="stop-color:#CB3030"/>
			<stop  offset="0.733" style="stop-color:#BA3030"/>
			<stop  offset="0.8036" style="stop-color:#A43030"/>
			<stop  offset="0.8193" style="stop-color:#9E3030"/>
			<stop  offset="1" style="stop-color:#DF3030"/>
		</linearGradient>
		<path class="st17" d="M173,90.6c-0.2-0.5-3.1-0.9-8.4,0.5s-19.1,2.2-20.8,2.4c-1.7,0.2-1.4,1.1-1.4,1.1s0,0.1,0,0.4
			c3.1-0.2,19.1-1.3,25.9-3c2.3-0.6,3.8-0.4,4.7,0.1L173,90.6z"/>
		<path class="st18" d="M143.6,80c0,0,9-8.4,20.5,0.8L145,87c0,0-2.6-1-3.8-3.9C140.2,80.2,143.6,80,143.6,80z"/>
		<path class="st19" d="M136.3,86.2c0,0,3.1-6.2,8.1-8.1c0,0,6.3-0.7,1.7,4.2C146,82.3,142.4,85.5,136.3,86.2z"/>
		<path class="st19" d="M135.5,88.1c0,0-5,13.9,7.8,21.4L143,97.1C142.9,97.1,137.2,89.4,135.5,88.1z"/>
		<path class="st19" d="M147,94.4c-0.1-0.4-6.8-6.5,2.2-11.4c9-4.9,14.1-3.8,16.7-0.3c2.6,3.5,3.8,6,3.6,7.9S150.8,97,150.8,97
			L147,94.4z"/>
		<path class="st7" d="M173,90.6l0.1,20.5c0,0-0.4,2.3-10.1,2.6s-20,0.2-20,0.2s-0.5,0-0.6-1.6c-0.1-1.6,0.1-17.8,0.1-17.8
			s-0.2-0.8,1.4-1.1c1.7-0.2,15.6-0.9,20.8-2.4S172.8,90,173,90.6z"/>
		<path class="st20" d="M142.9,113.4c0,0,6.3,0.8,12.9-0.4c6.5-1.2,11.7-2.1,13.7-2.2c2-0.1,4.5-0.1,2.8,1c-1.7,1.1-10.9,2-15.3,2.1
			c-4.4,0.1-14.1,0-14.1,0L142.9,113.4z"/>
		<g>
			
				<linearGradient id="SVGID_7_" gradientUnits="userSpaceOnUse" x1="132.4093" y1="797.7355" x2="163.0827" y2="797.7355" gradientTransform="matrix(1 0 0 1 9.9682 -702)">
				<stop  offset="0" style="stop-color:#DF3030"/>
				<stop  offset="0.4018" style="stop-color:#DD3030"/>
				<stop  offset="0.5465" style="stop-color:#D63030"/>
				<stop  offset="0.6496" style="stop-color:#CB3030"/>
				<stop  offset="0.733" style="stop-color:#BA3030"/>
				<stop  offset="0.8036" style="stop-color:#A43030"/>
				<stop  offset="0.8193" style="stop-color:#9E3030"/>
				<stop  offset="1" style="stop-color:#DF3030"/>
			</linearGradient>
			<path class="st21" d="M155.1,97.2c0,0,7.1-1.1,12.8-2.1c5.7-1.1,5.2,0.4,5.2,0.4l0,0v-1.9c-0.9-0.4-2.6-0.5-5.5,0.1
				c-6.6,1.5-21.6,2.9-25.2,3.2c0,0.4,0,0.9,0,1.4L155.1,97.2z"/>
			
				<linearGradient id="SVGID_8_" gradientUnits="userSpaceOnUse" x1="132.4093" y1="794.5944" x2="163.0827" y2="794.5944" gradientTransform="matrix(1 0 0 1 9.9682 -702)">
				<stop  offset="0" style="stop-color:#DF3030"/>
				<stop  offset="0.4018" style="stop-color:#DD3030"/>
				<stop  offset="0.5465" style="stop-color:#D63030"/>
				<stop  offset="0.6496" style="stop-color:#CB3030"/>
				<stop  offset="0.733" style="stop-color:#BA3030"/>
				<stop  offset="0.8036" style="stop-color:#A43030"/>
				<stop  offset="0.8193" style="stop-color:#9E3030"/>
				<stop  offset="1" style="stop-color:#DF3030"/>
			</linearGradient>
			<path class="st22" d="M155.1,94.1c0,0,7.1-1.1,12.8-2.1c5.7-1.1,5.2,0.4,5.2,0.4l0,0v-1.9c-0.9-0.4-2.6-0.5-5.5,0.1
				c-6.6,1.5-21.6,2.9-25.2,3.2c0,0.4,0,0.9,0,1.4L155.1,94.1z"/>
			
				<linearGradient id="SVGID_9_" gradientUnits="userSpaceOnUse" x1="132.3757" y1="800.8768" x2="163.0965" y2="800.8768" gradientTransform="matrix(1 0 0 1 9.9682 -702)">
				<stop  offset="0" style="stop-color:#DF3030"/>
				<stop  offset="0.4018" style="stop-color:#DD3030"/>
				<stop  offset="0.5465" style="stop-color:#D63030"/>
				<stop  offset="0.6496" style="stop-color:#CB3030"/>
				<stop  offset="0.733" style="stop-color:#BA3030"/>
				<stop  offset="0.8036" style="stop-color:#A43030"/>
				<stop  offset="0.8193" style="stop-color:#9E3030"/>
				<stop  offset="1" style="stop-color:#DF3030"/>
			</linearGradient>
			<path class="st23" d="M167.9,98.2c5.7-1.1,5.2,0.4,5.2,0.4h0.1v-1.9c-0.9-0.4-2.6-0.5-5.5,0.1c-6.7,1.5-21.7,2.9-25.3,3.2
				c0,0.5,0,0.9,0,1.4l12.8-1.1C155.1,100.4,162.2,99.3,167.9,98.2z"/>
			<path class="st24" d="M173.1,109.2c-0.9-0.4-2.6-0.6-5.5,0.1c-6.7,1.5-21.8,2.9-25.3,3.2c0.1,1.3,0.6,1.3,0.6,1.3s0.5,0,1.4,0
				l10.7-0.9c0,0,7.1-1.1,12.8-2.1c5.7-1.1,5.2,0.4,5.2,0.4h0.1c0.1-0.1,0.1-0.1,0.1-0.1L173.1,109.2z"/>
			
				<linearGradient id="SVGID_10_" gradientUnits="userSpaceOnUse" x1="132.3205" y1="810.2767" x2="163.167" y2="810.2767" gradientTransform="matrix(1 0 0 1 9.9682 -702)">
				<stop  offset="0" style="stop-color:#DF3030"/>
				<stop  offset="0.4018" style="stop-color:#DD3030"/>
				<stop  offset="0.5465" style="stop-color:#D63030"/>
				<stop  offset="0.6496" style="stop-color:#CB3030"/>
				<stop  offset="0.733" style="stop-color:#BA3030"/>
				<stop  offset="0.8036" style="stop-color:#A43030"/>
				<stop  offset="0.8193" style="stop-color:#9E3030"/>
				<stop  offset="1" style="stop-color:#DF3030"/>
			</linearGradient>
			<path class="st25" d="M167.9,107.6c5.7-1.1,5.2,0.4,5.2,0.4h0.1v-1.9c-0.9-0.4-2.6-0.6-5.5,0.1c-6.7,1.6-22,3-25.3,3.2
				c0,0.6,0,1.1,0,1.4l12.8-1.1C155.1,109.8,162.2,108.7,167.9,107.6z"/>
			
				<linearGradient id="SVGID_11_" gradientUnits="userSpaceOnUse" x1="132.3465" y1="807.1356" x2="163.1301" y2="807.1356" gradientTransform="matrix(1 0 0 1 9.9682 -702)">
				<stop  offset="0" style="stop-color:#DF3030"/>
				<stop  offset="0.4018" style="stop-color:#DD3030"/>
				<stop  offset="0.5465" style="stop-color:#D63030"/>
				<stop  offset="0.6496" style="stop-color:#CB3030"/>
				<stop  offset="0.733" style="stop-color:#BA3030"/>
				<stop  offset="0.8036" style="stop-color:#A43030"/>
				<stop  offset="0.8193" style="stop-color:#9E3030"/>
				<stop  offset="1" style="stop-color:#DF3030"/>
			</linearGradient>
			<path class="st26" d="M167.9,104.5c5.7-1.1,5.2,0.4,5.2,0.4h0.1v-1.9c-0.9-0.4-2.6-0.6-5.5,0.1c-6.7,1.6-21.9,3-25.3,3.2
				c0,0.5,0,1,0,1.4l12.8-1.1C155.1,106.6,162.2,105.6,167.9,104.5z"/>
			
				<linearGradient id="SVGID_12_" gradientUnits="userSpaceOnUse" x1="132.3472" y1="803.9944" x2="163.1173" y2="803.9944" gradientTransform="matrix(1 0 0 1 9.9682 -702)">
				<stop  offset="0" style="stop-color:#DF3030"/>
				<stop  offset="0.4018" style="stop-color:#DD3030"/>
				<stop  offset="0.5465" style="stop-color:#D63030"/>
				<stop  offset="0.6496" style="stop-color:#CB3030"/>
				<stop  offset="0.733" style="stop-color:#BA3030"/>
				<stop  offset="0.8036" style="stop-color:#A43030"/>
				<stop  offset="0.8193" style="stop-color:#9E3030"/>
				<stop  offset="1" style="stop-color:#DF3030"/>
			</linearGradient>
			<path class="st27" d="M167.9,101.4c5.7-1.1,5.2,0.4,5.2,0.4h0.1v-1.9c-0.9-0.4-2.6-0.6-5.5,0.1c-6.7,1.6-21.9,2.9-25.3,3.2
				c0,0.5,0,1,0,1.4l12.8-1.1C155.1,103.5,162.2,102.4,167.9,101.4z"/>
		</g>
		<g>
			<path class="st18" d="M142.4,94.5c0,0-0.1,5-0.1,9.8c4.3,0.4,14.8-1.1,14.8-1.1l0.1-10.9c-5.8,0.6-12.3,1-13.4,1.2
				C142.2,93.7,142.4,94.5,142.4,94.5z"/>
		</g>
		<polygon class="st7" points="143.3,93.9 143.5,94.3 143.9,94.4 143.6,94.6 143.6,95 143.3,94.8 143,95 143.1,94.6 142.8,94.4 
			143.1,94.3 		"/>
		<polygon class="st7" points="143.3,96.2 143.5,96.5 143.9,96.6 143.6,96.8 143.6,97.2 143.3,97 143,97.2 143.1,96.8 142.8,96.6 
			143.1,96.5 		"/>
		<polygon class="st7" points="143.3,98.3 143.5,98.7 143.9,98.7 143.6,99 143.6,99.4 143.3,99.2 143,99.4 143.1,99 142.8,98.7 
			143.1,98.7 		"/>
		<polygon class="st7" points="143.3,100.5 143.5,100.9 143.9,100.9 143.6,101.2 143.6,101.5 143.3,101.4 143,101.5 143.1,101.2 
			142.8,100.9 143.1,100.9 		"/>
		<polygon class="st7" points="143.3,102.7 143.5,103.1 143.9,103.1 143.6,103.4 143.6,103.7 143.3,103.6 143,103.7 143.1,103.4 
			142.8,103.1 143.1,103.1 		"/>
		<polygon class="st7" points="145.9,93.9 146.1,94.3 146.5,94.4 146.1,94.6 146.2,95 145.9,94.8 145.6,95 145.6,94.6 145.3,94.4 
			145.7,94.3 		"/>
		<polygon class="st7" points="145.9,96.2 146.1,96.5 146.5,96.6 146.1,96.8 146.2,97.2 145.9,97 145.6,97.2 145.6,96.8 145.3,96.6 
			145.7,96.5 		"/>
		<polygon class="st7" points="145.9,98.3 146.1,98.7 146.5,98.7 146.1,99 146.2,99.4 145.9,99.2 145.6,99.4 145.6,99 145.3,98.7 
			145.7,98.7 		"/>
		<polygon class="st7" points="145.9,100.5 146.1,100.9 146.5,100.9 146.1,101.2 146.2,101.5 145.9,101.4 145.6,101.5 145.6,101.2 
			145.3,100.9 145.7,100.9 		"/>
		<polygon class="st7" points="145.9,102.7 146.1,103.1 146.5,103.1 146.1,103.4 146.2,103.7 145.9,103.6 145.6,103.7 145.6,103.4 
			145.3,103.1 145.7,103.1 		"/>
		<polygon class="st7" points="148.5,93.8 148.7,94.1 149.1,94.1 148.8,94.4 148.8,94.8 148.5,94.6 148.2,94.8 148.3,94.4 148,94.1 
			148.3,94.1 		"/>
		<polygon class="st7" points="148.5,96 148.7,96.3 149.1,96.4 148.8,96.6 148.8,97 148.5,96.8 148.2,97 148.3,96.6 148,96.4 
			148.3,96.3 		"/>
		<polygon class="st7" points="148.5,98.2 148.7,98.5 149.1,98.5 148.8,98.8 148.8,99.2 148.5,99 148.2,99.2 148.3,98.8 148,98.5 
			148.3,98.5 		"/>
		<polygon class="st7" points="148.5,100.4 148.7,100.7 149.1,100.7 148.8,101 148.8,101.4 148.5,101.2 148.2,101.4 148.3,101 
			148,100.7 148.3,100.7 		"/>
		<polygon class="st7" points="148.5,102.6 148.7,102.9 149.1,102.9 148.8,103.2 148.8,103.6 148.5,103.4 148.2,103.6 148.3,103.2 
			148,102.9 148.3,102.9 		"/>
		<polygon class="st7" points="151.2,93.6 151.4,93.9 151.7,93.9 151.4,94.2 151.5,94.6 151.2,94.4 150.9,94.6 150.9,94.2 
			150.6,93.9 151,93.9 		"/>
		<polygon class="st7" points="151.2,95.8 151.4,96.1 151.7,96.1 151.4,96.5 151.5,96.8 151.2,96.6 150.9,96.8 150.9,96.5 
			150.6,96.1 151,96.1 		"/>
		<polygon class="st7" points="151.2,98 151.4,98.3 151.7,98.3 151.4,98.6 151.5,99 151.2,98.8 150.9,99 150.9,98.6 150.6,98.3 
			151,98.3 		"/>
		<polygon class="st7" points="151.2,100.1 151.4,100.5 151.7,100.5 151.4,100.8 151.5,101.2 151.2,101 150.9,101.2 150.9,100.8 
			150.6,100.5 151,100.5 		"/>
		<polygon class="st7" points="151.2,102.3 151.4,102.7 151.7,102.7 151.4,103 151.5,103.4 151.2,103.2 150.9,103.4 150.9,103 
			150.6,102.7 151,102.7 		"/>
		<polygon class="st7" points="153.7,93.3 153.9,93.6 154.3,93.6 154,93.9 154.1,94.3 153.7,94.1 153.4,94.3 153.5,93.9 153.2,93.6 
			153.6,93.6 		"/>
		<polygon class="st7" points="153.7,95.5 153.9,95.8 154.3,95.8 154,96.1 154.1,96.5 153.7,96.3 153.4,96.5 153.5,96.1 153.2,95.8 
			153.6,95.8 		"/>
		<polygon class="st7" points="153.7,97.7 153.9,98 154.3,98 154,98.3 154.1,98.7 153.7,98.5 153.4,98.7 153.5,98.3 153.2,98 
			153.6,98 		"/>
		<polygon class="st7" points="153.7,99.8 153.9,100.2 154.3,100.2 154,100.5 154.1,100.9 153.7,100.7 153.4,100.9 153.5,100.5 
			153.2,100.2 153.6,100.2 		"/>
		<polygon class="st7" points="153.7,102 153.9,102.4 154.3,102.4 154,102.7 154.1,103.1 153.7,102.9 153.4,103.1 153.5,102.7 
			153.2,102.4 153.6,102.4 		"/>
		<polygon class="st7" points="156.4,92.9 156.6,93.3 157,93.3 156.7,93.6 156.8,93.9 156.4,93.8 156.1,93.9 156.1,93.6 155.9,93.3 
			156.3,93.3 		"/>
		<polygon class="st7" points="156.4,95.1 156.6,95.5 157,95.6 156.7,95.8 156.8,96.2 156.4,96 156.1,96.2 156.1,95.8 155.9,95.6 
			156.3,95.5 		"/>
		<polygon class="st7" points="156.4,97.3 156.6,97.7 157,97.7 156.7,98 156.8,98.3 156.4,98.2 156.1,98.3 156.1,98 155.9,97.7 
			156.3,97.7 		"/>
		<polygon class="st7" points="156.4,99.5 156.6,99.9 157,99.9 156.7,100.2 156.8,100.5 156.4,100.4 156.1,100.5 156.1,100.2 
			155.9,99.9 156.3,99.9 		"/>
		<polygon class="st7" points="156.4,101.7 156.6,102 157,102.1 156.7,102.4 156.8,102.7 156.4,102.6 156.1,102.7 156.1,102.4 
			155.9,102.1 156.3,102 		"/>
		<polygon class="st7" points="144.6,95.1 144.8,95.4 145.2,95.5 144.9,95.7 145,96.1 144.6,95.9 144.3,96.1 144.4,95.7 144.1,95.5 
			144.5,95.4 		"/>
		<polygon class="st7" points="144.6,97.2 144.8,97.6 145.2,97.6 144.9,97.9 145,98.3 144.6,98.1 144.3,98.3 144.4,97.9 144.1,97.6 
			144.5,97.6 		"/>
		<polygon class="st7" points="144.6,99.4 144.8,99.7 145.2,99.8 144.9,100 145,100.4 144.6,100.2 144.3,100.4 144.4,100 
			144.1,99.8 144.5,99.7 		"/>
		<polygon class="st7" points="144.6,101.6 144.8,101.9 145.2,102 144.9,102.2 145,102.6 144.6,102.4 144.3,102.6 144.4,102.2 
			144.1,102 144.5,101.9 		"/>
		<polygon class="st7" points="147.2,95 147.4,95.3 147.8,95.4 147.5,95.6 147.5,96 147.2,95.8 146.9,96 147,95.6 146.6,95.4 
			147,95.3 		"/>
		<polygon class="st7" points="147.2,97.1 147.4,97.5 147.8,97.5 147.5,97.8 147.5,98.2 147.2,98 146.9,98.2 147,97.8 146.6,97.5 
			147,97.5 		"/>
		<polygon class="st7" points="147.2,99.3 147.4,99.7 147.8,99.7 147.5,100 147.5,100.4 147.2,100.2 146.9,100.4 147,100 
			146.6,99.7 147,99.7 		"/>
		<polygon class="st7" points="147.2,101.5 147.4,101.9 147.8,101.9 147.5,102.2 147.5,102.6 147.2,102.4 146.9,102.6 147,102.2 
			146.6,101.9 147,101.9 		"/>
		<polygon class="st7" points="149.9,94.8 150,95.1 150.4,95.1 150.1,95.5 150.2,95.8 149.9,95.6 149.5,95.8 149.6,95.5 149.3,95.1 
			149.7,95.1 		"/>
		<polygon class="st7" points="149.9,97 150,97.3 150.4,97.3 150.1,97.6 150.2,98 149.9,97.8 149.5,98 149.6,97.6 149.3,97.3 
			149.7,97.3 		"/>
		<polygon class="st7" points="149.9,99.1 150,99.5 150.4,99.5 150.1,99.8 150.2,100.2 149.9,100 149.5,100.2 149.6,99.8 
			149.3,99.5 149.7,99.5 		"/>
		<polygon class="st7" points="149.9,101.3 150,101.7 150.4,101.7 150.1,102 150.2,102.4 149.9,102.2 149.5,102.4 149.6,102 
			149.3,101.7 149.7,101.7 		"/>
		<polygon class="st7" points="152.5,94.6 152.6,94.9 153,95 152.7,95.2 152.8,95.6 152.5,95.4 152.1,95.6 152.2,95.2 151.9,95 
			152.3,94.9 		"/>
		<polygon class="st7" points="152.5,96.7 152.6,97.1 153,97.1 152.7,97.4 152.8,97.8 152.5,97.6 152.1,97.8 152.2,97.4 151.9,97.1 
			152.3,97.1 		"/>
		<polygon class="st7" points="152.5,98.9 152.6,99.2 153,99.3 152.7,99.5 152.8,99.9 152.5,99.8 152.1,99.9 152.2,99.5 151.9,99.3 
			152.3,99.2 		"/>
		<polygon class="st7" points="152.5,101.1 152.6,101.4 153,101.5 152.7,101.7 152.8,102.1 152.5,101.9 152.1,102.1 152.2,101.7 
			151.9,101.5 152.3,101.4 		"/>
		<polygon class="st7" points="155.1,94.2 155.3,94.6 155.6,94.6 155.3,94.9 155.4,95.3 155.1,95.1 154.8,95.3 154.8,94.9 
			154.6,94.6 154.9,94.6 		"/>
		<polygon class="st7" points="155.1,96.4 155.3,96.7 155.6,96.8 155.3,97 155.4,97.4 155.1,97.2 154.8,97.4 154.8,97 154.6,96.8 
			154.9,96.7 		"/>
		<polygon class="st7" points="155.1,98.6 155.3,98.9 155.6,99 155.3,99.2 155.4,99.6 155.1,99.4 154.8,99.6 154.8,99.2 154.6,99 
			154.9,98.9 		"/>
		<polygon class="st7" points="155.1,100.7 155.3,101.1 155.6,101.2 155.3,101.4 155.4,101.8 155.1,101.6 154.8,101.8 154.8,101.4 
			154.6,101.2 154.9,101.1 		"/>
	</g>
</g>
<g id="coin1_1_">
	<circle class="st28" cx="181.4" cy="26.9" r="17.9"/>
	<path class="st29" d="M179.7,29c-3.5-0.1-6-0.8-6-1.5s2.6-1.3,6.1-1.5v2.4c0.1,0.1,0.6,0.1,1.7,0.1c0.9,0,1.6-0.1,1.8-0.1V26
		c3.5,0.2,6.1,0.8,6.1,1.5s-2.6,1.3-6.1,1.5l0,0c-0.2,0-0.9,0-1.8,0C180.3,29,179.8,29,179.7,29L179.7,29 M179.7,25.8
		c-4,0.2-7,1-7,1.9s3,1.7,7,1.9v6.9h3.5v-6.9c4-0.2,7-1,7-1.9s-3-1.7-7-1.9v-2.1h4.9v-3.3h-13.3v3.3h4.9V25.8"/>
</g>
</svg>
