<?xml version="1.0" encoding="utf-8"?>
<!-- Generator: Adobe Illustrator 24.3.0, SVG Export Plug-In . SVG Version: 6.00 Build 0)  -->
<svg version="1.1" id="how" xmlns="http://www.w3.org/2000/svg" xmlns:xlink="http://www.w3.org/1999/xlink" x="0px" y="0px"
	 viewBox="0 0 574 297" style="enable-background:new 0 0 574 297;" xml:space="preserve">
<style type="text/css">
	.st0{fill:#1B9BFD;}
	.st1{fill:#34C57F;}
	.st2{fill:#4A4C6A;}
	.st3{fill:#FFFFFF;}
	.st4{fill:#FFD100;}
	.st5{fill:#FFBF00;}
	.st6{fill:#FFA71B;}
	.st7{fill:#E8A027;}
	.st8{fill:#FFEF9E;}
	.st9{opacity:0.45;fill:#F2E9D3;}
	.st10{fill:#FFCD8D;}
	.st11{fill:#FFB268;}
	.st12{fill:#F4933F;}
	.st13{fill:#FFEFDE;}
	.st14{fill:#FFF4EB;}
	.st15{fill:#26A17B;}
	.st16{opacity:0.45;fill:#CEE7F3;}
	.st17{fill:#8D95B7;}
	.st18{fill:#9FAECC;}
	.st19{fill:#A7AAC6;}
	.st20{fill:#CCCCCC;}
	.st21{fill:#343434;}
	.st22{fill:#8C8C8C;}
	.st23{fill:#3C3C3B;}
	.st24{fill:#141414;}
	.st25{fill:#393939;}
	.st26{fill:#F0B90B;}
	.st27{fill:#0033AD;}
	.st28{fill:#73CCF9;}
	.st29{fill:#38B0F9;}
	.st30{fill:#EDEDED;}
</style>
<g id="text-logo">
	<path class="st0" d="M247.7,196.2c-1,0-1.5-0.5-1.5-1.6v-13.6c0-1,0.5-1.5,1.5-1.5h5.6c1.8,0,3.2,0.5,4.2,1.3
		c1,0.9,1.5,2.2,1.5,3.8c0,1.6-0.5,2.9-1.5,3.8c-1,0.9-2.3,1.3-4.2,1.3h-4.2v4.8C249.1,195.7,248.6,196.2,247.7,196.2z M249.1,187.5
		h3.7c2.2,0,3.2-1,3.2-2.8c0-1.8-1.1-2.8-3.2-2.8h-3.7V187.5z"/>
	<path class="st0" d="M259.1,196.2c-0.5,0-1-0.2-1.2-0.6c-0.2-0.4-0.2-0.9,0-1.3l6.1-13.7c0.2-0.5,0.5-0.7,0.7-1s0.6-0.2,1-0.2
		c0.4,0,0.7,0.1,1,0.2c0.2,0.2,0.5,0.5,0.7,1l6.2,13.7c0.2,0.5,0.2,1,0,1.3c-0.2,0.4-0.6,0.5-1.1,0.5s-0.7-0.1-1-0.4s-0.5-0.5-0.6-1
		l-1.2-2.7h-8.1l-1.1,2.7c-0.2,0.5-0.4,0.7-0.6,1C259.7,196.1,259.5,196.2,259.1,196.2z M265.7,182.9l-2.9,7h6L265.7,182.9
		L265.7,182.9z"/>
	<path class="st0" d="M279.4,196.2c-1,0-1.5-0.5-1.5-1.6v-6.2l-5-7c-0.2-0.2-0.2-0.6-0.2-0.9c0-0.4,0.1-0.6,0.4-0.9
		c0.2-0.2,0.6-0.4,1-0.4c0.6,0,1.1,0.4,1.6,1l3.8,5.5l3.9-5.5c0.2-0.4,0.5-0.6,0.7-0.7s0.5-0.2,0.9-0.2c0.6,0,1,0.2,1.2,0.6
		c0.2,0.5,0.1,0.9-0.2,1.5l-5,7v6.1C281,195.7,280.5,196.2,279.4,196.2z"/>
	<path class="st1" d="M290.2,196.1c-1.1,0-1.6-0.5-1.6-1.6v-13.3c0-1.1,0.5-1.6,1.6-1.6h5.6c1.7,0,3.1,0.4,4,1.1
		c1,0.7,1.5,1.8,1.5,3.2c0,0.9-0.2,1.6-0.7,2.3c-0.5,0.6-1.1,1.1-1.8,1.3c1,0.2,1.7,0.7,2.2,1.3c0.5,0.6,0.7,1.5,0.7,2.6
		c0,1.5-0.5,2.6-1.5,3.4s-2.3,1.2-4.2,1.2L290.2,196.1L290.2,196.1z M291.4,186.6h3.8c2.1,0,3.1-0.7,3.1-2.3c0-1.6-1-2.3-3.1-2.3
		h-3.8L291.4,186.6L291.4,186.6z M291.4,193.8h4.2c2.1,0,3.1-0.9,3.1-2.4c0-1.6-1-2.4-3.1-2.4h-4.2L291.4,193.8L291.4,193.8z"/>
	<path class="st1" d="M311.3,196.3c-1.6,0-2.9-0.4-4.2-1.1c-1.2-0.7-2.1-1.7-2.8-2.9c-0.6-1.2-1-2.8-1-4.5s0.4-3.2,1-4.5
		c0.6-1.2,1.6-2.2,2.8-2.9c1.2-0.7,2.6-1,4.2-1s2.9,0.4,4.2,1c1.2,0.7,2.1,1.7,2.8,2.9c0.6,1.2,1,2.7,1,4.4s-0.4,3.2-1,4.5
		c-0.6,1.2-1.6,2.2-2.8,2.9C314.3,196,312.9,196.3,311.3,196.3z M311.3,193.8c1.5,0,2.7-0.5,3.5-1.6c0.9-1.1,1.2-2.4,1.2-4.3
		c0-1.8-0.4-3.3-1.2-4.3s-2-1.6-3.5-1.6c-1.5,0-2.7,0.5-3.5,1.6c-0.9,1-1.2,2.4-1.2,4.3c0,1.8,0.4,3.3,1.2,4.3
		C308.6,193.2,309.7,193.8,311.3,193.8z"/>
	<path class="st1" d="M321.5,196.2c-0.4,0-0.7-0.1-1-0.4c-0.2-0.2-0.4-0.5-0.5-0.7c0-0.4,0.1-0.6,0.4-1l4.9-6.5l-4.6-6.1
		c-0.2-0.4-0.4-0.7-0.4-1c0-0.4,0.1-0.6,0.4-0.7c0.2-0.2,0.6-0.4,1-0.4c0.6,0,1.1,0.4,1.6,1l3.7,5.1l3.7-5.1c0.5-0.6,1-1,1.6-1
		c0.4,0,0.7,0.1,1,0.2c0.2,0.2,0.4,0.5,0.4,0.7c0,0.4-0.1,0.6-0.4,1l-4.6,6.1l4.9,6.5c0.2,0.4,0.4,0.6,0.4,1c0,0.4-0.1,0.6-0.4,0.7
		c-0.2,0.2-0.6,0.4-1,0.4c-0.6,0-1.1-0.4-1.6-1l-3.9-5.4l-3.9,5.4C322.6,195.9,322.1,196.2,321.5,196.2z"/>
</g>
<g id="logo">
	<g>
		<g>
			<path class="st1" d="M336.2,76.2l-40.7-25.1c-1.5-1-3.4-1-4.9,0l-36,22c-1.3,0.9-2.2,2.3-2.2,4c0,1.6,0.9,3.2,2.2,4l36,22.1
				c1.5,0.9,3.3,1,4.8,0.1l15.5-8.7c1.1-0.6,1.7-1.7,1.7-3.1v-6.4c0-1.2-1.2-2-2.3-1.3l-17.2,9.9l-27-16.9l27-16.5l36,22.2v41.7
				l-36,23.2l-42.3-23.3V32.7L278,16v26.6l-15.8,8.8c1.7,1.2,2.4,3.4,2,5.5c0,0.1-0.1,1-0.2,1.2c0,0.2-0.1,0.9-0.1,1
				c0,1,0,1.8,0,2.8L285,49.5c1.5-0.9,2.3-2.4,2.3-4V7.8c0-1.3-0.5-2.7-1.5-3.5c-1.6-1.5-3.9-1.7-5.7-0.6l-36.5,22.6
				c-1.3,0.9-2.2,2.3-2.2,4v97c0,1.7,1,3.3,2.4,4.2l47,26c0.7,0.4,1.5,0.6,2.3,0.6c0.9,0,1.7-0.2,2.4-0.6l40.7-26
				c1.5-0.9,2.3-2.4,2.3-4v-47C338.6,78.5,337.7,77.1,336.2,76.2z"/>
		</g>
	</g>
	<g>
		<path class="st0" d="M250.8,32.7L278,16v26.6l-19.2,10.6c-0.7,0.4-1.1,1.1-1.1,2v7.6c0,1.1,1.2,1.8,2.2,1.2L285,49.2
			c1.5-0.9,2.3-2.4,2.3-4V7.5c0-1.3-0.5-2.7-1.5-3.5c-1.6-1.5-3.9-1.7-5.7-0.6L243.6,26c-1.3,0.9-2.2,2.3-2.2,4v97.3
			c0,0.4,0,0.7,0.1,1.1l9.3-4.3L250.8,32.7L250.8,32.7z"/>
	</g>
</g>
<g id="guarantee">
	<path class="st2" d="M243.1,216.5c-0.7,0.4-1.6,0.5-2.3,0.5c-1,0-2-0.2-2.7-0.6c-0.7-0.4-1.5-0.9-2.1-1.5c-0.6-0.6-1-1.3-1.2-2.2
		c-0.2-0.9-0.5-1.7-0.5-2.6c0-1,0.1-2,0.4-2.8s0.7-1.7,1.2-2.3c0.5-0.6,1.2-1.2,2-1.6c0.9-0.4,1.7-0.6,2.8-0.6
		c0.7,0,1.5,0.1,2.1,0.2c0.6,0.1,1.2,0.5,1.7,0.9s1,0.9,1.2,1.3c0.4,0.6,0.6,1.2,0.7,2.1h-1.8c-0.1-0.5-0.2-1-0.5-1.3
		c-0.2-0.4-0.5-0.7-0.9-0.9c-0.4-0.2-0.7-0.4-1.2-0.5c-0.5-0.1-1-0.1-1.5-0.1c-0.9,0-1.5,0.1-2.1,0.5c-0.6,0.4-1.1,0.7-1.5,1.3
		c-0.4,0.5-0.6,1.1-0.9,1.8c-0.1,0.7-0.2,1.3-0.2,2.1c0,0.7,0.1,1.3,0.2,2.1c0.2,0.6,0.5,1.2,0.9,1.7c0.4,0.5,0.9,0.9,1.5,1.2
		c0.6,0.2,1.2,0.5,2,0.5s1.3-0.1,1.8-0.4c0.5-0.2,1-0.5,1.3-1c0.4-0.4,0.6-0.9,0.9-1.3c0.2-0.5,0.2-1.1,0.2-1.7h-4.3v-1.5h5.9v7.1
		h-1.1l-0.5-1.7C244.6,215.6,243.9,216.1,243.1,216.5z"/>
	<path class="st2" d="M258.6,215.6c-1,0.9-2.2,1.3-3.9,1.3c-1.7,0-3.1-0.4-4-1.2c-1-0.9-1.5-2.1-1.5-3.9v-8.6h1.8v8.6
		c0,1.2,0.4,2.1,1,2.7c0.6,0.6,1.6,1,2.8,1c1.1,0,2-0.4,2.6-1c0.6-0.6,0.9-1.6,0.9-2.7v-8.6h1.8v8.6
		C260.1,213.4,259.6,214.8,258.6,215.6z"/>
	<path class="st2" d="M268.5,203.2l5.3,13.4h-2l-1.5-4h-5.7l-1.5,4h-1.8l5.3-13.4H268.5z M269.8,211.1l-2.2-6.2l0,0l-2.3,6.2H269.8z
		"/>
	<path class="st2" d="M281.5,203.2c1.2,0,2.3,0.4,3.1,1c0.7,0.6,1.1,1.5,1.1,2.6c0,0.9-0.2,1.6-0.6,2.2c-0.4,0.6-1,1-1.8,1.2l0,0
		c0.4,0.1,0.7,0.2,1,0.4s0.5,0.4,0.6,0.6c0.1,0.2,0.2,0.5,0.4,0.9c0.1,0.2,0.1,0.6,0.1,1c0,0.4,0,0.6,0,1s0,0.7,0.1,1
		c0,0.4,0.1,0.6,0.2,1c0.1,0.2,0.2,0.6,0.4,0.7h-2c-0.1-0.1-0.2-0.4-0.2-0.6s-0.1-0.5-0.1-0.9c0-0.2,0-0.6,0-1c0-0.4,0-0.6-0.1-1
		c0-0.4-0.1-0.6-0.2-1c-0.1-0.2-0.2-0.6-0.4-0.7c-0.1-0.2-0.4-0.4-0.6-0.5c-0.2-0.1-0.6-0.2-1.1-0.2h-4.4v5.7H275v-13.4h6.5V203.2z
		 M281.9,209.3c0.4-0.1,0.7-0.2,1-0.4c0.2-0.1,0.5-0.4,0.7-0.7c0.1-0.4,0.2-0.7,0.2-1.2c0-0.7-0.2-1.2-0.6-1.7
		c-0.4-0.4-1-0.6-1.8-0.6H277v4.6h3.8C281.1,209.4,281.5,209.3,281.9,209.3z"/>
	<path class="st2" d="M293.7,203.2l5.3,13.4h-2l-1.5-4h-5.7l-1.5,4h-1.8l5.3-13.4H293.7z M294.9,211.1l-2.2-6.2l0,0l-2.3,6.2H294.9z
		"/>
	<path class="st2" d="M302.2,203.2l7.1,10.9l0,0v-10.9h1.7v13.4h-2l-7.1-10.8l0,0v10.8h-1.7v-13.4H302.2z"/>
	<path class="st2" d="M312.4,204.6v-1.5h10.8v1.5h-4.5v12h-1.8v-12H312.4z"/>
	<path class="st2" d="M334,203.2v1.5h-7.5v4.3h7v1.5h-7v4.6h7.6v1.5h-9.3v-13.4h9.2V203.2z"/>
	<path class="st2" d="M345.5,203.2v1.5h-7.5v4.3h7v1.5h-7v4.6h7.6v1.5h-9.3v-13.4h9.2V203.2z"/>
</g>
<g id="step-2">
	<g>
		<path class="st1" d="M120.8,296.2h-16.5c-2.3,0-4.2-1.8-4.2-4.2v-16.5c0-2.3,1.8-4.2,4.2-4.2h16.5c2.3,0,4.2,1.8,4.2,4.2V292
			C125,294.3,123.1,296.2,120.8,296.2z"/>
	</g>
	<g>
		<path class="st3" d="M107.6,279.9c0.2-0.6,0.5-1.2,0.9-1.7c0.4-0.5,1-0.9,1.6-1.1c0.6-0.2,1.3-0.4,2.1-0.4c0.6,0,1.2,0.1,1.8,0.2
			c0.6,0.2,1.1,0.5,1.5,0.9s0.7,0.9,1,1.3c0.2,0.5,0.4,1.1,0.4,1.8c0,0.6-0.1,1.2-0.2,1.7c-0.2,0.5-0.5,1-0.9,1.3
			c-0.4,0.4-0.7,0.7-1.1,1.1c-0.5,0.4-0.9,0.6-1.3,1c-0.5,0.2-1,0.6-1.3,0.9c-0.5,0.2-0.9,0.6-1.2,0.9c-0.4,0.4-0.7,0.6-1,1
			c-0.2,0.4-0.5,0.7-0.5,1.2h7.6v1.6h-9.7c0.1-0.9,0.2-1.6,0.5-2.2c0.2-0.6,0.6-1.1,1-1.6c0.4-0.5,0.9-0.9,1.2-1.2
			c0.5-0.4,1-0.7,1.5-1c0.6-0.4,1.2-0.7,1.7-1.1s0.9-0.6,1.2-1c0.4-0.4,0.6-0.7,0.7-1.1c0.1-0.4,0.2-0.9,0.2-1.3
			c0-0.4-0.1-0.7-0.2-1.1c-0.1-0.4-0.4-0.6-0.6-0.9s-0.6-0.4-0.9-0.5c-0.4-0.1-0.7-0.2-1.1-0.2c-0.5,0-1,0.1-1.3,0.4
			c-0.4,0.2-0.7,0.5-0.9,0.9c-0.2,0.4-0.4,0.7-0.5,1.2c-0.1,0.5-0.1,0.9-0.1,1.3h-1.8C107.2,281.3,107.4,280.7,107.6,279.9z"/>
	</g>
	<g>
		<path class="st2" d="M140.8,280.3c-0.5-0.4-1.1-0.5-1.8-0.5c-0.4,0-0.6,0-0.9,0.1c-0.2,0.1-0.6,0.1-0.7,0.4
			c-0.2,0.1-0.4,0.4-0.6,0.6c-0.1,0.2-0.2,0.5-0.2,0.9c0,0.4,0.1,0.6,0.2,0.9c0.2,0.2,0.5,0.4,0.9,0.5s0.7,0.2,1.1,0.4
			c0.4,0.1,0.9,0.1,1.2,0.2c0.5,0.1,0.9,0.2,1.2,0.4c0.4,0.1,0.7,0.4,1.1,0.6c0.4,0.2,0.6,0.5,0.9,0.9c0.2,0.4,0.2,0.9,0.2,1.3
			c0,0.6-0.1,1.1-0.4,1.5c-0.2,0.4-0.6,0.7-1,1c-0.4,0.2-0.9,0.5-1.3,0.6s-1,0.1-1.5,0.1c-0.6,0-1.2-0.1-1.7-0.2
			c-0.5-0.1-1-0.4-1.5-0.7c-0.4-0.4-0.7-0.7-1-1.2c-0.2-0.5-0.4-1.1-0.4-1.7h1.3c0,0.5,0.1,0.9,0.2,1.2c0.1,0.4,0.4,0.6,0.7,0.9
			c0.2,0.2,0.6,0.4,1,0.5c0.4,0.1,0.7,0.1,1.2,0.1c0.4,0,0.6,0,1-0.1c0.4-0.1,0.6-0.1,0.9-0.4c0.2-0.1,0.5-0.4,0.6-0.6
			c0.1-0.2,0.2-0.6,0.2-1c0-0.4-0.1-0.7-0.2-1c-0.2-0.2-0.5-0.4-0.9-0.6c-0.4-0.1-0.7-0.2-1.1-0.4c-0.4-0.1-0.9-0.2-1.2-0.2
			c-0.5-0.1-0.9-0.2-1.2-0.4c-0.4-0.1-0.7-0.2-1.1-0.5c-0.4-0.2-0.6-0.5-0.9-0.9c-0.2-0.4-0.2-0.7-0.2-1.2c0-0.6,0.1-1,0.4-1.5
			c0.2-0.4,0.5-0.7,0.9-1c0.4-0.2,0.9-0.5,1.2-0.6c0.5-0.1,1-0.2,1.5-0.2c0.6,0,1.1,0.1,1.6,0.2c0.5,0.1,0.9,0.4,1.2,0.6
			c0.4,0.2,0.6,0.6,0.9,1.1c0.2,0.5,0.4,1,0.4,1.6h-1.3C141.6,281.3,141.3,280.7,140.8,280.3z"/>
		<path class="st2" d="M150.6,289.2c-0.6,0.5-1.3,0.7-2.2,0.7c-0.6,0-1.2-0.1-1.6-0.2c-0.5-0.2-0.9-0.5-1.2-0.9s-0.6-0.9-0.7-1.3
			c-0.1-0.5-0.2-1.1-0.2-1.7s0.1-1.1,0.2-1.7c0.1-0.5,0.5-1,0.7-1.3c0.4-0.4,0.7-0.6,1.2-0.9s1-0.4,1.5-0.4c0.7,0,1.3,0.1,1.7,0.5
			c0.5,0.2,0.9,0.6,1.1,1.1c0.2,0.5,0.5,1,0.6,1.5c0.1,0.5,0.1,1,0.1,1.5H146c0,0.4,0,0.7,0.1,1c0.1,0.4,0.2,0.6,0.5,0.9
			s0.5,0.5,0.7,0.6c0.4,0.1,0.7,0.2,1.1,0.2c0.6,0,1-0.1,1.3-0.4c0.4-0.2,0.6-0.6,0.7-1.2h1.3C151.6,288.1,151.2,288.8,150.6,289.2z
			 M150.4,284.2c-0.1-0.2-0.2-0.5-0.5-0.7c-0.2-0.2-0.5-0.4-0.7-0.5c-0.2-0.1-0.6-0.1-0.9-0.1c-0.4,0-0.6,0-0.9,0.1
			c-0.2,0.1-0.5,0.2-0.7,0.5c-0.2,0.2-0.4,0.5-0.5,0.7c-0.1,0.2-0.1,0.6-0.2,0.9h4.5C150.5,284.7,150.5,284.4,150.4,284.2z"/>
		<path class="st2" d="M154.7,278.8v10.9h-1.3v-10.9H154.7z"/>
		<path class="st2" d="M158,278.8v10.9h-1.3v-10.9H158z"/>
		<path class="st2" d="M165.7,289.2c-0.6,0.5-1.3,0.7-2.2,0.7c-0.6,0-1.2-0.1-1.6-0.2c-0.5-0.2-0.9-0.5-1.2-0.9
			c-0.4-0.4-0.6-0.9-0.7-1.3c-0.1-0.5-0.2-1.1-0.2-1.7s0.1-1.1,0.2-1.7c0.1-0.5,0.5-1,0.7-1.3c0.4-0.4,0.7-0.6,1.2-0.9
			c0.5-0.2,1-0.4,1.5-0.4c0.7,0,1.3,0.1,1.7,0.5c0.5,0.2,0.9,0.6,1.1,1.1c0.2,0.5,0.5,1,0.6,1.5c0.1,0.5,0.1,1,0.1,1.5H161
			c0,0.4,0,0.7,0.1,1c0.1,0.4,0.2,0.6,0.5,0.9c0.2,0.2,0.5,0.5,0.7,0.6c0.4,0.1,0.7,0.2,1.1,0.2c0.6,0,1-0.1,1.3-0.4
			c0.4-0.2,0.6-0.6,0.7-1.2h1.3C166.6,288.1,166.3,288.8,165.7,289.2z M165.3,284.2c-0.1-0.2-0.2-0.5-0.5-0.7
			c-0.2-0.2-0.5-0.4-0.7-0.5c-0.2-0.1-0.6-0.1-0.9-0.1c-0.4,0-0.6,0-0.9,0.1c-0.2,0.1-0.5,0.2-0.7,0.5c-0.2,0.2-0.4,0.5-0.5,0.7
			c-0.1,0.2-0.1,0.6-0.2,0.9h4.5C165.5,284.7,165.4,284.4,165.3,284.2z"/>
		<path class="st2" d="M169.4,281.9v1.7l0,0c0.4-0.6,0.7-1.1,1.2-1.5s1.1-0.5,1.7-0.5v1.3c-0.5,0-1,0.1-1.3,0.2
			c-0.4,0.1-0.6,0.4-0.9,0.6c-0.2,0.2-0.4,0.6-0.5,1c-0.1,0.4-0.1,0.9-0.1,1.3v3.5h-1.3v-7.9h1.2V281.9z"/>
		<path class="st2" d="M184.6,289.7c-0.2,0.1-0.5,0.2-1,0.2c-0.4,0-0.6-0.1-0.9-0.2c-0.2-0.2-0.2-0.5-0.2-1c-0.4,0.5-0.7,0.7-1.2,1
			c-0.5,0.2-1,0.2-1.6,0.2c-0.4,0-0.7,0-1-0.1c-0.2-0.1-0.6-0.2-0.9-0.4c-0.2-0.1-0.4-0.4-0.6-0.7c-0.1-0.2-0.2-0.6-0.2-1
			c0-0.5,0.1-0.9,0.2-1.1c0.1-0.2,0.4-0.5,0.6-0.7c0.2-0.1,0.5-0.4,0.9-0.4c0.4,0,0.6-0.1,1-0.2c0.4-0.1,0.7-0.1,1-0.1
			c0.4,0,0.6-0.1,0.9-0.1c0.2-0.1,0.5-0.1,0.6-0.2c0.1-0.1,0.2-0.4,0.2-0.6s0-0.5-0.1-0.7c-0.1-0.2-0.2-0.4-0.4-0.4
			c-0.1-0.1-0.4-0.1-0.6-0.2c-0.2,0-0.4,0-0.6,0c-0.6,0-1,0.1-1.3,0.4c-0.4,0.2-0.6,0.6-0.6,1.2h-1.3c0-0.5,0.1-0.9,0.4-1.2
			c0.2-0.4,0.4-0.6,0.7-0.9c0.4-0.2,0.6-0.4,1.1-0.5c0.4-0.1,0.9-0.1,1.2-0.1c0.4,0,0.7,0,1.1,0.1c0.4,0,0.6,0.1,1,0.4
			c0.2,0.1,0.5,0.4,0.7,0.6c0.1,0.2,0.2,0.6,0.2,1.1v4c0,0.2,0,0.5,0,0.6c0,0.1,0.1,0.2,0.4,0.2c0.1,0,0.2,0,0.4-0.1L184.6,289.7
			L184.6,289.7z M182.5,285.7c-0.1,0.1-0.4,0.2-0.6,0.2c-0.2,0-0.5,0.1-0.9,0.1c-0.2,0-0.6,0.1-0.9,0.1s-0.6,0.1-0.9,0.2
			c-0.2,0.1-0.4,0.2-0.6,0.5c-0.1,0.2-0.2,0.5-0.2,0.7c0,0.2,0,0.4,0.1,0.5c0.1,0.1,0.2,0.2,0.4,0.4c0.1,0.1,0.2,0.1,0.5,0.2
			c0.2,0,0.4,0.1,0.6,0.1c0.4,0,0.9,0,1.1-0.1c0.2-0.1,0.6-0.2,0.7-0.5c0.2-0.1,0.4-0.4,0.5-0.6c0.1-0.2,0.1-0.4,0.1-0.6
			L182.5,285.7L182.5,285.7z"/>
		<path class="st2" d="M186.9,281.9v1.7l0,0c0.4-0.6,0.7-1.1,1.2-1.5c0.5-0.4,1.1-0.5,1.7-0.5v1.3c-0.5,0-1,0.1-1.3,0.2
			c-0.4,0.1-0.6,0.4-0.9,0.6s-0.4,0.6-0.5,1c-0.1,0.4-0.1,0.9-0.1,1.3v3.5h-1.3v-7.9h1.2V281.9z"/>
		<path class="st2" d="M192,281.9v1.7l0,0c0.4-0.6,0.7-1.1,1.2-1.5s1.1-0.5,1.7-0.5v1.3c-0.5,0-1,0.1-1.3,0.2
			c-0.4,0.1-0.6,0.4-0.9,0.6c-0.2,0.2-0.4,0.6-0.5,1c-0.1,0.4-0.1,0.9-0.1,1.3v3.5h-1.3v-7.9h1.2V281.9z"/>
		<path class="st2" d="M202.9,289.7c-0.2,0.1-0.5,0.2-1,0.2c-0.4,0-0.6-0.1-0.9-0.2c-0.2-0.2-0.2-0.5-0.2-1c-0.4,0.5-0.7,0.7-1.2,1
			c-0.5,0.2-1,0.2-1.6,0.2c-0.4,0-0.7,0-1-0.1c-0.2-0.1-0.6-0.2-0.9-0.4c-0.2-0.1-0.4-0.4-0.6-0.7c-0.1-0.2-0.2-0.6-0.2-1
			c0-0.5,0.1-0.9,0.2-1.1c0.1-0.2,0.4-0.5,0.6-0.7c0.2-0.1,0.5-0.4,0.9-0.4c0.4,0,0.6-0.1,1-0.2c0.4-0.1,0.7-0.1,1-0.1
			c0.4,0,0.6-0.1,0.9-0.1c0.2-0.1,0.5-0.1,0.6-0.2c0.1-0.1,0.2-0.4,0.2-0.6s0-0.5-0.1-0.7c-0.1-0.2-0.2-0.4-0.4-0.4
			c-0.1-0.1-0.4-0.1-0.6-0.2c-0.2,0-0.4,0-0.6,0c-0.6,0-1,0.1-1.3,0.4c-0.4,0.2-0.6,0.6-0.6,1.2h-1.3c0-0.5,0.1-0.9,0.4-1.2
			c0.2-0.4,0.4-0.6,0.7-0.9c0.4-0.2,0.6-0.4,1.1-0.5c0.4-0.1,0.9-0.1,1.2-0.1c0.4,0,0.7,0,1.1,0.1c0.4,0,0.6,0.1,1,0.4
			c0.2,0.1,0.5,0.4,0.7,0.6c0.1,0.2,0.2,0.6,0.2,1.1v4c0,0.2,0,0.5,0,0.6c0,0.1,0.1,0.2,0.4,0.2c0.1,0,0.2,0,0.4-0.1L202.9,289.7
			L202.9,289.7z M200.8,285.7c-0.1,0.1-0.4,0.2-0.6,0.2s-0.5,0.1-0.9,0.1c-0.2,0-0.6,0.1-0.9,0.1c-0.2,0-0.6,0.1-0.9,0.2
			s-0.4,0.2-0.6,0.5c-0.1,0.2-0.2,0.5-0.2,0.7c0,0.2,0,0.4,0.1,0.5c0.1,0.1,0.2,0.2,0.4,0.4c0.1,0.1,0.2,0.1,0.5,0.2
			c0.2,0,0.4,0.1,0.6,0.1c0.4,0,0.9,0,1.1-0.1c0.2-0.1,0.6-0.2,0.7-0.5c0.2-0.1,0.4-0.4,0.5-0.6c0.1-0.2,0.1-0.4,0.1-0.6
			L200.8,285.7L200.8,285.7z"/>
		<path class="st2" d="M205.4,281.9v1.2l0,0c0.5-1,1.3-1.5,2.6-1.5c0.5,0,1,0.1,1.3,0.2c0.4,0.1,0.6,0.4,0.9,0.6s0.4,0.6,0.5,0.9
			c0.1,0.4,0.1,0.7,0.1,1.2v5.3h-1.3v-5.4c0-0.5-0.1-0.9-0.4-1.2c-0.2-0.2-0.7-0.5-1.2-0.5c-0.4,0-0.7,0.1-1,0.2
			c-0.2,0.1-0.5,0.2-0.7,0.5c-0.2,0.2-0.4,0.5-0.5,0.7c-0.1,0.2-0.1,0.6-0.1,1v4.5h-1.3v-7.9h1.2V281.9z"/>
		<path class="st2" d="M218.6,292c-0.6,0.6-1.5,1-2.8,1c-0.4,0-0.7,0-1.1-0.1c-0.4-0.1-0.7-0.2-1.1-0.4c-0.4-0.2-0.6-0.4-0.7-0.7
			c-0.2-0.2-0.4-0.6-0.4-1.1h1.3c0,0.2,0.1,0.5,0.2,0.6c0.1,0.1,0.4,0.2,0.5,0.4c0.2,0.1,0.4,0.1,0.6,0.2c0.2,0,0.5,0.1,0.7,0.1
			c0.5,0,0.7-0.1,1.1-0.2c0.2-0.1,0.5-0.4,0.7-0.6c0.2-0.2,0.4-0.6,0.4-1c0.1-0.4,0.1-0.7,0.1-1.2v-0.5l0,0c-0.2,0.5-0.6,0.9-1,1.1
			c-0.5,0.2-1,0.4-1.5,0.4c-0.6,0-1.1-0.1-1.6-0.4c-0.5-0.2-0.9-0.5-1.1-0.9c-0.2-0.4-0.5-0.7-0.6-1.2c-0.1-0.5-0.2-1-0.2-1.6
			c0-0.5,0.1-1,0.2-1.5c0.1-0.5,0.4-1,0.6-1.3s0.6-0.7,1.1-1c0.5-0.2,1.1-0.4,1.7-0.4c0.5,0,1,0.1,1.3,0.4c0.4,0.2,0.7,0.5,1,1l0,0
			V282h1.2v7.2C219.4,290.4,219.2,291.3,218.6,292z M216.9,288.5c0.2-0.1,0.5-0.4,0.7-0.7c0.2-0.2,0.4-0.6,0.4-1
			c0.1-0.4,0.1-0.7,0.1-1.1c0-0.4,0-0.7-0.1-1c-0.1-0.4-0.2-0.6-0.4-0.9c-0.1-0.2-0.4-0.5-0.7-0.6c-0.2-0.1-0.6-0.2-1.1-0.2
			c-0.4,0-0.7,0.1-1.1,0.2c-0.2,0.1-0.5,0.4-0.7,0.6c-0.2,0.2-0.4,0.6-0.4,1c-0.1,0.4-0.1,0.7-0.1,1.1c0,0.4,0,0.7,0.1,1.1
			c0.1,0.4,0.2,0.7,0.4,1c0.1,0.2,0.4,0.5,0.7,0.7c0.2,0.1,0.6,0.2,1.1,0.2C216.2,288.7,216.6,288.6,216.9,288.5z"/>
		<path class="st2" d="M227,289.2c-0.6,0.5-1.3,0.7-2.2,0.7c-0.6,0-1.2-0.1-1.6-0.2c-0.5-0.2-0.9-0.5-1.2-0.9s-0.6-0.9-0.7-1.3
			c-0.1-0.5-0.2-1.1-0.2-1.7s0.1-1.1,0.2-1.7c0.1-0.5,0.5-1,0.7-1.3c0.4-0.4,0.7-0.6,1.2-0.9s1-0.4,1.5-0.4c0.7,0,1.3,0.1,1.7,0.5
			c0.5,0.2,0.9,0.6,1.1,1.1c0.2,0.5,0.5,1,0.6,1.5c0.1,0.5,0.1,1,0.1,1.5h-5.9c0,0.4,0,0.7,0.1,1c0.1,0.4,0.2,0.6,0.5,0.9
			c0.2,0.2,0.5,0.5,0.7,0.6c0.4,0.1,0.7,0.2,1.1,0.2c0.6,0,1-0.1,1.3-0.4c0.4-0.2,0.6-0.6,0.7-1.2h1.3
			C228,288.1,227.6,288.8,227,289.2z M226.6,284.2c-0.1-0.2-0.2-0.5-0.5-0.7c-0.2-0.2-0.5-0.4-0.7-0.5c-0.2-0.1-0.6-0.1-0.9-0.1
			c-0.4,0-0.6,0-0.9,0.1c-0.2,0.1-0.5,0.2-0.7,0.5c-0.2,0.2-0.4,0.5-0.5,0.7c-0.1,0.2-0.1,0.6-0.2,0.9h4.5
			C226.9,284.7,226.8,284.4,226.6,284.2z"/>
		<path class="st2" d="M230.8,281.9v1.7l0,0c0.4-0.6,0.7-1.1,1.2-1.5c0.5-0.4,1.1-0.5,1.7-0.5v1.3c-0.5,0-1,0.1-1.3,0.2
			c-0.4,0.1-0.6,0.4-0.9,0.6s-0.4,0.6-0.5,1c-0.1,0.4-0.1,0.9-0.1,1.3v3.5h-1.3v-7.9h1.2V281.9z"/>
		<path class="st2" d="M240.2,281.9v1.2l0,0c0.6-0.9,1.5-1.3,2.6-1.3c0.5,0,1,0.1,1.3,0.4c0.4,0.2,0.7,0.6,0.9,1.1
			c0.2-0.5,0.6-0.7,1.1-1c0.5-0.2,0.9-0.4,1.5-0.4c0.4,0,0.7,0,1.1,0.1c0.4,0.1,0.6,0.2,0.9,0.4c0.2,0.1,0.4,0.4,0.5,0.7
			c0.1,0.2,0.2,0.6,0.2,1.1v5.7h-1.3v-5.1c0-0.2,0-0.5-0.1-0.7c0-0.2-0.1-0.4-0.2-0.6c-0.1-0.1-0.2-0.2-0.5-0.4
			c-0.2-0.1-0.5-0.1-0.7-0.1c-0.6,0-1.1,0.2-1.5,0.6c-0.4,0.4-0.6,0.9-0.6,1.5v4.9h-1.3v-5.1c0-0.2,0-0.5-0.1-0.7
			c0-0.2-0.1-0.4-0.2-0.6c-0.1-0.1-0.2-0.2-0.5-0.4c-0.2-0.1-0.5-0.1-0.7-0.1c-0.4,0-0.7,0.1-1,0.2c-0.2,0.1-0.5,0.4-0.6,0.6
			s-0.2,0.5-0.4,0.6c-0.1,0.2-0.1,0.4-0.1,0.6v4.9h-1.3V282h1.3V281.9z"/>
		<path class="st2" d="M257.5,289.2c-0.6,0.5-1.3,0.7-2.2,0.7c-0.6,0-1.2-0.1-1.6-0.2c-0.5-0.2-0.9-0.5-1.2-0.9
			c-0.4-0.4-0.6-0.9-0.7-1.3c-0.1-0.5-0.2-1.1-0.2-1.7s0.1-1.1,0.2-1.7c0.1-0.5,0.5-1,0.7-1.3c0.4-0.4,0.7-0.6,1.2-0.9
			c0.5-0.2,1-0.4,1.5-0.4c0.7,0,1.3,0.1,1.7,0.5c0.5,0.2,0.9,0.6,1.1,1.1c0.2,0.5,0.5,1,0.6,1.5c0.1,0.5,0.1,1,0.1,1.5h-5.9
			c0,0.4,0,0.7,0.1,1c0.1,0.4,0.2,0.6,0.5,0.9s0.5,0.5,0.7,0.6c0.4,0.1,0.7,0.2,1.1,0.2c0.6,0,1-0.1,1.3-0.4
			c0.4-0.2,0.6-0.6,0.7-1.2h1.3C258.5,288.1,258.2,288.8,257.5,289.2z M257.3,284.2c-0.1-0.2-0.2-0.5-0.5-0.7
			c-0.2-0.2-0.5-0.4-0.7-0.5c-0.2-0.1-0.6-0.1-0.9-0.1c-0.4,0-0.6,0-0.9,0.1c-0.2,0.1-0.5,0.2-0.7,0.5c-0.2,0.2-0.4,0.5-0.5,0.7
			c-0.1,0.2-0.1,0.6-0.2,0.9h4.5C257.4,284.7,257.4,284.4,257.3,284.2z"/>
		<path class="st2" d="M265.7,289.2c-0.6,0.5-1.3,0.7-2.2,0.7c-0.6,0-1.2-0.1-1.6-0.2c-0.5-0.2-0.9-0.5-1.2-0.9s-0.6-0.9-0.7-1.3
			c-0.1-0.5-0.2-1.1-0.2-1.7s0.1-1.1,0.2-1.7c0.1-0.5,0.5-1,0.7-1.3c0.4-0.4,0.7-0.6,1.2-0.9c0.5-0.2,1-0.4,1.5-0.4
			c0.7,0,1.3,0.1,1.7,0.5c0.5,0.2,0.9,0.6,1.1,1.1c0.2,0.5,0.5,1,0.6,1.5c0.1,0.5,0.1,1,0.1,1.5h-5.9c0,0.4,0,0.7,0.1,1
			c0.1,0.4,0.2,0.6,0.5,0.9c0.2,0.2,0.5,0.5,0.7,0.6c0.4,0.1,0.7,0.2,1.1,0.2c0.6,0,1-0.1,1.3-0.4c0.4-0.2,0.6-0.6,0.7-1.2h1.3
			C266.7,288.1,266.3,288.8,265.7,289.2z M265.5,284.2c-0.1-0.2-0.2-0.5-0.5-0.7c-0.2-0.2-0.5-0.4-0.7-0.5c-0.2-0.1-0.6-0.1-0.9-0.1
			c-0.4,0-0.6,0-0.9,0.1c-0.2,0.1-0.5,0.2-0.7,0.5c-0.2,0.2-0.4,0.5-0.5,0.7c-0.1,0.2-0.1,0.6-0.2,0.9h4.5
			C265.6,284.7,265.6,284.4,265.5,284.2z"/>
		<path class="st2" d="M271.7,281.9v1.1h-1.6v4.9c0,0.1,0,0.2,0,0.4s0.1,0.1,0.1,0.2c0.1,0,0.1,0.1,0.2,0.1s0.2,0,0.5,0h0.6v1.1h-1
			c-0.4,0-0.6,0-0.9-0.1c-0.2,0-0.5-0.1-0.6-0.2c-0.1-0.1-0.2-0.2-0.4-0.5c-0.1-0.2-0.1-0.5-0.1-0.9v-5h-1.3v-1.1h1.3v-2.3h1.3v2.3
			L271.7,281.9L271.7,281.9z"/>
		<path class="st2" d="M277.3,284.9v1.2h-4.4v-1.2H277.3z"/>
		<path class="st2" d="M284.4,289.7v-1.2l0,0c-0.2,0.5-0.6,0.9-1.1,1.1c-0.5,0.2-1,0.4-1.5,0.4c-0.5,0-1-0.1-1.3-0.2
			c-0.4-0.1-0.6-0.4-0.9-0.6c-0.2-0.2-0.4-0.6-0.5-0.9c-0.1-0.4-0.1-0.7-0.1-1.2v-5.3h1.3v5.4c0,0.5,0.1,0.9,0.4,1.2
			c0.2,0.2,0.7,0.5,1.2,0.5c0.4,0,0.7-0.1,1-0.2c0.2-0.1,0.5-0.2,0.7-0.5c0.2-0.2,0.4-0.5,0.5-0.7c0.1-0.2,0.1-0.6,0.1-1v-4.5h1.3
			v7.9h-1.2V289.7z"/>
		<path class="st2" d="M289,281.9v1.1l0,0c0.2-0.5,0.6-0.7,1-1c0.4-0.2,1-0.2,1.5-0.2c0.6,0,1.1,0.1,1.6,0.4
			c0.5,0.2,0.9,0.5,1.1,0.9c0.2,0.4,0.5,0.9,0.7,1.3c0.1,0.5,0.2,1,0.2,1.6c0,0.6-0.1,1.1-0.2,1.6c-0.1,0.5-0.4,1-0.7,1.3
			c-0.2,0.4-0.7,0.6-1.1,0.9c-0.5,0.2-1,0.4-1.6,0.4c-0.2,0-0.4,0-0.6,0c-0.2,0-0.5-0.1-0.7-0.2c-0.2-0.1-0.5-0.2-0.6-0.4
			c-0.2-0.1-0.4-0.4-0.5-0.6l0,0v4h-1.3V282h1.3V281.9z M293.6,284.7c-0.1-0.4-0.2-0.6-0.5-1c-0.2-0.2-0.5-0.5-0.7-0.6
			c-0.4-0.1-0.7-0.2-1.1-0.2c-0.5,0-0.9,0.1-1.1,0.2c-0.4,0.1-0.6,0.4-0.7,0.7c-0.2,0.2-0.4,0.6-0.4,1c-0.1,0.4-0.1,0.7-0.1,1.1
			c0,0.4,0,0.7,0.1,1.1c0.1,0.4,0.2,0.7,0.5,1c0.2,0.2,0.5,0.5,0.7,0.6c0.4,0.1,0.7,0.2,1.1,0.2c0.5,0,0.9-0.1,1.1-0.2
			c0.2-0.1,0.5-0.4,0.7-0.7c0.2-0.2,0.4-0.6,0.4-1c0.1-0.4,0.1-0.7,0.1-1.1C293.8,285.4,293.7,285.1,293.6,284.7z"/>
		<path class="st2" d="M300.8,284.2c0.1-0.5,0.4-1,0.7-1.3c0.4-0.4,0.7-0.6,1.2-0.9c0.5-0.2,1-0.4,1.7-0.4c0.6,0,1.2,0.1,1.7,0.4
			c0.5,0.2,0.9,0.5,1.2,0.9c0.4,0.4,0.6,0.9,0.7,1.3c0.1,0.5,0.2,1.1,0.2,1.6c0,0.6-0.1,1.1-0.2,1.6c-0.1,0.5-0.4,1-0.7,1.3
			c-0.4,0.4-0.7,0.6-1.2,0.9c-0.5,0.2-1,0.4-1.7,0.4c-0.6,0-1.2-0.1-1.7-0.4c-0.5-0.2-0.9-0.5-1.2-0.9c-0.4-0.4-0.6-0.9-0.7-1.3
			c-0.1-0.5-0.2-1.1-0.2-1.6C300.6,285.2,300.6,284.7,300.8,284.2z M302,287.1c0.1,0.4,0.2,0.7,0.5,1c0.2,0.2,0.5,0.5,0.7,0.6
			c0.2,0.1,0.6,0.2,1,0.2c0.4,0,0.6-0.1,1-0.2c0.2-0.1,0.6-0.4,0.7-0.6c0.2-0.2,0.4-0.6,0.5-1c0.1-0.4,0.2-0.9,0.2-1.2
			c0-0.5-0.1-0.9-0.2-1.2c-0.1-0.4-0.2-0.7-0.5-1c-0.2-0.2-0.5-0.5-0.7-0.6c-0.2-0.1-0.6-0.2-1-0.2c-0.4,0-0.6,0.1-1,0.2
			c-0.2,0.1-0.6,0.4-0.7,0.6c-0.2,0.2-0.4,0.6-0.5,1c-0.1,0.4-0.2,0.9-0.2,1.2C301.9,286.3,301.9,286.8,302,287.1z"/>
		<path class="st2" d="M311,281.9v1.7l0,0c0.4-0.6,0.7-1.1,1.2-1.5c0.5-0.4,1.1-0.5,1.7-0.5v1.3c-0.5,0-1,0.1-1.3,0.2
			c-0.4,0.1-0.6,0.4-0.9,0.6c-0.2,0.2-0.4,0.6-0.5,1c-0.1,0.4-0.1,0.9-0.1,1.3v3.5h-1.3v-7.9h1.2V281.9z"/>
		<path class="st2" d="M320,288c0.1,0.2,0.2,0.4,0.5,0.5c0.2,0.1,0.4,0.2,0.7,0.2c0.2,0,0.5,0.1,0.7,0.1s0.4,0,0.6,0
			c0.2,0,0.5-0.1,0.6-0.1c0.2-0.1,0.4-0.2,0.5-0.4c0.1-0.1,0.2-0.4,0.2-0.6c0-0.4-0.1-0.6-0.4-0.7c-0.2-0.1-0.6-0.4-1-0.4
			c-0.4-0.1-0.9-0.2-1.2-0.2c-0.5-0.1-0.9-0.2-1.2-0.4c-0.4-0.1-0.7-0.4-1-0.6c-0.2-0.2-0.4-0.7-0.4-1.2c0-0.4,0.1-0.7,0.2-1
			c0.1-0.2,0.4-0.5,0.7-0.7c0.2-0.1,0.6-0.4,1-0.4c0.4-0.1,0.7-0.1,1.1-0.1c0.5,0,0.9,0,1.2,0.1c0.4,0.1,0.7,0.2,1,0.4
			c0.2,0.2,0.5,0.5,0.7,0.7c0.1,0.4,0.2,0.7,0.4,1.2h-1.3c0-0.2-0.1-0.5-0.2-0.6c-0.1-0.1-0.2-0.2-0.5-0.4c-0.1-0.1-0.4-0.1-0.6-0.2
			c-0.2,0-0.4-0.1-0.6-0.1c-0.2,0-0.4,0-0.6,0s-0.4,0.1-0.5,0.1c-0.1,0.1-0.2,0.1-0.4,0.2c-0.1,0.1-0.1,0.2-0.1,0.5
			c0,0.2,0.1,0.4,0.2,0.6c0.1,0.1,0.4,0.2,0.6,0.4c0.2,0.1,0.5,0.1,0.9,0.2c0.4,0.1,0.6,0.1,1,0.2c0.4,0.1,0.6,0.1,1,0.2
			c0.4,0.1,0.6,0.2,0.9,0.4c0.2,0.1,0.5,0.4,0.6,0.6c0.1,0.2,0.2,0.6,0.2,1c0,0.5-0.1,0.9-0.2,1.2c-0.2,0.4-0.5,0.6-0.7,0.7
			c-0.4,0.2-0.7,0.4-1.1,0.4c-0.4,0.1-0.9,0.1-1.2,0.1c-0.5,0-0.9,0-1.2-0.1c-0.4-0.1-0.7-0.2-1.1-0.5c-0.4-0.2-0.6-0.5-0.7-0.9
			c-0.2-0.4-0.2-0.7-0.4-1.2h1.3C319.9,287.5,319.9,287.7,320,288z"/>
		<path class="st2" d="M327.9,278.8v4.2l0,0c0.1-0.2,0.2-0.5,0.5-0.6c0.2-0.1,0.4-0.4,0.6-0.4c0.2-0.1,0.5-0.2,0.7-0.2
			s0.5-0.1,0.7-0.1c0.5,0,1,0.1,1.3,0.2c0.4,0.1,0.6,0.4,0.9,0.6c0.2,0.2,0.4,0.6,0.5,0.9c0.1,0.4,0.1,0.7,0.1,1.2v5.3H332v-5.4
			c0-0.5-0.1-0.9-0.4-1.2c-0.2-0.2-0.7-0.5-1.2-0.5c-0.4,0-0.7,0.1-1,0.2c-0.2,0.1-0.5,0.2-0.7,0.5c-0.2,0.2-0.4,0.5-0.5,0.7
			c-0.1,0.2-0.1,0.6-0.1,1v4.5h-1.3v-10.9H327.9z"/>
		<path class="st2" d="M335.3,280.4v-1.6h1.3v1.6H335.3z M336.6,281.9v7.9h-1.3v-7.9H336.6z"/>
		<path class="st2" d="M339.9,281.9v1.1l0,0c0.2-0.5,0.6-0.7,1-1c0.5-0.2,1-0.2,1.5-0.2c0.6,0,1.1,0.1,1.6,0.4
			c0.5,0.2,0.9,0.5,1.1,0.9c0.2,0.4,0.5,0.9,0.7,1.3c0.1,0.5,0.2,1,0.2,1.6c0,0.6-0.1,1.1-0.2,1.6c-0.1,0.5-0.4,1-0.7,1.3
			c-0.2,0.4-0.7,0.6-1.1,0.9c-0.5,0.2-1,0.4-1.6,0.4c-0.2,0-0.4,0-0.6,0s-0.5-0.1-0.7-0.2s-0.5-0.2-0.6-0.4
			c-0.2-0.1-0.4-0.4-0.5-0.6l0,0v4h-1.3V282h1.3V281.9z M344.6,284.7c-0.1-0.4-0.2-0.6-0.5-1c-0.2-0.4-0.5-0.5-0.7-0.6
			c-0.4-0.1-0.7-0.2-1.1-0.2c-0.5,0-0.9,0.1-1.1,0.2c-0.4,0.1-0.6,0.4-0.7,0.7c-0.2,0.2-0.4,0.6-0.4,1c-0.1,0.4-0.1,0.7-0.1,1.1
			c0,0.4,0,0.7,0.1,1.1c0.1,0.4,0.2,0.7,0.5,1c0.2,0.2,0.5,0.5,0.7,0.6c0.4,0.1,0.7,0.2,1.1,0.2c0.5,0,0.9-0.1,1.1-0.2
			c0.2-0.1,0.5-0.4,0.7-0.7c0.2-0.2,0.4-0.6,0.4-1c0.1-0.4,0.1-0.7,0.1-1.1C344.7,285.4,344.7,285.1,344.6,284.7z"/>
		<path class="st2" d="M348.6,288c0.1,0.2,0.2,0.4,0.5,0.5c0.2,0.1,0.4,0.2,0.7,0.2c0.2,0,0.5,0.1,0.7,0.1s0.4,0,0.6,0
			c0.2,0,0.5-0.1,0.6-0.1c0.2-0.1,0.4-0.2,0.5-0.4c0.1-0.1,0.2-0.4,0.2-0.6c0-0.4-0.1-0.6-0.4-0.7c-0.2-0.1-0.6-0.4-1-0.4
			c-0.4-0.1-0.9-0.2-1.2-0.2c-0.5-0.1-0.9-0.2-1.2-0.4c-0.4-0.1-0.7-0.4-1-0.6c-0.2-0.2-0.4-0.7-0.4-1.2c0-0.4,0.1-0.7,0.2-1
			c0.1-0.2,0.4-0.5,0.7-0.7c0.2-0.1,0.6-0.4,1-0.4c0.4-0.1,0.7-0.1,1.1-0.1c0.5,0,0.9,0,1.2,0.1c0.4,0.1,0.7,0.2,1,0.4
			c0.2,0.2,0.5,0.5,0.7,0.7c0.1,0.4,0.2,0.7,0.4,1.2h-1.3c0-0.2-0.1-0.5-0.2-0.6c-0.1-0.1-0.2-0.2-0.5-0.4c-0.1-0.1-0.4-0.1-0.6-0.2
			c-0.2,0-0.4-0.1-0.6-0.1c-0.2,0-0.4,0-0.6,0s-0.4,0.1-0.5,0.1c-0.1,0.1-0.2,0.1-0.4,0.2c-0.1,0.1-0.1,0.2-0.1,0.5
			c0,0.2,0.1,0.4,0.2,0.6c0.1,0.1,0.4,0.2,0.6,0.4c0.2,0.1,0.5,0.1,0.9,0.2c0.4,0.1,0.6,0.1,1,0.2c0.4,0.1,0.6,0.1,1,0.2
			c0.4,0.1,0.6,0.2,0.9,0.4c0.2,0.1,0.5,0.4,0.6,0.6c0.1,0.2,0.2,0.6,0.2,1c0,0.5-0.1,0.9-0.2,1.2c-0.2,0.4-0.5,0.6-0.7,0.7
			c-0.4,0.2-0.7,0.4-1.1,0.4c-0.4,0.1-0.9,0.1-1.2,0.1c-0.5,0-0.9,0-1.2-0.1c-0.4-0.1-0.7-0.2-1.1-0.5c-0.4-0.2-0.6-0.5-0.7-0.9
			c-0.2-0.4-0.2-0.7-0.4-1.2h1.3C348.5,287.5,348.5,287.7,348.6,288z"/>
		<path class="st2" d="M362.9,281.9v1.1h-1.6v4.9c0,0.1,0,0.2,0,0.4s0.1,0.1,0.1,0.2c0.1,0,0.1,0.1,0.2,0.1c0.1,0,0.2,0,0.5,0h0.6
			v1.1h-1c-0.4,0-0.6,0-0.9-0.1c-0.2,0-0.5-0.1-0.6-0.2c-0.1-0.1-0.2-0.2-0.4-0.5c-0.1-0.2-0.1-0.5-0.1-0.9v-5h-1.3v-1.1h1.3v-2.3
			h1.3v2.3L362.9,281.9L362.9,281.9z"/>
		<path class="st2" d="M365.6,278.8v4.2l0,0c0.1-0.2,0.2-0.5,0.5-0.6c0.2-0.1,0.4-0.4,0.6-0.4c0.2-0.1,0.5-0.2,0.7-0.2
			s0.5-0.1,0.7-0.1c0.5,0,1,0.1,1.3,0.2c0.4,0.1,0.6,0.4,0.9,0.6s0.4,0.6,0.5,0.9c0.1,0.4,0.1,0.7,0.1,1.2v5.3h-1.3v-5.4
			c0-0.5-0.1-0.9-0.4-1.2c-0.2-0.2-0.7-0.5-1.2-0.5c-0.4,0-0.7,0.1-1,0.2c-0.2,0.1-0.5,0.2-0.7,0.5c-0.2,0.2-0.4,0.5-0.5,0.7
			s-0.1,0.6-0.1,1v4.5h-1.3v-10.9H365.6z"/>
		<path class="st2" d="M378.4,289.2c-0.6,0.5-1.3,0.7-2.2,0.7c-0.6,0-1.2-0.1-1.6-0.2c-0.5-0.2-0.9-0.5-1.2-0.9s-0.6-0.9-0.7-1.3
			c-0.1-0.5-0.2-1.1-0.2-1.7s0.1-1.1,0.2-1.7c0.1-0.5,0.5-1,0.7-1.3c0.4-0.4,0.7-0.6,1.2-0.9c0.5-0.2,1-0.4,1.5-0.4
			c0.7,0,1.3,0.1,1.7,0.5c0.5,0.2,0.9,0.6,1.1,1.1c0.2,0.5,0.5,1,0.6,1.5c0.1,0.5,0.1,1,0.1,1.5h-5.9c0,0.4,0,0.7,0.1,1
			c0.1,0.4,0.2,0.6,0.5,0.9c0.2,0.2,0.5,0.5,0.7,0.6c0.4,0.1,0.7,0.2,1.1,0.2c0.6,0,1-0.1,1.3-0.4c0.4-0.2,0.6-0.6,0.7-1.2h1.3
			C379.4,288.1,379,288.8,378.4,289.2z M378.2,284.2c-0.1-0.2-0.2-0.5-0.5-0.7c-0.2-0.2-0.5-0.4-0.7-0.5c-0.2-0.1-0.6-0.1-0.9-0.1
			c-0.4,0-0.6,0-0.9,0.1c-0.2,0.1-0.5,0.2-0.7,0.5c-0.2,0.2-0.4,0.5-0.5,0.7c-0.1,0.2-0.1,0.6-0.2,0.9h4.5
			C378.3,284.7,378.2,284.4,378.2,284.2z"/>
		<path class="st2" d="M385.1,284.2c0.1-0.5,0.4-1,0.7-1.3c0.4-0.4,0.7-0.6,1.2-0.9c0.5-0.2,1-0.4,1.7-0.4c0.6,0,1.2,0.1,1.7,0.4
			c0.5,0.2,0.9,0.5,1.2,0.9c0.4,0.4,0.6,0.9,0.7,1.3c0.1,0.5,0.2,1.1,0.2,1.6c0,0.6-0.1,1.1-0.2,1.6c-0.1,0.5-0.4,1-0.7,1.3
			c-0.4,0.4-0.7,0.6-1.2,0.9s-1,0.4-1.7,0.4c-0.6,0-1.2-0.1-1.7-0.4c-0.5-0.2-0.9-0.5-1.2-0.9c-0.4-0.4-0.6-0.9-0.7-1.3
			c-0.1-0.5-0.2-1.1-0.2-1.6C384.9,285.2,384.9,284.7,385.1,284.2z M386.5,287.1c0.1,0.4,0.2,0.7,0.5,1c0.2,0.2,0.5,0.5,0.7,0.6
			c0.2,0.1,0.6,0.2,1,0.2c0.4,0,0.6-0.1,1-0.2c0.2-0.1,0.6-0.4,0.7-0.6c0.2-0.2,0.4-0.6,0.5-1c0.1-0.4,0.2-0.9,0.2-1.2
			c0-0.5-0.1-0.9-0.2-1.2c-0.1-0.4-0.2-0.7-0.5-1c-0.2-0.2-0.5-0.5-0.7-0.6c-0.2-0.1-0.6-0.2-1-0.2c-0.4,0-0.6,0.1-1,0.2
			c-0.2,0.1-0.6,0.4-0.7,0.6c-0.2,0.2-0.4,0.6-0.5,1c-0.1,0.4-0.2,0.9-0.2,1.2C386.2,286.3,386.2,286.8,386.5,287.1z"/>
		<path class="st2" d="M395.3,281.9v1.7l0,0c0.4-0.6,0.7-1.1,1.2-1.5s1.1-0.5,1.7-0.5v1.3c-0.5,0-1,0.1-1.3,0.2
			c-0.4,0.1-0.6,0.4-0.9,0.6s-0.4,0.6-0.5,1c-0.1,0.4-0.1,0.9-0.1,1.3v3.5H394v-7.9h1.2V281.9z"/>
		<path class="st2" d="M404.6,289.7v-1.1l0,0c-0.2,0.5-0.6,0.7-1,1c-0.5,0.2-1,0.2-1.5,0.2c-0.6,0-1.1-0.1-1.6-0.4
			c-0.5-0.2-0.9-0.5-1.1-0.9c-0.2-0.4-0.5-0.9-0.7-1.3c-0.1-0.5-0.2-1-0.2-1.6c0-0.6,0.1-1.1,0.2-1.6c0.1-0.5,0.4-1,0.7-1.3
			c0.2-0.4,0.7-0.6,1.1-0.9c0.5-0.2,1-0.4,1.6-0.4c0.2,0,0.4,0,0.6,0.1c0.2,0,0.5,0.1,0.7,0.2c0.2,0.1,0.5,0.2,0.6,0.4
			c0.2,0.1,0.4,0.4,0.5,0.6l0,0v-4h1.3v10.9H404.6z M399.9,286.9c0.1,0.4,0.2,0.6,0.5,1c0.2,0.2,0.5,0.5,0.7,0.6
			c0.4,0.1,0.7,0.2,1.1,0.2c0.5,0,0.9-0.1,1.1-0.2c0.4-0.1,0.6-0.4,0.7-0.7c0.2-0.2,0.4-0.6,0.4-1c0.1-0.4,0.1-0.7,0.1-1.1
			c0-0.4,0-0.7-0.1-1.1c-0.1-0.4-0.2-0.7-0.5-1c-0.2-0.2-0.5-0.5-0.7-0.6c-0.4-0.1-0.7-0.2-1.1-0.2c-0.5,0-0.9,0.1-1.1,0.2
			c-0.4,0.1-0.6,0.4-0.7,0.7c-0.1,0.2-0.4,0.6-0.4,1c-0.1,0.4-0.1,0.7-0.1,1.1C399.8,286.3,399.8,286.6,399.9,286.9z"/>
		<path class="st2" d="M413.5,289.2c-0.6,0.5-1.3,0.7-2.2,0.7c-0.6,0-1.2-0.1-1.6-0.2c-0.5-0.2-0.9-0.5-1.2-0.9
			c-0.4-0.4-0.6-0.9-0.7-1.3c-0.1-0.5-0.2-1.1-0.2-1.7s0.1-1.1,0.2-1.7c0.1-0.5,0.5-1,0.7-1.3c0.4-0.4,0.7-0.6,1.2-0.9
			s1-0.4,1.5-0.4c0.7,0,1.3,0.1,1.7,0.5c0.5,0.2,0.9,0.6,1.1,1.1c0.2,0.5,0.5,1,0.6,1.5c0.1,0.5,0.1,1,0.1,1.5h-5.9
			c0,0.4,0,0.7,0.1,1c0.1,0.4,0.2,0.6,0.5,0.9c0.2,0.2,0.5,0.5,0.7,0.6c0.4,0.1,0.7,0.2,1.1,0.2c0.6,0,1-0.1,1.3-0.4
			c0.4-0.2,0.6-0.6,0.7-1.2h1.3C414.5,288.1,414.1,288.8,413.5,289.2z M413.2,284.2c-0.1-0.2-0.2-0.5-0.5-0.7
			c-0.2-0.2-0.5-0.4-0.7-0.5c-0.2-0.1-0.6-0.1-0.9-0.1c-0.4,0-0.6,0-0.9,0.1c-0.2,0.1-0.5,0.2-0.7,0.5c-0.2,0.2-0.4,0.5-0.5,0.7
			c-0.1,0.2-0.1,0.6-0.2,0.9h4.5C413.4,284.7,413.4,284.4,413.2,284.2z"/>
		<path class="st2" d="M417.3,281.9v1.7l0,0c0.4-0.6,0.7-1.1,1.2-1.5c0.5-0.4,1.1-0.5,1.7-0.5v1.3c-0.5,0-1,0.1-1.3,0.2
			c-0.4,0.1-0.6,0.4-0.9,0.6s-0.4,0.6-0.5,1c-0.1,0.4-0.1,0.9-0.1,1.3v3.5H416v-7.9h1.2V281.9z"/>
		<path class="st2" d="M421.8,288.1v1.7h-1.7v-1.7H421.8z"/>
	</g>
	<g>
		<polygon class="st1" points="553.9,229.5 520.2,229.5 503.4,258.7 520.2,287.7 553.9,287.7 570.6,258.7 		"/>
	</g>
	<g>
		<rect x="13.4" y="255.4" class="st1" width="502.9" height="6.6"/>
	</g>
	<g>
		<g>
			<polygon class="st1" points="17.7,272 5.8,258.7 17.7,245.3 26.1,245.3 14.5,258.7 26.1,272 			"/>
		</g>
	</g>
	<g>
		<g>
			<path class="st3" d="M554,248L554,248L554,248l-16.6-7.3l-16.3,7.2l0,0l-0.4,0.1l0,0l-1.8,0.9v21.4l18.6,8.2l18.6-8.2v-21.4
				L554,248z M537.3,243.5l13.3,5.9l-2.6,1l-6.4-2.9c-0.2-0.1-0.5-0.1-0.7,0l-3.9,2.1c-0.6,0.4-0.6,1.2,0,1.5l4,2l-4.9,1.8
				l-12.1-5.4L537.3,243.5z M521.3,250.7l14.1,6.2v17.8l-14.1-6.1V250.7z M537.8,275.5v-18.8l4.9-1.8l-0.1,5.9c0,0.6,0.6,1,1.1,0.7
				l4.5-1.7c0.4-0.1,0.5-0.4,0.5-0.7l0.1-6.5l4.5-1.7v17.7L537.8,275.5z"/>
		</g>
		<g>
			<path class="st3" d="M529.7,268.1l-5.3-2.2c-0.5-0.2-1.1,0-1.3,0.5c-0.2,0.5,0,1.1,0.5,1.3l5.3,2.2c0.1,0,0.2,0.1,0.4,0.1
				c0.4,0,0.7-0.2,1-0.6C530.6,268.9,530.3,268.3,529.7,268.1z"/>
		</g>
	</g>
</g>
<g id="seller">
	<path class="st2" d="M452,211.2c-0.5-0.4-1.1-0.5-1.8-0.5c-0.4,0-0.6,0-0.9,0.1c-0.2,0.1-0.6,0.1-0.7,0.4c-0.2,0.1-0.4,0.4-0.6,0.6
		c-0.1,0.2-0.2,0.5-0.2,0.9s0.1,0.6,0.2,0.9c0.2,0.2,0.5,0.4,0.9,0.5c0.4,0.1,0.7,0.2,1.1,0.4c0.4,0.1,0.9,0.1,1.2,0.2
		c0.5,0.1,0.9,0.2,1.2,0.4c0.4,0.1,0.7,0.4,1.1,0.6c0.4,0.2,0.6,0.5,0.9,0.9c0.2,0.4,0.2,0.9,0.2,1.3c0,0.6-0.1,1.1-0.4,1.5
		c-0.2,0.4-0.6,0.7-1,1s-0.9,0.5-1.3,0.6s-1,0.1-1.5,0.1c-0.6,0-1.2-0.1-1.7-0.2c-0.5-0.1-1-0.4-1.5-0.7c-0.4-0.4-0.7-0.7-1-1.2
		c-0.2-0.5-0.4-1.1-0.4-1.7h1.3c0,0.5,0.1,0.9,0.2,1.2c0.1,0.4,0.4,0.6,0.7,0.9c0.2,0.2,0.6,0.4,1,0.5c0.4,0.1,0.7,0.1,1.2,0.1
		c0.4,0,0.6,0,1-0.1c0.4-0.1,0.6-0.1,0.9-0.4c0.2-0.1,0.5-0.4,0.6-0.6c0.1-0.2,0.2-0.6,0.2-1s-0.1-0.7-0.2-1
		c-0.2-0.2-0.5-0.4-0.9-0.6c-0.4-0.1-0.7-0.2-1.1-0.4c-0.4-0.1-0.9-0.2-1.2-0.2c-0.5-0.1-0.9-0.2-1.2-0.4c-0.4-0.1-0.7-0.2-1.1-0.5
		c-0.4-0.2-0.6-0.5-0.9-0.9c-0.2-0.4-0.2-0.7-0.2-1.2c0-0.6,0.1-1,0.4-1.5c0.2-0.4,0.5-0.7,0.9-1c0.4-0.2,0.9-0.5,1.2-0.6
		c0.5-0.1,1-0.2,1.5-0.2c0.6,0,1.1,0.1,1.6,0.2c0.5,0.1,0.9,0.4,1.2,0.6c0.4,0.2,0.6,0.6,0.9,1.1c0.2,0.5,0.4,1,0.4,1.6h-1.3
		C452.7,212.2,452.5,211.6,452,211.2z"/>
	<path class="st2" d="M464,209.8v1.2h-6.1v3.4h5.6v1.2h-5.6v3.8h6.1v1.2h-7.6v-10.9L464,209.8L464,209.8z"/>
	<path class="st2" d="M467.2,209.8v9.7h5.7v1.2h-7.2v-10.9H467.2z"/>
	<path class="st2" d="M475.7,209.8v9.7h5.7v1.2h-7.2v-10.9H475.7z"/>
	<path class="st2" d="M490.2,209.8v1.2h-6.1v3.4h5.6v1.2h-5.6v3.8h6.1v1.2h-7.6v-10.9L490.2,209.8L490.2,209.8z"/>
	<path class="st2" d="M497.2,209.8c1.1,0,1.8,0.2,2.4,0.7c0.6,0.5,0.9,1.2,0.9,2.1c0,0.6-0.1,1.2-0.5,1.7c-0.2,0.5-0.7,0.9-1.5,1
		l0,0c0.4,0.1,0.6,0.1,0.7,0.4c0.2,0.1,0.4,0.4,0.5,0.5c0.1,0.2,0.2,0.4,0.2,0.6s0.1,0.5,0.1,0.7c0,0.2,0,0.5,0,0.9
		c0,0.2,0,0.5,0.1,0.9c0,0.2,0.1,0.5,0.1,0.7c0.1,0.2,0.2,0.5,0.4,0.6h-1.6c-0.1-0.1-0.1-0.2-0.2-0.5c0-0.2,0-0.4-0.1-0.6
		c0-0.2,0-0.5,0-0.7c0-0.2,0-0.5-0.1-0.9c0-0.2-0.1-0.5-0.1-0.7c0-0.2-0.1-0.5-0.2-0.6s-0.4-0.4-0.5-0.4c-0.2-0.1-0.5-0.1-0.9-0.1
		h-3.5v4.6h-1.5v-10.9H497.2z M497.6,214.7c0.4,0,0.6-0.1,0.9-0.2c0.2-0.1,0.4-0.4,0.6-0.6c0.1-0.2,0.2-0.6,0.2-1
		c0-0.6-0.1-1-0.5-1.3c-0.2-0.4-0.9-0.5-1.5-0.5h-3.7v3.8h3.1C496.8,214.8,497.2,214.8,497.6,214.7z"/>
</g>
<g id="right-hand">
	<g>
		<g>
			<g>
				<path class="st4" d="M440.1,193.3c0.1,0,44-9.3,48.3-10.1l-10.5-41.4l-12.8,3.2l-13.3,3.3l-13.9,3.4l-7.3,1.8L440.1,193.3z"/>
			</g>
			<g>
				<path class="st5" d="M440.1,193.3c0.1,0,5.4-1.1,7.7-1.6l-10-40l0,0l-7.3,1.8L440.1,193.3z"/>
			</g>
			<g>
				<polygon class="st6" points="455.4,163.7 468.7,160.5 465,145 451.7,148.3 				"/>
			</g>
		</g>
		<g>
			<g>
				<g>
					<path class="st7" d="M449.7,181.8l12-3.1c0.6-0.1,0.9-0.7,0.7-1.2l-1.2-4.8c-0.1-0.6-0.7-0.9-1.2-0.7l-12,3.1
						c-0.6,0.1-0.9,0.7-0.7,1.2l1.2,4.8C448.6,181.7,449,182,449.7,181.8z"/>
				</g>
				<g>
					<path class="st8" d="M461.1,178.3c0.4-0.1,0.6-0.6,0.5-1l-1-3.9c0-0.2-0.2-0.4-0.4-0.5c-0.2-0.1-0.4-0.1-0.6-0.1l-11.2,2.9l0,0
						c-0.4,0.1-0.6,0.6-0.5,1l1,3.9c0.1,0.5,0.6,0.7,1,0.6L461.1,178.3L461.1,178.3z"/>
				</g>
				<g>
					
						<rect x="448" y="176.5" transform="matrix(0.9678 -0.2519 0.2519 0.9678 -29.8785 120.2501)" class="st7" width="13.6" height="0.6"/>
				</g>
			</g>
		</g>
		<g>
			<polygon class="st9" points="484,165.7 438.4,186.1 440.4,194 488.4,183.3 			"/>
		</g>
	</g>
	<g>
		<g>
			<g>
				<path class="st10" d="M429.6,195.1c0.9,0.2,3.7,1.2,6.7,1.8c0.4,0.1,0.6,0.1,1,0.1c0.2,0,0.4,0,0.6,0c1.6,0,9.2,0.1,10.1,0l0,0
					l0,0c0.2,0,0.5,0.1,0.7,0.1c1.2,0.2,2.3,0.5,3.3,0.6c1.2,0.2,2.4,0.2,3.5,0.2c3.5-0.1,11-0.5,17.2-2.4c0,0,33.5-8.7,33.6-9h0.1
					c-1-2.8-2.4-6.8-3.7-10.3h-0.1c-12,3.1-15.2,0-15.4-0.2c-0.5,0-1-0.1-1.6-0.2c-1-0.2-2.6-0.5-4.5-0.6c-1.2,0-2.4,0-3.9,0.2l0,0
					c-3.3,0.5-7.1,1.8-10.6,5v0.1c-0.6,0.1-1.2,0.2-2,0.4c-3.3,0.7-7.6,1.8-10,2.9c0,0-3.3,1.2-2.6,4.2c0,0,0,0.2,0.2,0.6
					c0.1,0.2,0.2,0.5,0.5,0.9l-0.1,0.1c0,0-4.8,0.6-7.7,0.4c-0.1,0-0.2,0-0.4,0c-1.2-0.1-7.7-0.7-9.7,1.8c-0.1,0.1-0.1,0.2-0.2,0.4
					l-0.1-0.4c-1,0-4.3,0-5.5,2c-0.1,0.2-0.2,0.5-0.2,0.7C429.4,194.9,429.5,195,429.6,195.1z"/>
			</g>
			<g>
				<path class="st11" d="M503.2,176.4c-0.5-1.2-0.9-2.4-1.2-3.4c-0.6,0.1-11.4,2.8-14.3,3.3l0,0c0.2,0.2,3.4,3.2,15.4,0.2
					L503.2,176.4z"/>
			</g>
			<g>
				<path class="st12" d="M458.1,190.8l-0.1-0.2c0,0-0.5,0.1-1.3,0.2v0.4C457.2,191.1,457.6,191,458.1,190.8z"/>
			</g>
			<g>
				<path class="st11" d="M435.5,192.1c4.5-1.5,9.3-0.6,11.6-0.1c1.1,0.2,2.3,0.2,3.4,0.1c2.2-0.4,4.8-0.9,6.2-1.1
					c-2.8,0.2-3.9-2-3.9-2c0.1,0.2,0.2,0.5,0.5,0.9l-0.1,0.1c0,0-4.8,0.6-7.7,0.4c-0.1,0-0.2,0-0.4,0
					C443.9,190,437.4,189.4,435.5,192.1z"/>
			</g>
			<g>
				<path class="st11" d="M465.2,181.3l5.9-1.3c1.8-2.8,6.5-4.3,6.7-4.4c-3.3,0.5-7.1,1.8-10.6,5v0.1c-0.6,0.1-1.2,0.2-2,0.4
					L465.2,181.3z"/>
			</g>
			<g>
				<path class="st12" d="M474,179.2c-1.6,0.2-3.2,0.5-4.8,0.9c-1.6,0.4-3.2,0.6-4.8,1c-1.6,0.4-3.2,0.7-4.8,1.2
					c-0.7,0.2-1.6,0.5-2.3,0.7c-0.7,0.2-1.6,0.5-2.3,0.9l0,0c-0.5,0.2-0.9,0.5-1.2,0.7c-0.4,0.2-0.7,0.6-1,1
					c-0.2,0.4-0.5,0.9-0.5,1.3c-0.1,0.5,0,1,0.1,1.3c-0.1-0.5-0.1-0.9,0-1.3c0.1-0.5,0.2-0.9,0.6-1.1c0.2-0.4,0.6-0.6,1-0.9
					s0.7-0.5,1.1-0.6l0,0c1.5-0.6,3.1-1,4.6-1.3c1.6-0.4,3.2-0.9,4.8-1.2l4.8-1.2C470.9,180.2,472.5,179.7,474,179.2z"/>
			</g>
			<g>
				<path class="st11" d="M429.7,194c5.1-1,7.7,3.1,7.7,3.1c0.2,0,0.4,0,0.6,0c1.6,0,9.2,0.1,10.1,0l0,0c-3.7-0.9-12.2-2.4-12.2-2.4
					c-0.6-0.1-0.9-0.6-0.9-0.6v-1.1l0.5-1c-0.1,0.1-0.1,0.2-0.2,0.4l-0.1-0.4C434.1,191.9,430.8,192.1,429.7,194z"/>
			</g>
			<g>
				<g>
					<path class="st13" d="M457.6,186.2c0.1,0.7,0.2,1.7,0.4,2.3c0.1,0.4-0.1,0.7-0.5,1c-0.5,0.2-1.3,0.5-2.6,0.7
						c-0.5,0.1-1.1-0.1-1.5-0.5c-0.4-0.5-0.9-1.5-0.5-2.8c0.1-0.5,0.5-0.9,1-1c0.5-0.1,1.3-0.4,2.7-0.4
						C457.1,185.5,457.6,185.7,457.6,186.2z"/>
				</g>
				<g>
					<path class="st14" d="M433.6,196.2c0,0-1.2-1.3-2.6-1.6c-0.1,0-0.4,0-0.5,0.1c-0.2,0.1-0.5,0.4-0.9,0.4
						C429.6,195.1,432.5,196.5,433.6,196.2z"/>
				</g>
				<g>
					<path class="st13" d="M434.6,194.3L434.6,194.3c0,0.1,0.1,0.2,0.1,0.2c0.1,0.1,0.1,0.1,0.2,0.2c0.1,0.1,0.4,0.1,0.5,0.2
						c0.4,0.1,0.6,0.1,1,0.2c0.4,0,0.6,0.1,0.9,0.1s0.6,0.1,0.9,0.1l1.2,0.2l0.1-0.1c-0.1-0.1-0.2-0.4-0.4-0.5
						c-1.1-1.2-3.2-1.3-4-1.3c-0.2,0-0.2,0-0.2,0S434.9,193.9,434.6,194.3z"/>
				</g>
			</g>
			<g>
				<path class="st12" d="M453.9,190.4c0.2,0.2,0.6,0.4,1,0.5c0.4,0.1,0.7,0.2,1.1,0.2c0.7,0.1,1.5,0,2.1-0.1l0,0
					c0.9,0,1.7-0.1,2.7-0.2c0.9-0.1,1.7-0.1,2.6-0.2c0.9-0.1,1.7-0.2,2.6-0.2c0.9-0.1,1.7-0.2,2.6-0.4l0,0c1,0,1.8-0.1,2.7-0.4
					c0.9-0.1,1.8-0.4,2.7-0.7c0.9-0.2,1.7-0.6,2.6-1.1l0.6-0.4l0.6-0.4c0.4-0.2,0.7-0.5,1.1-0.7c-0.9,0.4-1.6,0.7-2.4,1.1
					c-0.2,0.1-0.4,0.1-0.6,0.2c-0.2,0.1-0.4,0.1-0.6,0.2c-0.4,0.1-0.9,0.2-1.3,0.4c-0.9,0.2-1.7,0.4-2.6,0.5
					c-0.9,0.1-1.7,0.2-2.6,0.2l0,0l0,0c-0.9,0.1-1.7,0.2-2.6,0.4c-0.9,0.1-1.7,0.2-2.6,0.4s-1.7,0.2-2.6,0.4
					c-0.9,0.1-1.7,0.2-2.6,0.4l0,0l0,0c-0.6,0.1-1.3,0.4-2,0.4C455.3,190.7,454.5,190.6,453.9,190.4z"/>
			</g>
			<g>
				<path class="st12" d="M434.6,194.1L434.6,194.1c0,0.1,0,0.1,0,0.1s0,0,0,0.1c0,0.1,0.1,0.1,0.1,0.2c0.1,0.1,0.1,0.1,0.2,0.2
					c0.1,0.1,0.4,0.1,0.5,0.2c0.4,0.1,0.6,0.1,1,0.2c0.4,0,0.6,0.1,0.9,0.1s0.6,0.1,0.9,0.1l1.2,0.2l2.3,0.5
					c1.2,0.2,2.3,0.5,3.5,0.6c1.2,0.2,2.3,0.4,3.5,0.6c-1.1-0.4-2.3-0.6-3.4-0.9c-1.2-0.2-2.3-0.6-3.5-0.9l-2.6-0.6l-0.9-0.2
					c-0.2-0.1-0.6-0.1-0.9-0.1c-0.4,0-0.6-0.1-0.9-0.1s-0.6-0.1-0.9-0.1c-0.1,0-0.2-0.1-0.4-0.1h-0.1l0,0c0-0.1,0-0.2,0-0.4
					c0-0.6,0.2-1.3,0.7-1.8c0.2-0.2,0.6-0.5,1-0.7c0.4-0.2,0.7-0.4,1.2-0.5c0.9-0.2,1.7-0.4,2.6-0.5c0.9-0.1,1.7-0.1,2.7-0.1
					c-0.9-0.1-1.7-0.1-2.7-0.1c-0.9,0-1.8,0.1-2.7,0.4s-1.7,0.6-2.4,1.2c-0.4,0.4-0.6,0.7-0.7,1.2
					C434.6,193.2,434.6,193.7,434.6,194.1z M435.2,194.3v-0.1C435.2,194.1,435.2,194.1,435.2,194.3
					C435.2,194.1,435.2,194.3,435.2,194.3L435.2,194.3z"/>
			</g>
		</g>
		<g>
			<g>
				<path class="st15" d="M500.7,169.8c0,0,0.5,1.2,1.2,3.2c0.4,1,0.7,2.2,1.2,3.4c0.4,1.2,0.9,2.4,1.3,3.7c0.9,2.3,1.7,4.8,2.3,6.6
					c0.7,2.1,1.2,3.5,1.3,3.5c0,0,2-0.5,4.3-1.2l-0.1-0.2c-0.1-0.5-1.5-4.3-2.9-8.4c-1.8-5.4-3.9-11.4-4.2-12
					C502.8,169.1,500.9,169.8,500.7,169.8z"/>
			</g>
			<g>
				<path class="st1" d="M509.4,180.3c1.5,4.2,2.8,8.1,2.9,8.4l0.1,0.2c3.8-1.1,8.6-2.4,8.6-2.3c0,0-1.3-4-2.8-8.6
					c-2-5.9-4.3-12.7-4.2-12.7c0,0-4.9,1.6-8.7,2.9C505.4,169,507.6,175,509.4,180.3z"/>
			</g>
			<g>
				<path class="st16" d="M504.5,180.1c0.9,2.3,1.7,4.8,2.3,6.6c0.7,2.1,1.2,3.5,1.3,3.5c0,0,2-0.5,4.3-1.2c3.8-1.1,8.6-2.4,8.6-2.3
					c0,0-1.3-4-2.8-8.6c-0.1,0.1-3.2,2-8.7,2.2C507.9,180.3,506.2,180.3,504.5,180.1z"/>
			</g>
		</g>
	</g>
</g>
<g id="buter">
	<path class="st2" d="M93.8,209.4c0.2,0,0.5,0,0.7,0c0.2,0,0.5,0,0.9,0c0.2,0,0.5,0.1,0.7,0.1c0.2,0,0.4,0.1,0.6,0.2
		c0.4,0.2,0.6,0.5,0.9,0.9c0.2,0.4,0.4,0.9,0.4,1.3c0,0.6-0.1,1.1-0.4,1.5c-0.2,0.4-0.7,0.7-1.2,1l0,0c0.7,0.1,1.2,0.5,1.6,1
		c0.4,0.5,0.5,1.1,0.5,1.7c0,0.4-0.1,0.7-0.2,1.2c-0.1,0.4-0.4,0.7-0.6,1s-0.6,0.5-1.1,0.7c-0.4,0.1-0.9,0.2-1.5,0.2h-5.3v-10.9
		L93.8,209.4L93.8,209.4z M94.2,214.2c0.9,0,1.5-0.1,1.8-0.5c0.4-0.2,0.5-0.7,0.5-1.3c0-0.4-0.1-0.7-0.2-1s-0.2-0.4-0.5-0.5
		c-0.2-0.1-0.5-0.2-0.7-0.2c-0.2,0-0.6,0-0.9,0h-2.8v3.4h2.8V214.2z M94.9,219.2c0.6,0,1.1-0.1,1.5-0.5c0.4-0.4,0.5-0.9,0.5-1.5
		c0-0.4-0.1-0.6-0.2-0.9c-0.1-0.2-0.4-0.4-0.5-0.6c-0.2-0.1-0.5-0.2-0.7-0.2c-0.2,0-0.6-0.1-0.9-0.1h-3.2v3.8L94.9,219.2L94.9,219.2
		z"/>
	<path class="st2" d="M107.9,219.6c-0.7,0.7-1.8,1.1-3.2,1.1c-1.5,0-2.4-0.4-3.3-1c-0.7-0.6-1.2-1.7-1.2-3.2v-7h1.5v7
		c0,1,0.2,1.7,0.7,2.2c0.5,0.5,1.2,0.7,2.2,0.7c1,0,1.6-0.2,2.1-0.7c0.5-0.5,0.7-1.2,0.7-2.2v-7h1.5v7
		C109.1,217.8,108.7,218.8,107.9,219.6z"/>
	<path class="st2" d="M115.8,220.4h-1.5v-4.5l-4.3-6.5h1.7l3.3,5.3l3.2-5.3h1.7l-4.2,6.5V220.4z"/>
	<path class="st2" d="M128.7,209.4v1.2h-6.1v3.4h5.6v1.2h-5.6v3.8h6.1v1.2h-7.6v-10.9L128.7,209.4L128.7,209.4z"/>
	<path class="st2" d="M135.7,209.4c1.1,0,1.8,0.2,2.4,0.7c0.6,0.5,0.9,1.2,0.9,2.1c0,0.6-0.1,1.2-0.5,1.7c-0.2,0.5-0.7,0.9-1.5,1
		l0,0c0.4,0.1,0.6,0.1,0.7,0.4c0.2,0.1,0.4,0.4,0.5,0.5c0.1,0.2,0.2,0.4,0.2,0.6s0.1,0.5,0.1,0.7s0,0.5,0,0.9c0,0.2,0,0.5,0.1,0.9
		c0,0.2,0.1,0.5,0.1,0.7c0.1,0.2,0.2,0.5,0.4,0.6h-1.5c-0.1-0.1-0.1-0.2-0.2-0.5c0-0.2,0-0.4-0.1-0.6c0-0.2,0-0.5,0-0.7
		c0-0.2,0-0.5-0.1-0.9c0-0.2-0.1-0.5-0.1-0.7c-0.1-0.2-0.1-0.5-0.2-0.6c-0.1-0.1-0.4-0.4-0.5-0.4c-0.2-0.1-0.5-0.1-0.9-0.1H132v4.6
		h-1.5v-10.9H135.7z M136,214.4c0.4,0,0.6-0.1,0.9-0.2c0.2-0.1,0.4-0.4,0.6-0.6c0.1-0.2,0.2-0.6,0.2-1c0-0.6-0.1-1-0.5-1.3
		c-0.2-0.4-0.9-0.5-1.5-0.5H132v3.8h3.1C135.3,214.4,135.7,214.4,136,214.4z"/>
</g>
<g id="left-hand">
	<g>
		<circle class="st17" cx="118.8" cy="151.9" r="9.8"/>
	</g>
	<g>
		<circle class="st18" cx="118.8" cy="151.9" r="6.8"/>
	</g>
	<g>
		<circle class="st19" cx="133.3" cy="180.7" r="9.8"/>
	</g>
	<g>
		<g>
			<circle class="st19" cx="110.8" cy="159.8" r="9.8"/>
		</g>
		<g>
			<path class="st3" d="M110.8,169.9c-5.6,0-10.1-4.5-10.1-10.1c0-5.6,4.5-10.1,10.1-10.1c5.6,0,10.1,4.5,10.1,10.1
				C120.9,165.4,116.4,169.9,110.8,169.9z M110.8,150.5c-5.1,0-9.4,4.2-9.4,9.4c0,5.1,4.2,9.4,9.4,9.4s9.4-4.2,9.4-9.4
				C120.2,154.7,116,150.5,110.8,150.5z"/>
		</g>
	</g>
	<g>
		<g>
			<path class="st20" d="M143.4,150.3c-1.2-0.2-2.3-0.4-3.5-0.4c-7.5,0-14.1,5.1-15.8,12.6c-2,8.7,3.5,17.4,12.2,19.2
				c1.2,0.2,2.3,0.4,3.5,0.4c7.5,0,14.1-5.1,15.8-12.6C157.7,160.8,152.2,152.2,143.4,150.3z"/>
		</g>
		<g>
			<path class="st3" d="M140,182.8c-1.2,0-2.4-0.1-3.7-0.4c-4.4-1-8.1-3.5-10.5-7.3s-3.2-8.2-2.2-12.6c0.9-3.8,2.9-7.1,5.9-9.4
				s6.6-3.7,10.4-3.7c1.2,0,2.4,0.1,3.7,0.4c9,2,14.7,10.9,12.7,19.9c-0.9,3.8-2.9,7.1-5.9,9.4C147.4,181.4,143.8,182.8,140,182.8z
				 M140,150.5c-3.5,0-7,1.2-9.7,3.4c-2.8,2.2-4.8,5.4-5.5,8.8c-0.9,4-0.1,8.2,2.1,11.7c2.2,3.5,5.7,5.9,9.8,6.8
				c1.1,0.2,2.2,0.4,3.4,0.4c3.5,0,7-1.2,9.7-3.4c2.8-2.2,4.8-5.4,5.5-8.8c1.8-8.4-3.4-16.7-11.9-18.6l0,0
				C142.2,150.6,141.1,150.5,140,150.5z"/>
		</g>
	</g>
	<g>
		<g>
			<g>
				<path class="st21" d="M138.9,170.4l0.1,0.2l9.2-2.9l-5.1-15.2l-0.4,0.6L138.9,170.4z"/>
			</g>
		</g>
		<g>
			<g>
				<path class="st22" d="M139,170.7l4-18.1l-11,11.6L139,170.7z"/>
			</g>
		</g>
		<g>
			<g>
				<path class="st23" d="M137.2,178.5v0.4l10.6-9.5l-9.2,2.9l-0.1,0.1L137.2,178.5z"/>
			</g>
		</g>
		<g>
			<g>
				<path class="st22" d="M131.7,165.7l5.5,13.2l1.5-6.6L131.7,165.7z"/>
			</g>
		</g>
		<g>
			<g>
				<path class="st24" d="M140.8,162.2l-1.8,8.4l9.2-2.9L140.8,162.2z"/>
			</g>
		</g>
		<g>
			<g>
				<path class="st25" d="M140.8,162.2l-8.9,1.8l7,6.6L140.8,162.2z"/>
			</g>
		</g>
	</g>
	<g>
		<g>
			<circle class="st26" cx="117.5" cy="171.7" r="18.8"/>
		</g>
		<g>
			<path class="st3" d="M117.5,191.2c-10.8,0-19.6-8.8-19.6-19.6c0-10.8,8.8-19.6,19.6-19.6s19.6,8.8,19.6,19.6
				C137.2,182.4,128.4,191.2,117.5,191.2z M117.5,153.7c-9.9,0-18,8.1-18,18c0,9.9,8.1,18,18,18s18-8.1,18-18
				C135.5,161.8,127.5,153.7,117.5,153.7z"/>
		</g>
	</g>
	<g>
		<g>
			<path class="st3" d="M110.5,171.7l-2.9,2.9l-2.9-2.9l2.9-2.9L110.5,171.7z M117.5,164.7l4.9,4.9l2.9-2.9l-4.9-4.9l-2.9-2.9
				l-2.9,2.9l-4.9,4.9l2.9,2.9L117.5,164.7z M127.4,168.7l-2.9,2.9l2.9,2.9l2.9-2.9L127.4,168.7z M117.5,178.6l-4.9-4.9l-2.9,2.9
				l4.9,4.9l2.9,2.9l2.9-2.9l4.9-4.9l-2.9-2.9L117.5,178.6z M117.5,174.6l2.9-2.9l-2.9-2.9l-2.9,2.9L117.5,174.6z"/>
		</g>
	</g>
	<g>
		<g>
			<g>
				<g>
					<path class="st10" d="M148.2,194.8c-0.9,0.2-3.7,1.2-6.7,1.8c-0.4,0.1-0.6,0.1-1,0.1c-0.2,0-0.4,0-0.6,0c-1.6,0-9.2,0.1-10.1,0
						l0,0l0,0c-0.2,0-0.5,0.1-0.7,0.1c-1.2,0.2-2.3,0.5-3.3,0.6c-1.2,0.2-2.4,0.2-3.5,0.2c-3.5-0.1-11-0.5-17.2-2.4
						c0,0-33.5-8.7-33.6-9h-0.1c1-2.8,2.4-6.8,3.7-10.3H75c12,3.1,15.2,0,15.4-0.2c0.5,0,1-0.1,1.6-0.2c1-0.2,2.6-0.5,4.5-0.6
						c1.2,0,2.4,0,3.9,0.2l0,0c3.3,0.5,7.1,1.8,10.6,5v0.1c0.6,0.1,1.2,0.2,2,0.4c3.3,0.7,7.6,1.8,10,2.9c0,0,3.3,1.2,2.6,4.2
						c0,0,0,0.2-0.2,0.6c-0.1,0.2-0.2,0.5-0.5,0.9l0.1,0.1c0,0,4.8,0.6,7.7,0.4c0.1,0,0.2,0,0.4,0c1.2-0.1,7.7-0.7,9.7,1.8
						c0.1,0.1,0.1,0.2,0.2,0.4l0.1-0.4c1,0,4.3,0,5.5,2c0.1,0.2,0.2,0.5,0.2,0.7C148.4,194.6,148.3,194.8,148.2,194.8z"/>
				</g>
				<g>
					<path class="st11" d="M74.6,176.1c0.5-1.2,0.9-2.4,1.2-3.4c0.6,0.1,11.4,2.8,14.3,3.3l0,0c-0.2,0.2-3.4,3.2-15.4,0.2
						L74.6,176.1z"/>
				</g>
				<g>
					<path class="st12" d="M119.7,190.5l0.1-0.2c0,0,0.5,0.1,1.3,0.2v0.4C120.7,190.7,120.2,190.6,119.7,190.5z"/>
				</g>
				<g>
					<path class="st11" d="M142.3,191.7c-4.5-1.5-9.3-0.6-11.6-0.1c-1.1,0.2-2.3,0.2-3.4,0.1c-2.2-0.4-4.8-0.9-6.2-1.1
						c2.8,0.2,3.9-2,3.9-2c-0.1,0.2-0.2,0.5-0.5,0.9l0.1,0.1c0,0,4.8,0.6,7.7,0.4c0.1,0,0.2,0,0.4,0
						C133.9,189.7,140.4,189.1,142.3,191.7z"/>
				</g>
				<g>
					<path class="st11" d="M112.6,181.1l-5.9-1.3c-1.8-2.8-6.5-4.3-6.7-4.4c3.3,0.5,7.1,1.8,10.6,5v0.1c0.6,0.1,1.2,0.2,2,0.4
						L112.6,181.1z"/>
				</g>
				<g>
					<path class="st12" d="M103.8,179c1.6,0.2,3.2,0.5,4.8,0.9c1.6,0.4,3.2,0.6,4.8,1c1.6,0.4,3.2,0.7,4.8,1.2
						c0.7,0.2,1.6,0.5,2.3,0.7c0.7,0.2,1.6,0.5,2.3,0.9l0,0c0.5,0.2,0.9,0.5,1.2,0.7c0.4,0.2,0.7,0.6,1,1c0.2,0.4,0.5,0.9,0.5,1.3
						c0.1,0.5,0,1-0.1,1.3c0.1-0.5,0.1-0.9,0-1.3c-0.1-0.5-0.2-0.9-0.6-1.1c-0.2-0.4-0.6-0.6-1-0.9s-0.7-0.5-1.1-0.6l0,0
						c-1.5-0.6-3.1-1-4.6-1.3s-3.2-0.9-4.8-1.2l-4.8-1.2C106.9,179.8,105.4,179.5,103.8,179z"/>
				</g>
				<g>
					<path class="st11" d="M148.1,193.7c-5.1-1-7.7,3.1-7.7,3.1c-0.2,0-0.4,0-0.6,0c-1.6,0-9.2,0.1-10.1,0l0,0
						c3.7-0.9,12.2-2.4,12.2-2.4c0.6-0.1,0.9-0.6,0.9-0.6v-1.1l-0.5-1c0.1,0.1,0.1,0.2,0.2,0.4l0.1-0.4
						C143.7,191.7,147,191.7,148.1,193.7z"/>
				</g>
				<g>
					<g>
						<path class="st13" d="M120.2,185.8c-0.1,0.7-0.2,1.7-0.4,2.3c-0.1,0.4,0.1,0.7,0.5,1c0.5,0.2,1.3,0.5,2.6,0.7
							c0.5,0.1,1.1-0.1,1.5-0.5c0.4-0.5,0.9-1.5,0.5-2.8c-0.1-0.5-0.5-0.9-1-1c-0.5-0.1-1.3-0.4-2.7-0.4
							C120.7,185.1,120.3,185.5,120.2,185.8z"/>
					</g>
					<g>
						<path class="st14" d="M144.1,196c0,0,1.2-1.3,2.6-1.6c0.1,0,0.4,0,0.5,0.1c0.2,0.1,0.5,0.4,0.9,0.4
							C148.2,194.8,145.4,196.2,144.1,196z"/>
					</g>
					<g>
						<path class="st13" d="M143.2,193.9C143.2,194,143.2,194,143.2,193.9c0,0.1-0.1,0.2-0.1,0.2c-0.1,0.1-0.1,0.1-0.2,0.2
							c-0.1,0.1-0.4,0.1-0.5,0.2c-0.4,0.1-0.6,0.1-1,0.2c-0.4,0-0.6,0.1-0.9,0.1s-0.6,0.1-0.9,0.1l-1.2,0.2l-0.1-0.1
							c0.1-0.1,0.2-0.4,0.4-0.5c1.1-1.2,3.2-1.3,4-1.3c0.2,0,0.2,0,0.2,0S142.9,193.7,143.2,193.9z"/>
					</g>
				</g>
				<g>
					<path class="st12" d="M123.9,190c-0.2,0.2-0.6,0.4-1,0.5c-0.4,0.1-0.7,0.2-1.1,0.2c-0.7,0.1-1.5,0-2.1-0.1l0,0
						c-0.9,0-1.7-0.1-2.7-0.2c-0.9-0.1-1.7-0.1-2.6-0.2c-0.9-0.1-1.7-0.2-2.6-0.2c-0.9-0.1-1.7-0.2-2.6-0.4l0,0
						c-1,0-1.8-0.1-2.7-0.4c-0.9-0.1-1.8-0.4-2.7-0.7c-0.9-0.2-1.7-0.6-2.6-1.1l-0.6-0.4l-0.6-0.4c-0.4-0.2-0.7-0.5-1.1-0.7
						c0.9,0.4,1.6,0.7,2.4,1.1c0.2,0.1,0.4,0.1,0.6,0.2c0.2,0.1,0.4,0.1,0.6,0.2c0.4,0.1,0.9,0.2,1.3,0.4c0.9,0.2,1.7,0.4,2.6,0.5
						c0.9,0.1,1.7,0.2,2.6,0.2l0,0l0,0c0.9,0.1,1.7,0.2,2.6,0.4c0.9,0.1,1.7,0.2,2.6,0.4c0.9,0.1,1.7,0.2,2.6,0.4
						c0.9,0.1,1.7,0.2,2.6,0.4l0,0l0,0c0.6,0.1,1.3,0.4,2,0.4C122.5,190.5,123.2,190.4,123.9,190z"/>
				</g>
				<g>
					<path class="st12" d="M143,192.4c-0.1-0.5-0.4-0.9-0.7-1.2c-0.7-0.7-1.6-1-2.4-1.2c-0.9-0.2-1.8-0.4-2.7-0.4s-1.8,0-2.7,0.1
						c0.9,0,1.7,0,2.7,0.1c0.9,0.1,1.7,0.2,2.6,0.5c0.4,0.1,0.9,0.2,1.2,0.5c0.4,0.2,0.7,0.5,1,0.7c0.5,0.5,0.7,1.1,0.7,1.8
						c0,0.1,0,0.2,0,0.4l0,0c0,0,0,0-0.1,0s-0.2,0.1-0.4,0.1c-0.2,0.1-0.5,0.1-0.9,0.1c-0.2,0-0.6,0.1-0.9,0.1s-0.6,0.1-0.9,0.1
						l-0.9,0.2l-2.6,0.6c-1.2,0.2-2.3,0.5-3.5,0.9c-1.1,0.2-2.3,0.6-3.4,0.9c1.2-0.1,2.3-0.4,3.5-0.6s2.3-0.4,3.5-0.6l2.3-0.5
						l1.2-0.2c0.2,0,0.6-0.1,0.9-0.1s0.6-0.1,0.9-0.1s0.6-0.1,1-0.2c0.1,0,0.4-0.1,0.5-0.2c0.1,0,0.1-0.1,0.2-0.2
						c0,0,0.1-0.1,0.1-0.2c0,0,0,0,0-0.1c0,0,0,0,0-0.1c0,0,0,0,0-0.1C143.2,193.3,143.2,192.9,143,192.4z M142.6,193.9L142.6,193.9
						L142.6,193.9L142.6,193.9L142.6,193.9z"/>
				</g>
			</g>
			<g>
				<g>
					<path class="st27" d="M77.1,169.5c0,0-0.5,1.2-1.2,3.2c-0.4,1-0.7,2.2-1.2,3.4c-0.4,1.2-0.9,2.4-1.3,3.7
						c-0.9,2.3-1.7,4.8-2.3,6.6c-0.7,2.1-1.2,3.5-1.3,3.5c0,0-2-0.5-4.3-1.2l0.1-0.2c0.1-0.5,1.5-4.3,2.9-8.4
						c1.8-5.4,3.9-11.4,4.2-12C75,168.8,76.9,169.5,77.1,169.5z"/>
				</g>
				<g>
					<path class="st0" d="M68.4,180c-1.5,4.2-2.8,8.1-2.9,8.4l-0.1,0.2c-3.8-1.1-8.6-2.4-8.6-2.3c0,0,1.3-4,2.8-8.6
						c2-5.9,4.3-12.7,4.2-12.7c0,0,4.9,1.6,8.7,2.9C72.4,168.6,70.3,174.6,68.4,180z"/>
				</g>
				<g>
					<path class="st16" d="M73.3,179.7c-0.9,2.3-1.7,4.8-2.3,6.6c-0.7,2.1-1.2,3.5-1.3,3.5c0,0-2-0.5-4.3-1.2
						c-3.8-1.1-8.6-2.4-8.6-2.3c0,0,1.3-4,2.8-8.6c0.1,0.1,3.2,2,8.7,2.2C69.8,180.1,71.6,180,73.3,179.7z"/>
				</g>
			</g>
		</g>
	</g>
</g>
<g id="step-3">
	<g>
		<path class="st0" d="M38.6,116.4H22.1c-2.3,0-4.2-1.8-4.2-4.2V95.8c0-2.3,1.8-4.2,4.2-4.2h16.5c2.3,0,4.2,1.8,4.2,4.2v16.5
			C42.7,114.6,40.9,116.4,38.6,116.4z"/>
	</g>
	<g>
		<path class="st3" d="M29.9,111.9v-10.6h-3.8v-1.5c0.5,0,1,0,1.5-0.1c0.5-0.1,0.9-0.2,1.3-0.5c0.4-0.2,0.7-0.5,1-0.9
			c0.2-0.4,0.5-0.9,0.5-1.3h1.3v14.8h-1.8V111.9z"/>
	</g>
	<g>
		<path class="st2" d="M57.1,99.1c0.2,0,0.5,0,0.7,0c0.2,0,0.5,0,0.9,0c0.2,0,0.5,0.1,0.7,0.1c0.2,0,0.4,0.1,0.6,0.2
			c0.4,0.2,0.6,0.5,0.9,0.9c0.2,0.4,0.4,0.9,0.4,1.3c0,0.6-0.1,1.1-0.4,1.5s-0.7,0.7-1.2,1l0,0c0.7,0.1,1.2,0.5,1.6,1
			c0.4,0.5,0.5,1.1,0.5,1.7c0,0.4-0.1,0.7-0.2,1.2c-0.1,0.4-0.4,0.7-0.6,1s-0.6,0.5-1.1,0.7c-0.4,0.1-0.9,0.2-1.5,0.2h-5.3V99.1
			L57.1,99.1L57.1,99.1z M57.5,103.8c0.9,0,1.5-0.1,1.8-0.5c0.4-0.2,0.5-0.7,0.5-1.3c0-0.4-0.1-0.7-0.2-1c-0.1-0.2-0.2-0.4-0.5-0.5
			c-0.2-0.1-0.5-0.2-0.7-0.2c-0.2,0-0.6,0-0.9,0h-2.9v3.4h2.9V103.8z M58.2,108.8c0.6,0,1.1-0.1,1.5-0.5c0.4-0.4,0.5-0.9,0.5-1.5
			c0-0.4-0.1-0.6-0.2-0.9c-0.1-0.2-0.4-0.4-0.5-0.6c-0.2-0.1-0.5-0.2-0.7-0.2c-0.2,0-0.6-0.1-0.9-0.1h-3.3v3.8L58.2,108.8
			L58.2,108.8z"/>
		<path class="st2" d="M68.7,110.1v-1.2l0,0c-0.2,0.5-0.6,0.9-1.1,1.1c-0.5,0.2-1,0.4-1.5,0.4s-1-0.1-1.3-0.2
			c-0.4-0.1-0.6-0.4-0.9-0.6c-0.2-0.2-0.4-0.6-0.5-0.9c-0.1-0.4-0.1-0.7-0.1-1.2v-5.3h1.3v5.4c0,0.5,0.1,0.9,0.4,1.2
			c0.2,0.2,0.7,0.5,1.2,0.5c0.4,0,0.7-0.1,1-0.2c0.2-0.1,0.5-0.2,0.7-0.5c0.2-0.2,0.4-0.5,0.5-0.7c0.1-0.2,0.1-0.6,0.1-1v-4.5H70
			v7.9h-1.2V110.1z"/>
		<path class="st2" d="M75,111c-0.1,0.4-0.2,0.7-0.5,1c-0.1,0.2-0.4,0.5-0.5,0.6s-0.4,0.2-0.6,0.4c-0.2,0.1-0.5,0.1-0.7,0.1
			c-0.1,0-0.2,0-0.5,0c-0.1,0-0.2,0-0.5-0.1v-1.2c0.1,0,0.2,0.1,0.4,0.1c0.1,0,0.2,0,0.4,0c0.2,0,0.5-0.1,0.6-0.2
			c0.1-0.1,0.4-0.4,0.4-0.5l0.5-1.3l-3.2-7.8h1.5l2.3,6.5l0,0l2.2-6.5H78L75,111z"/>
		<path class="st2" d="M85.1,109.6c-0.6,0.5-1.3,0.7-2.2,0.7c-0.6,0-1.2-0.1-1.6-0.2c-0.5-0.2-0.9-0.5-1.2-0.9
			c-0.4-0.4-0.6-0.9-0.7-1.3c-0.1-0.5-0.2-1.1-0.2-1.7s0.1-1.1,0.2-1.7c0.1-0.5,0.5-1,0.7-1.3c0.4-0.4,0.7-0.6,1.2-0.9
			c0.5-0.2,1-0.4,1.5-0.4c0.7,0,1.3,0.1,1.7,0.5c0.5,0.2,0.9,0.6,1.1,1.1c0.2,0.5,0.5,1,0.6,1.5s0.1,1,0.1,1.5h-5.9
			c0,0.4,0,0.7,0.1,1c0.1,0.4,0.2,0.6,0.5,0.9c0.2,0.2,0.5,0.5,0.7,0.6c0.4,0.1,0.7,0.2,1.1,0.2c0.6,0,1-0.1,1.3-0.4
			c0.4-0.2,0.6-0.6,0.7-1.2h1.3C86.1,108.4,85.7,109.1,85.1,109.6z M84.8,104.4c-0.1-0.2-0.2-0.5-0.5-0.7c-0.2-0.2-0.5-0.4-0.7-0.5
			c-0.2-0.1-0.6-0.1-0.9-0.1c-0.4,0-0.6,0-0.9,0.1c-0.2,0.1-0.5,0.2-0.7,0.5c-0.2,0.2-0.4,0.5-0.5,0.7c-0.1,0.2-0.1,0.6-0.2,0.9h4.5
			C85,105.1,84.9,104.7,84.8,104.4z"/>
		<path class="st2" d="M88.9,102.1v1.7l0,0c0.4-0.6,0.7-1.1,1.2-1.5c0.5-0.4,1.1-0.5,1.7-0.5v1.3c-0.5,0-1,0.1-1.3,0.2
			c-0.4,0.1-0.6,0.4-0.9,0.6c-0.2,0.2-0.4,0.6-0.5,1c-0.1,0.4-0.1,0.9-0.1,1.3v3.5h-1.3V102h1.2V102.1z"/>
		<path class="st2" d="M98.4,102.1v1.1l0,0c0.2-0.5,0.6-0.7,1-1c0.5-0.2,1-0.2,1.5-0.2c0.6,0,1.1,0.1,1.6,0.4
			c0.5,0.2,0.9,0.5,1.1,0.9c0.2,0.4,0.5,0.9,0.7,1.3c0.1,0.5,0.2,1,0.2,1.6s-0.1,1.1-0.2,1.6c-0.1,0.5-0.4,1-0.7,1.3
			c-0.2,0.4-0.7,0.6-1.1,0.9c-0.5,0.2-1,0.4-1.6,0.4c-0.2,0-0.4,0-0.6,0c-0.2,0-0.5-0.1-0.7-0.2c-0.2-0.1-0.5-0.2-0.6-0.4
			c-0.2-0.1-0.4-0.4-0.5-0.6l0,0v4h-1.3v-10.9h1.3V102.1z M103.1,104.9c-0.1-0.4-0.2-0.6-0.5-1c-0.2-0.2-0.5-0.5-0.7-0.6
			c-0.4-0.1-0.7-0.2-1.1-0.2c-0.5,0-0.9,0.1-1.1,0.2c-0.4,0.1-0.6,0.4-0.7,0.7c-0.2,0.2-0.4,0.6-0.4,1c-0.1,0.4-0.1,0.7-0.1,1.1
			c0,0.4,0,0.7,0.1,1.1c0.1,0.4,0.2,0.7,0.5,1c0.2,0.2,0.5,0.5,0.7,0.6c0.4,0.1,0.7,0.2,1.1,0.2c0.5,0,0.9-0.1,1.1-0.2
			c0.2-0.1,0.5-0.4,0.7-0.7c0.2-0.2,0.4-0.6,0.4-1c0.1-0.4,0.1-0.7,0.1-1.1S103.2,105.3,103.1,104.9z"/>
		<path class="st2" d="M113.1,109.9c-0.2,0.1-0.5,0.2-1,0.2c-0.4,0-0.6-0.1-0.9-0.2c-0.2-0.2-0.2-0.5-0.2-1c-0.4,0.5-0.7,0.7-1.2,1
			c-0.5,0.2-1,0.2-1.6,0.2c-0.4,0-0.7,0-1-0.1c-0.2-0.1-0.6-0.2-0.9-0.4c-0.2-0.1-0.4-0.4-0.6-0.7c-0.1-0.2-0.2-0.6-0.2-1
			c0-0.5,0.1-0.9,0.2-1.1s0.4-0.5,0.6-0.7c0.2-0.1,0.5-0.4,0.9-0.4c0.4-0.1,0.6-0.1,1-0.2c0.4-0.1,0.7-0.1,1-0.1
			c0.4,0,0.6-0.1,0.9-0.1c0.2-0.1,0.5-0.1,0.6-0.2c0.1-0.1,0.2-0.4,0.2-0.6c0-0.2,0-0.5-0.1-0.7c-0.1-0.1-0.2-0.4-0.4-0.4
			c-0.1-0.1-0.4-0.1-0.6-0.2c-0.2,0-0.4,0-0.6,0c-0.6,0-1,0.1-1.3,0.4c-0.4,0.2-0.6,0.6-0.6,1.2H106c0-0.5,0.1-0.9,0.4-1.2
			c0.2-0.4,0.4-0.6,0.7-0.9c0.4-0.2,0.6-0.4,1.1-0.5c0.4-0.1,0.9-0.1,1.2-0.1s0.7,0,1.1,0.1c0.4,0,0.6,0.1,1,0.4
			c0.2,0.1,0.5,0.4,0.7,0.6c0.1,0.2,0.2,0.6,0.2,1.1v4c0,0.2,0,0.5,0,0.6c0,0.1,0.1,0.2,0.4,0.2c0.1,0,0.2,0,0.4-0.1v1H113.1z
			 M111,105.9c-0.1,0.1-0.4,0.2-0.6,0.2c-0.2,0-0.5,0.1-0.9,0.1c-0.2,0-0.6,0.1-0.9,0.1c-0.2,0-0.6,0.1-0.9,0.2
			c-0.2,0.1-0.4,0.2-0.6,0.5c-0.1,0.2-0.2,0.5-0.2,0.7c0,0.2,0,0.4,0.1,0.5c0.1,0.1,0.2,0.2,0.4,0.4c0.1,0.1,0.2,0.1,0.5,0.2
			c0.2,0,0.4,0.1,0.6,0.1c0.4,0,0.9,0,1.1-0.1c0.2-0.1,0.6-0.2,0.7-0.5c0.2-0.1,0.4-0.4,0.5-0.6c0.1-0.2,0.1-0.4,0.1-0.6L111,105.9
			L111,105.9z"/>
		<path class="st2" d="M117.4,111c-0.1,0.4-0.2,0.7-0.5,1c-0.1,0.2-0.4,0.5-0.5,0.6c-0.1,0.1-0.4,0.2-0.6,0.4
			c-0.2,0.1-0.5,0.1-0.7,0.1c-0.1,0-0.2,0-0.5,0c-0.1,0-0.2,0-0.5-0.1v-1.2c0.1,0,0.2,0.1,0.4,0.1c0.1,0,0.2,0,0.4,0
			c0.2,0,0.5-0.1,0.6-0.2c0.1-0.1,0.4-0.4,0.4-0.5l0.5-1.3l-3.2-7.8h1.5l2.3,6.5l0,0l2.2-6.5h1.3L117.4,111z"/>
		<path class="st2" d="M123,108.2c0.1,0.2,0.2,0.4,0.5,0.5c0.2,0.1,0.4,0.2,0.7,0.2c0.2,0,0.5,0.1,0.7,0.1c0.2,0,0.4,0,0.6,0
			c0.2,0,0.5-0.1,0.6-0.1c0.2-0.1,0.4-0.2,0.5-0.4c0.1-0.1,0.2-0.4,0.2-0.6c0-0.4-0.1-0.6-0.4-0.7c-0.2-0.1-0.6-0.4-1-0.4
			c-0.4-0.1-0.9-0.2-1.2-0.2c-0.5-0.1-0.9-0.2-1.2-0.4c-0.4-0.1-0.7-0.4-1-0.6c-0.2-0.2-0.4-0.7-0.4-1.2c0-0.4,0.1-0.7,0.2-1
			s0.4-0.5,0.7-0.7c0.2-0.1,0.6-0.4,1-0.4c0.4-0.1,0.7-0.1,1.1-0.1c0.5,0,0.9,0,1.2,0.1c0.4,0.1,0.7,0.2,1,0.4
			c0.2,0.2,0.5,0.5,0.7,0.7c0.1,0.4,0.2,0.7,0.4,1.2h-1.3c0-0.2-0.1-0.5-0.2-0.6c-0.1-0.1-0.2-0.2-0.5-0.4c-0.1-0.1-0.4-0.1-0.6-0.2
			c-0.2,0-0.4-0.1-0.6-0.1c-0.2,0-0.4,0-0.6,0c-0.2,0-0.4,0.1-0.5,0.1c-0.1,0.1-0.2,0.1-0.4,0.2c-0.1,0.1-0.1,0.2-0.1,0.5
			c0,0.2,0.1,0.4,0.2,0.6c0.1,0.1,0.4,0.2,0.6,0.4c0.2,0.1,0.5,0.1,0.9,0.2c0.4,0.1,0.6,0.1,1,0.2c0.4,0.1,0.6,0.1,1,0.2
			c0.4,0.1,0.6,0.2,0.9,0.4c0.2,0.1,0.5,0.4,0.6,0.6c0.1,0.2,0.2,0.6,0.2,1c0,0.5-0.1,0.9-0.2,1.2c-0.2,0.4-0.5,0.6-0.7,0.7
			c-0.4,0.2-0.7,0.4-1.1,0.4c-0.4,0.1-0.9,0.1-1.2,0.1c-0.5,0-0.9,0-1.2-0.1s-0.7-0.2-1.1-0.5c-0.4-0.2-0.6-0.5-0.7-0.9
			c-0.2-0.4-0.2-0.7-0.4-1.2h1.3C122.8,107.9,122.9,108.1,123,108.2z"/>
		<path class="st2" d="M137.2,102.1v1.1h-1.6v4.9c0,0.1,0,0.2,0,0.4c0,0.1,0.1,0.1,0.1,0.2c0.1,0,0.1,0.1,0.2,0.1c0.1,0,0.2,0,0.5,0
			h0.6v1.1h-1c-0.4,0-0.6,0-0.9-0.1c-0.2,0-0.5-0.1-0.6-0.2c-0.1-0.1-0.2-0.2-0.4-0.5c-0.1-0.2-0.1-0.5-0.1-0.9v-5h-1.3v-1.1h1.3
			v-2.3h1.3v2.3H137.2z"/>
		<path class="st2" d="M138.5,104.4c0.1-0.5,0.4-1,0.7-1.3s0.7-0.6,1.2-0.9c0.5-0.2,1-0.4,1.7-0.4c0.6,0,1.2,0.1,1.7,0.4
			c0.5,0.2,0.9,0.5,1.2,0.9c0.4,0.4,0.6,0.9,0.7,1.3c0.1,0.5,0.2,1.1,0.2,1.6c0,0.6-0.1,1.1-0.2,1.6c-0.1,0.5-0.4,1-0.7,1.3
			c-0.4,0.4-0.7,0.6-1.2,0.9c-0.5,0.2-1,0.4-1.7,0.4c-0.6,0-1.2-0.1-1.7-0.4c-0.5-0.2-0.9-0.5-1.2-0.9c-0.4-0.4-0.6-0.9-0.7-1.3
			c-0.1-0.5-0.2-1.1-0.2-1.6S138.3,104.9,138.5,104.4z M139.7,107.4c0.1,0.4,0.2,0.7,0.5,1c0.2,0.2,0.5,0.5,0.7,0.6
			c0.2,0.1,0.6,0.2,1,0.2c0.4,0,0.6-0.1,1-0.2c0.2-0.1,0.6-0.4,0.7-0.6c0.2-0.2,0.4-0.6,0.5-1c0.1-0.4,0.2-0.9,0.2-1.2
			c0-0.5-0.1-0.9-0.2-1.2c-0.1-0.4-0.2-0.7-0.5-1c-0.2-0.2-0.5-0.5-0.7-0.6c-0.2-0.1-0.6-0.2-1-0.2c-0.4,0-0.6,0.1-1,0.2
			c-0.2,0.1-0.6,0.4-0.7,0.6c-0.2,0.2-0.4,0.6-0.5,1c-0.1,0.4-0.2,0.9-0.2,1.2C139.6,106.5,139.6,107,139.7,107.4z"/>
		<path class="st2" d="M156.6,99.1c1.1,0,2,0.2,2.4,0.9c0.6,0.6,0.9,1.3,0.9,2.3c0,1-0.2,1.8-0.9,2.4c-0.6,0.6-1.3,0.9-2.4,0.9h-3.3
			v4.5h-1.5V99.2h4.8V99.1z M156.1,104.3c0.9,0,1.5-0.1,1.8-0.5c0.4-0.4,0.6-0.9,0.6-1.5s-0.2-1.1-0.6-1.5c-0.4-0.4-1-0.5-1.8-0.5
			h-2.8v4h2.8V104.3z"/>
		<path class="st2" d="M168.6,109.9c-0.2,0.1-0.5,0.2-1,0.2c-0.4,0-0.6-0.1-0.9-0.2c-0.2-0.2-0.2-0.5-0.2-1c-0.4,0.5-0.7,0.7-1.2,1
			c-0.5,0.2-1,0.2-1.6,0.2c-0.4,0-0.7,0-1-0.1c-0.2-0.1-0.6-0.2-0.9-0.4s-0.4-0.4-0.6-0.7c-0.1-0.2-0.2-0.6-0.2-1
			c0-0.5,0.1-0.9,0.2-1.1c0.1-0.2,0.4-0.5,0.6-0.7c0.2-0.1,0.5-0.4,0.9-0.4c0.4,0,0.6-0.1,1-0.2c0.4-0.1,0.7-0.1,1-0.1
			c0.4,0,0.6-0.1,0.9-0.1c0.2-0.1,0.5-0.1,0.6-0.2c0.1-0.1,0.2-0.4,0.2-0.6c0-0.2,0-0.5-0.1-0.7c-0.1-0.1-0.2-0.4-0.4-0.4
			c-0.1-0.1-0.4-0.1-0.6-0.2c-0.2,0-0.4,0-0.6,0c-0.5,0-1,0.1-1.3,0.4c-0.4,0.2-0.6,0.6-0.6,1.2h-1.3c0-0.5,0.1-0.9,0.4-1.2
			s0.4-0.6,0.7-0.9c0.4-0.2,0.6-0.4,1.1-0.5c0.4-0.1,0.9-0.1,1.2-0.1c0.4,0,0.7,0,1.1,0.1c0.4,0,0.6,0.1,1,0.4
			c0.2,0.1,0.5,0.4,0.7,0.6c0.1,0.2,0.2,0.6,0.2,1.1v4c0,0.2,0,0.5,0,0.6c0,0.1,0.1,0.2,0.4,0.2c0.1,0,0.2,0,0.4-0.1L168.6,109.9
			L168.6,109.9z M166.5,105.9c-0.1,0.1-0.4,0.2-0.6,0.2s-0.5,0.1-0.9,0.1c-0.2,0-0.6,0.1-0.9,0.1s-0.6,0.1-0.9,0.2
			c-0.2,0.1-0.4,0.2-0.6,0.5c-0.1,0.2-0.2,0.5-0.2,0.7c0,0.2,0,0.4,0.1,0.5c0.1,0.1,0.2,0.2,0.4,0.4c0.1,0.1,0.2,0.1,0.5,0.2
			c0.2,0,0.4,0.1,0.6,0.1c0.4,0,0.9,0,1.1-0.1c0.2-0.1,0.6-0.2,0.7-0.5c0.2-0.1,0.4-0.4,0.5-0.6c0.1-0.2,0.1-0.4,0.1-0.6
			L166.5,105.9L166.5,105.9z"/>
		<path class="st2" d="M172.9,111c-0.1,0.4-0.2,0.7-0.5,1c-0.1,0.2-0.4,0.5-0.5,0.6c-0.1,0.1-0.4,0.2-0.6,0.4
			c-0.2,0.1-0.5,0.1-0.7,0.1c-0.1,0-0.2,0-0.5,0c-0.1,0-0.2,0-0.5-0.1v-1.2c0.1,0,0.2,0.1,0.4,0.1s0.2,0,0.4,0
			c0.2,0,0.5-0.1,0.6-0.2c0.1-0.1,0.4-0.4,0.4-0.5l0.5-1.3l-3.2-7.8h1.5l2.3,6.5l0,0l2.2-6.5h1.3L172.9,111z"/>
		<path class="st2" d="M178.7,99.1v4l0,0c0.2-0.5,0.5-0.7,1-1c0.5-0.2,1-0.2,1.5-0.2c0.6,0,1.1,0.1,1.6,0.4c0.5,0.2,0.9,0.5,1.1,0.9
			s0.5,0.9,0.7,1.3c0.1,0.5,0.2,1,0.2,1.6s-0.1,1.1-0.2,1.6c-0.1,0.5-0.4,1-0.7,1.3c-0.2,0.4-0.7,0.6-1.1,0.9
			c-0.5,0.2-1,0.4-1.6,0.4c-0.2,0-0.4,0-0.6,0c-0.2,0-0.5-0.1-0.7-0.2c-0.2-0.1-0.5-0.2-0.6-0.4c-0.2-0.1-0.4-0.4-0.5-0.6l0,0v1.1
			h-1.3V99.2h1.3V99.1z M183.4,104.9c-0.1-0.4-0.2-0.6-0.5-1c-0.2-0.2-0.5-0.5-0.7-0.6c-0.4-0.1-0.7-0.2-1.1-0.2
			c-0.5,0-0.9,0.1-1.1,0.2c-0.4,0.1-0.6,0.4-0.7,0.7c-0.2,0.2-0.4,0.6-0.4,1c-0.1,0.4-0.1,0.7-0.1,1.1c0,0.4,0,0.7,0.1,1.1
			c0.1,0.4,0.2,0.7,0.5,1c0.2,0.2,0.5,0.5,0.7,0.6c0.4,0.1,0.7,0.2,1.1,0.2c0.5,0,0.9-0.1,1.1-0.2c0.2-0.1,0.5-0.4,0.7-0.7
			c0.2-0.2,0.4-0.6,0.4-1c0.1-0.4,0.1-0.7,0.1-1.1C183.6,105.7,183.5,105.3,183.4,104.9z"/>
		<path class="st2" d="M186.3,104.4c0.1-0.5,0.4-1,0.7-1.3c0.4-0.4,0.7-0.6,1.2-0.9c0.5-0.2,1-0.4,1.7-0.4c0.6,0,1.2,0.1,1.7,0.4
			c0.5,0.2,0.9,0.5,1.2,0.9c0.4,0.4,0.6,0.9,0.7,1.3c0.1,0.5,0.2,1.1,0.2,1.6c0,0.6-0.1,1.1-0.2,1.6c-0.1,0.5-0.4,1-0.7,1.3
			c-0.4,0.4-0.7,0.6-1.2,0.9c-0.5,0.2-1,0.4-1.7,0.4c-0.6,0-1.2-0.1-1.7-0.4c-0.5-0.2-0.9-0.5-1.2-0.9c-0.4-0.4-0.6-0.9-0.7-1.3
			c-0.1-0.5-0.2-1.1-0.2-1.6S186.2,104.9,186.3,104.4z M187.6,107.4c0.1,0.4,0.2,0.7,0.5,1c0.2,0.2,0.5,0.5,0.7,0.6s0.6,0.2,1,0.2
			c0.4,0,0.6-0.1,1-0.2c0.2-0.1,0.6-0.4,0.7-0.6c0.2-0.2,0.4-0.6,0.5-1c0.1-0.4,0.2-0.9,0.2-1.2c0-0.5-0.1-0.9-0.2-1.2
			c-0.1-0.4-0.2-0.7-0.5-1c-0.2-0.2-0.5-0.5-0.7-0.6c-0.2-0.1-0.6-0.2-1-0.2c-0.4,0-0.6,0.1-1,0.2c-0.2,0.1-0.6,0.4-0.7,0.6
			c-0.2,0.2-0.4,0.6-0.5,1c-0.1,0.4-0.2,0.9-0.2,1.2S187.5,107,187.6,107.4z"/>
		<path class="st2" d="M194.6,102.1h1.7l2,2.8l2-2.8h1.6l-2.7,3.7l3.1,4.3h-1.7l-2.2-3.3l-2.2,3.3h-1.6l2.9-4.2L194.6,102.1z"/>
	</g>
	<g>
		<polygon class="st0" points="53.5,22.2 19.7,22.2 3,51.3 19.7,80.5 53.5,80.5 70.2,51.3 		"/>
	</g>
	<g>
		<rect x="40.1" y="48.1" class="st0" width="162.9" height="6.5"/>
	</g>
	<g>
		<g>
			<polygon class="st0" points="198.8,38 210.6,51.3 198.8,64.6 190.3,64.6 201.9,51.3 190.3,38 			"/>
		</g>
	</g>
	<g>
		<g>
			<circle class="st28" cx="30.7" cy="38.9" r="7.6"/>
		</g>
		<g>
			<circle class="st29" cx="30.7" cy="38.9" r="5.4"/>
		</g>
		<g>
			<circle class="st3" cx="42" cy="61.4" r="7.6"/>
		</g>
		<g>
			<g>
				<circle class="st30" cx="24.5" cy="45.2" r="7.6"/>
			</g>
			<g>
				<path class="st0" d="M24.5,53.1c-4.4,0-7.9-3.5-7.9-7.9s3.5-7.9,7.9-7.9s7.9,3.5,7.9,7.9S28.9,53.1,24.5,53.1z M24.5,38
					c-4,0-7.2,3.3-7.2,7.2s3.3,7.2,7.2,7.2c4,0,7.2-3.3,7.2-7.2S28.5,38,24.5,38z"/>
			</g>
		</g>
		<g>
			<g>
				<path class="st3" d="M49.9,37.7c-0.9-0.2-1.8-0.2-2.7-0.2c-5.7,0-11,4-12.2,9.9c-1.5,6.7,2.8,13.4,9.5,14.9
					c0.9,0.2,1.8,0.2,2.7,0.2c5.7,0,11-4,12.2-9.9C60.9,45.9,56.6,39.2,49.9,37.7z"/>
			</g>
			<g>
				<path class="st0" d="M47.2,62.9c-1,0-1.8-0.1-2.8-0.4c-3.4-0.7-6.2-2.8-8.2-5.7c-1.8-2.9-2.4-6.4-1.7-9.8
					c0.6-2.9,2.3-5.5,4.6-7.3c2.3-1.8,5.1-2.8,8.1-2.8c1,0,1.8,0.1,2.8,0.4c7,1.6,11.5,8.6,9.9,15.5c-0.6,2.9-2.3,5.5-4.6,7.3
					S50.2,62.9,47.2,62.9z M47.2,37.8c-2.7,0-5.4,1-7.6,2.7c-2.2,1.7-3.7,4.2-4.3,6.8c-0.7,3.2-0.1,6.4,1.6,9.2
					c1.7,2.7,4.4,4.6,7.6,5.3c0.9,0.2,1.7,0.2,2.6,0.2c2.7,0,5.4-1,7.6-2.7c2.2-1.7,3.7-4.2,4.3-6.8c1.5-6.5-2.7-13-9.2-14.4l0,0
					C48.9,38,48.1,37.8,47.2,37.8z"/>
			</g>
		</g>
		<g>
			<g>
				<g>
					<path class="st29" d="M46.4,53.4l0.1,0.1l7.1-2.3l-4-11.9l-0.2,0.5L46.4,53.4z"/>
				</g>
			</g>
			<g>
				<g>
					<path class="st28" d="M46.5,53.6l3.2-14.2l-8.6,9L46.5,53.6z"/>
				</g>
			</g>
			<g>
				<g>
					<path class="st29" d="M45,59.6v0.2l8.2-7.5l-7.1,2.3L46,54.8L45,59.6z"/>
				</g>
			</g>
			<g>
				<g>
					<path class="st28" d="M40.8,49.7L45,60l1.1-5.1L40.8,49.7z"/>
				</g>
			</g>
			<g>
				<g>
					<path class="st0" d="M47.8,47l-1.5,6.6l7.1-2.3L47.8,47z"/>
				</g>
			</g>
			<g>
				<g>
					<path class="st29" d="M47.8,47L41,48.5l5.5,5.1L47.8,47z"/>
				</g>
			</g>
		</g>
		<g>
			<g>
				<circle class="st3" cx="29.8" cy="54.3" r="14.7"/>
			</g>
			<g>
				<path class="st0" d="M29.8,69.6c-8.4,0-15.3-6.8-15.3-15.3s6.8-15.3,15.3-15.3s15.2,6.8,15.2,15.3S38.1,69.6,29.8,69.6z
					 M29.8,40.3c-7.7,0-14.1,6.2-14.1,14.1c0,7.7,6.2,14.1,14.1,14.1S43.7,62,43.7,54.3S37.5,40.3,29.8,40.3z"/>
			</g>
		</g>
		<g>
			<g>
				<path class="st0" d="M24.3,54.3l-2.2,2.2l-2.2-2.2l2.2-2.2L24.3,54.3z M29.8,48.8l3.9,3.9l2.2-2.2L32,46.8l-2.2-2.2l-2.2,2.2
					l-3.8,3.8l2.2,2.2L29.8,48.8z M37.5,52.1l-2.2,2.2l2.2,2.2l2.2-2.2L37.5,52.1z M29.8,59.8l-3.9-3.9l-2.2,2.2l3.9,3.9l2.2,2.2
					L32,62l3.9-3.9l-2.2-2.2L29.8,59.8z M29.8,56.7l2.2-2.2l-2.2-2.2l-2.2,2.2L29.8,56.7z"/>
			</g>
		</g>
	</g>
</g>
<g id="step-1">
	<g>
		<path class="st0" d="M378.7,116.4h-16.5c-2.3,0-4.2-1.8-4.2-4.2V95.8c0-2.3,1.8-4.2,4.2-4.2h16.5c2.3,0,4.2,1.8,4.2,4.2v16.5
			C382.8,114.6,381,116.4,378.7,116.4z"/>
	</g>
	<g>
		<path class="st3" d="M369.1,103.5c0.1,0,0.1,0,0.2,0h0.4c0.4,0,0.7,0,1.1-0.1c0.4-0.1,0.6-0.2,0.9-0.5c0.2-0.2,0.5-0.5,0.6-0.7
			c0.1-0.4,0.2-0.6,0.2-1.1c0-0.9-0.2-1.3-0.7-1.8c-0.5-0.4-1.1-0.6-1.8-0.6c-0.5,0-0.9,0.1-1.2,0.2c-0.4,0.1-0.6,0.4-0.9,0.7
			c-0.2,0.2-0.4,0.6-0.5,1c-0.1,0.4-0.1,0.9-0.1,1.2h-1.8c0-0.7,0.1-1.3,0.4-2c0.2-0.6,0.5-1.1,0.9-1.5c0.4-0.4,0.9-0.7,1.5-1
			c0.6-0.2,1.2-0.4,2-0.4c0.6,0,1.2,0.1,1.8,0.2c0.6,0.1,1,0.4,1.5,0.7c0.4,0.4,0.7,0.7,1,1.2c0.2,0.5,0.4,1.1,0.4,1.8
			c0,0.6-0.2,1.2-0.6,1.8c-0.4,0.5-0.9,0.9-1.5,1.2l0,0c0.9,0.2,1.6,0.6,2.1,1.2c0.5,0.6,0.6,1.5,0.6,2.3c0,0.7-0.1,1.3-0.4,2
			c-0.2,0.6-0.6,1-1.1,1.5c-0.5,0.4-1,0.6-1.6,0.9c-0.6,0.2-1.2,0.2-2,0.2c-0.7,0-1.5-0.1-2.1-0.4c-0.6-0.2-1.1-0.5-1.6-1
			c-0.5-0.4-0.7-0.9-1-1.5c-0.2-0.6-0.4-1.2-0.4-2.1h1.8c0,1,0.4,1.7,0.9,2.3s1.3,0.9,2.3,0.9c0.5,0,0.9-0.1,1.2-0.2
			c0.4-0.1,0.7-0.4,1-0.6c0.2-0.2,0.5-0.5,0.7-0.9c0.1-0.4,0.2-0.7,0.2-1.2s-0.1-0.9-0.2-1.2c-0.1-0.4-0.4-0.6-0.6-0.9
			c-0.2-0.2-0.6-0.4-1-0.5c-0.4-0.1-0.9-0.1-1.2-0.1s-0.7,0-1.1,0.1v-1.5C369,103.5,369,103.5,369.1,103.5z"/>
	</g>
	<g>
		<path class="st2" d="M397.2,90.8c0.2,0,0.5,0,0.7,0c0.2,0,0.5,0,0.9,0c0.2,0,0.5,0.1,0.7,0.1s0.4,0.1,0.6,0.2
			c0.4,0.2,0.6,0.5,0.9,0.9c0.2,0.4,0.4,0.9,0.4,1.3c0,0.6-0.1,1.1-0.4,1.5c-0.2,0.4-0.7,0.7-1.2,1l0,0c0.7,0.1,1.2,0.5,1.6,1
			c0.4,0.5,0.5,1.1,0.5,1.7c0,0.4-0.1,0.7-0.2,1.2c-0.1,0.4-0.4,0.7-0.6,1c-0.2,0.2-0.6,0.5-1.1,0.7c-0.4,0.1-0.9,0.2-1.5,0.2h-5.3
			V90.8L397.2,90.8L397.2,90.8z M397.6,95.5c0.9,0,1.5-0.1,1.8-0.5c0.4-0.2,0.5-0.7,0.5-1.3c0-0.4-0.1-0.7-0.2-1
			c-0.1-0.2-0.2-0.4-0.5-0.5c-0.2-0.1-0.5-0.2-0.7-0.2s-0.6,0-0.9,0h-2.9v3.4h2.9V95.5z M398.3,100.5c0.6,0,1.1-0.1,1.5-0.5
			c0.4-0.4,0.5-0.9,0.5-1.5c0-0.4-0.1-0.6-0.2-0.9c-0.1-0.2-0.4-0.4-0.5-0.6c-0.2-0.1-0.5-0.2-0.7-0.2c-0.2,0-0.6-0.1-0.9-0.1h-3.3
			v3.8L398.3,100.5L398.3,100.5z"/>
		<path class="st2" d="M408.8,101.8v-1.2l0,0c-0.2,0.5-0.6,0.9-1.1,1.1c-0.5,0.2-1,0.4-1.5,0.4c-0.5,0-1-0.1-1.3-0.2
			c-0.4-0.1-0.6-0.4-0.9-0.6s-0.4-0.6-0.5-0.9c-0.1-0.4-0.1-0.7-0.1-1.2v-5.3h1.3v5.4c0,0.5,0.1,0.9,0.4,1.2
			c0.2,0.2,0.7,0.5,1.2,0.5c0.4,0,0.7-0.1,1-0.2c0.2-0.1,0.5-0.2,0.7-0.5c0.2-0.2,0.4-0.5,0.5-0.7c0.1-0.2,0.1-0.6,0.1-1v-4.5h1.3
			v7.9h-1.2V101.8z"/>
		<path class="st2" d="M415.2,102.7c-0.1,0.4-0.2,0.7-0.5,1c-0.1,0.2-0.4,0.5-0.5,0.6s-0.4,0.2-0.6,0.4c-0.2,0.1-0.5,0.1-0.7,0.1
			c-0.1,0-0.2,0-0.5,0c-0.1,0-0.2,0-0.5-0.1v-1.2c0.1,0,0.2,0.1,0.4,0.1c0.1,0,0.2,0,0.4,0c0.2,0,0.5-0.1,0.6-0.2
			c0.1-0.1,0.4-0.4,0.4-0.5l0.5-1.3l-3.2-7.8h1.5l2.3,6.5l0,0l2.2-6.5h1.3L415.2,102.7z"/>
		<path class="st2" d="M425.2,101.3c-0.6,0.5-1.3,0.7-2.2,0.7c-0.6,0-1.2-0.1-1.6-0.2c-0.5-0.2-0.9-0.5-1.2-0.9
			c-0.4-0.4-0.6-0.9-0.7-1.3c-0.1-0.5-0.2-1.1-0.2-1.7s0.1-1.1,0.2-1.7c0.1-0.5,0.5-1,0.7-1.3c0.4-0.4,0.7-0.6,1.2-0.9
			s1-0.4,1.5-0.4c0.7,0,1.3,0.1,1.7,0.5c0.5,0.2,0.9,0.6,1.1,1.1c0.2,0.5,0.5,1,0.6,1.5c0.1,0.5,0.1,1,0.1,1.5h-5.9
			c0,0.4,0,0.7,0.1,1c0.1,0.4,0.2,0.6,0.5,0.9c0.2,0.2,0.5,0.5,0.7,0.6c0.4,0.1,0.7,0.2,1.1,0.2c0.6,0,1-0.1,1.3-0.4
			c0.4-0.2,0.6-0.6,0.7-1.2h1.3C426.2,100,425.8,100.8,425.2,101.3z M425,96.1c-0.1-0.2-0.2-0.5-0.5-0.7c-0.2-0.2-0.5-0.4-0.7-0.5
			c-0.2-0.1-0.6-0.1-0.9-0.1c-0.4,0-0.6,0-0.9,0.1c-0.2,0.1-0.5,0.2-0.7,0.5c-0.2,0.2-0.4,0.5-0.5,0.7c-0.1,0.2-0.1,0.6-0.2,0.9h4.5
			C425.1,96.7,425.1,96.4,425,96.1z"/>
		<path class="st2" d="M429,93.8v1.7l0,0c0.4-0.6,0.7-1.1,1.2-1.5s1.1-0.5,1.7-0.5v1.3c-0.5,0-1,0.1-1.3,0.2
			c-0.4,0.1-0.6,0.4-0.9,0.6c-0.2,0.2-0.4,0.6-0.5,1c-0.1,0.4-0.1,0.9-0.1,1.3v3.5h-1.3v-7.9h1.2V93.8z"/>
		<path class="st2" d="M445.4,95.2c-0.4-0.2-0.7-0.4-1.3-0.4c-0.5,0-0.9,0.1-1.2,0.2c-0.4,0.1-0.6,0.4-0.7,0.7
			c-0.2,0.2-0.4,0.6-0.4,1c-0.1,0.4-0.1,0.7-0.1,1.1c0,0.4,0,0.7,0.1,1.1c0.1,0.4,0.2,0.6,0.4,1c0.1,0.2,0.4,0.5,0.7,0.6
			c0.2,0.1,0.6,0.2,1.1,0.2c0.6,0,1.1-0.1,1.5-0.5c0.4-0.4,0.6-0.9,0.6-1.5h1.3c-0.1,1-0.5,1.7-1.1,2.3c-0.6,0.5-1.3,0.9-2.4,0.9
			c-0.6,0-1.1-0.1-1.6-0.2c-0.5-0.2-0.9-0.5-1.2-0.9c-0.4-0.4-0.5-0.7-0.7-1.2c-0.1-0.5-0.2-1-0.2-1.6c0-0.6,0.1-1.1,0.2-1.7
			c0.1-0.5,0.4-1,0.7-1.3c0.4-0.4,0.7-0.7,1.2-0.9c0.5-0.2,1-0.4,1.6-0.4c0.5,0,0.9,0,1.2,0.1c0.4,0.1,0.7,0.2,1.1,0.5
			c0.2,0.2,0.5,0.5,0.7,0.9c0.2,0.4,0.4,0.7,0.4,1.2h-1.3C445.9,95.9,445.7,95.5,445.4,95.2z"/>
		<path class="st2" d="M448.7,96.1c0.1-0.5,0.4-1,0.7-1.3s0.7-0.6,1.2-0.9c0.5-0.2,1-0.4,1.7-0.4c0.6,0,1.2,0.1,1.7,0.4
			c0.5,0.2,0.9,0.5,1.2,0.9c0.4,0.4,0.6,0.9,0.7,1.3c0.1,0.5,0.2,1.1,0.2,1.6c0,0.6-0.1,1.1-0.2,1.6c-0.1,0.5-0.4,1-0.7,1.3
			c-0.4,0.4-0.7,0.6-1.2,0.9c-0.5,0.2-1,0.4-1.7,0.4c-0.6,0-1.2-0.1-1.7-0.4c-0.5-0.2-0.9-0.5-1.2-0.9c-0.4-0.4-0.6-0.9-0.7-1.3
			c-0.1-0.5-0.2-1.1-0.2-1.6C448.5,97.2,448.5,96.6,448.7,96.1z M450.1,99.1c0.1,0.4,0.2,0.7,0.5,1c0.2,0.2,0.5,0.5,0.7,0.6
			c0.2,0.1,0.6,0.2,1,0.2c0.4,0,0.6-0.1,1-0.2c0.2-0.1,0.6-0.4,0.7-0.6c0.2-0.2,0.4-0.6,0.5-1c0.1-0.4,0.2-0.9,0.2-1.2
			c0-0.5-0.1-0.9-0.2-1.2c-0.1-0.4-0.2-0.7-0.5-1c-0.2-0.2-0.5-0.5-0.7-0.6c-0.2-0.1-0.6-0.2-1-0.2c-0.4,0-0.6,0.1-1,0.2
			c-0.2,0.1-0.6,0.4-0.7,0.6c-0.2,0.2-0.4,0.6-0.5,1s-0.2,0.9-0.2,1.2S450,98.7,450.1,99.1z"/>
		<path class="st2" d="M458.9,93.8V95l0,0c0.5-1,1.3-1.5,2.6-1.5c0.5,0,1,0.1,1.3,0.2c0.4,0.1,0.6,0.4,0.9,0.6
			c0.2,0.2,0.4,0.6,0.5,0.9c0.1,0.4,0.1,0.7,0.1,1.2v5.3h-1.3v-5.4c0-0.5-0.1-0.9-0.4-1.2c-0.2-0.2-0.7-0.5-1.2-0.5
			c-0.4,0-0.7,0.1-1,0.2c-0.2,0.1-0.5,0.2-0.7,0.5c-0.2,0.2-0.4,0.5-0.5,0.7c-0.1,0.2-0.1,0.6-0.1,1v4.5h-1.3v-7.9h1.2V93.8z"/>
		<path class="st2" d="M465.4,94.9v-1.1h1.3v-1.2c0-0.6,0.2-1.1,0.6-1.5c0.4-0.4,0.9-0.5,1.6-0.5c0.1,0,0.2,0,0.4,0
			c0.1,0,0.2,0,0.4,0.1v1.1c-0.1,0-0.2-0.1-0.4-0.1s-0.2,0-0.4,0c-0.4,0-0.6,0.1-0.7,0.2c-0.1,0.1-0.2,0.4-0.2,0.7v1.1h1.6v1.1h-1.6
			v6.7h-1.3v-6.7H465.4z M470.7,90.8h1.3v1.6h-1.3V90.8z M470.7,93.8h1.3v7.9h-1.3V93.8z"/>
		<path class="st2" d="M475.3,93.8v1.7l0,0c0.4-0.6,0.7-1.1,1.2-1.5s1.1-0.5,1.7-0.5v1.3c-0.5,0-1,0.1-1.3,0.2
			c-0.4,0.1-0.6,0.4-0.9,0.6c-0.2,0.2-0.4,0.6-0.5,1c-0.1,0.4-0.1,0.9-0.1,1.3v3.5H474v-7.9h1.2V93.8z"/>
		<path class="st2" d="M480.4,93.8V95l0,0c0.6-0.9,1.5-1.3,2.6-1.3c0.5,0,1,0.1,1.3,0.4s0.7,0.6,0.9,1.1c0.2-0.5,0.6-0.7,1.1-1
			s0.9-0.4,1.5-0.4c0.4,0,0.7,0,1.1,0.1c0.4,0.1,0.6,0.2,0.9,0.4c0.2,0.1,0.4,0.4,0.5,0.7c0.1,0.2,0.2,0.6,0.2,1.1v5.7h-1.3v-5.1
			c0-0.2,0-0.5-0.1-0.7c0-0.2-0.1-0.4-0.2-0.6c-0.1-0.1-0.2-0.2-0.5-0.4c-0.2-0.1-0.5-0.1-0.7-0.1c-0.6,0-1.1,0.2-1.5,0.6
			c-0.4,0.4-0.6,0.9-0.6,1.5v4.9H484v-5.1c0-0.2,0-0.5-0.1-0.7c0-0.2-0.1-0.4-0.2-0.6c-0.1-0.1-0.2-0.2-0.5-0.4
			c-0.2-0.1-0.5-0.1-0.7-0.1c-0.4,0-0.7,0.1-1,0.2c-0.2,0.1-0.5,0.4-0.6,0.6c-0.1,0.2-0.2,0.5-0.4,0.6c-0.1,0.2-0.1,0.4-0.1,0.6v4.9
			H479v-7.9h1.3V93.8z"/>
		<path class="st2" d="M503.5,101.6c-0.2,0.1-0.5,0.2-1,0.2c-0.4,0-0.6-0.1-0.9-0.2c-0.2-0.2-0.2-0.5-0.2-1c-0.4,0.5-0.7,0.7-1.2,1
			c-0.5,0.2-1,0.2-1.6,0.2c-0.4,0-0.7,0-1-0.1c-0.2-0.1-0.6-0.2-0.9-0.4s-0.4-0.4-0.6-0.7c-0.1-0.2-0.2-0.6-0.2-1
			c0-0.5,0.1-0.9,0.2-1.1s0.4-0.5,0.6-0.7c0.2-0.1,0.5-0.4,0.9-0.4c0.4,0,0.6-0.1,1-0.2c0.4-0.1,0.7-0.1,1-0.1
			c0.4,0,0.6-0.1,0.9-0.1c0.2-0.1,0.5-0.1,0.6-0.2c0.1-0.1,0.2-0.4,0.2-0.6c0-0.2,0-0.5-0.1-0.7c-0.1-0.1-0.2-0.4-0.4-0.4
			c-0.1-0.1-0.4-0.1-0.6-0.2c-0.2,0-0.4,0-0.6,0c-0.6,0-1,0.1-1.3,0.4c-0.4,0.2-0.6,0.6-0.6,1.2h-1.3c0-0.5,0.1-0.9,0.4-1.2
			c0.2-0.4,0.5-0.6,0.7-0.9c0.4-0.2,0.6-0.4,1.1-0.5c0.4-0.1,0.9-0.1,1.2-0.1c0.4,0,0.7,0,1.1,0.1c0.4,0,0.6,0.1,1,0.4
			c0.2,0.1,0.5,0.4,0.7,0.6c0.1,0.2,0.2,0.6,0.2,1.1v4c0,0.2,0,0.5,0,0.6c0,0.1,0.1,0.2,0.4,0.2c0.1,0,0.2,0,0.4-0.1L503.5,101.6
			L503.5,101.6z M501.3,97.6c-0.1,0.1-0.4,0.2-0.6,0.2s-0.5,0.1-0.9,0.1c-0.2,0-0.6,0.1-0.9,0.1c-0.2,0-0.6,0.1-0.9,0.2
			c-0.2,0.1-0.4,0.2-0.6,0.5c-0.1,0.2-0.2,0.5-0.2,0.7c0,0.2,0,0.4,0.1,0.5c0.1,0.1,0.2,0.2,0.4,0.4c0.1,0.1,0.2,0.1,0.5,0.2
			c0.2,0,0.4,0.1,0.6,0.1c0.4,0,0.9,0,1.1-0.1c0.2-0.1,0.6-0.2,0.7-0.5c0.2-0.1,0.4-0.4,0.5-0.6c0.1-0.2,0.1-0.4,0.1-0.6L501.3,97.6
			L501.3,97.6z"/>
		<path class="st2" d="M505.8,93.8V95l0,0c0.5-1,1.3-1.5,2.6-1.5c0.5,0,1,0.1,1.3,0.2c0.4,0.1,0.6,0.4,0.9,0.6
			c0.2,0.2,0.4,0.6,0.5,0.9c0.1,0.4,0.1,0.7,0.1,1.2v5.3h-1.3v-5.4c0-0.5-0.1-0.9-0.4-1.2c-0.2-0.2-0.7-0.5-1.2-0.5
			c-0.4,0-0.7,0.1-1,0.2c-0.2,0.1-0.5,0.2-0.7,0.5c-0.2,0.2-0.4,0.5-0.5,0.7c-0.1,0.2-0.1,0.6-0.1,1v4.5h-1.3v-7.9h1.2V93.8z"/>
		<path class="st2" d="M518.9,101.8v-1.1l0,0c-0.2,0.5-0.6,0.7-1,1c-0.4,0.2-1,0.2-1.5,0.2c-0.6,0-1.1-0.1-1.6-0.4
			c-0.5-0.2-0.9-0.5-1.1-0.9c-0.2-0.4-0.5-0.9-0.7-1.3c-0.1-0.5-0.2-1-0.2-1.6s0.1-1.1,0.2-1.6c0.1-0.5,0.4-1,0.7-1.3
			c0.2-0.4,0.7-0.6,1.1-0.9c0.5-0.2,1-0.4,1.6-0.4c0.2,0,0.4,0,0.6,0.1c0.2,0,0.5,0.1,0.7,0.2c0.2,0.1,0.5,0.2,0.6,0.4
			c0.2,0.1,0.4,0.4,0.5,0.6l0,0v-4h1.3v10.9L518.9,101.8L518.9,101.8z M514.2,98.9c0.1,0.4,0.2,0.6,0.5,1c0.2,0.2,0.5,0.5,0.7,0.6
			c0.4,0.1,0.7,0.2,1.1,0.2c0.5,0,0.9-0.1,1.1-0.2c0.4-0.1,0.6-0.4,0.7-0.7c0.2-0.2,0.4-0.6,0.4-1c0.1-0.4,0.1-0.7,0.1-1.1
			c0-0.4,0-0.7-0.1-1.1c-0.1-0.4-0.2-0.7-0.5-1c-0.2-0.2-0.5-0.5-0.7-0.6c-0.4-0.1-0.7-0.2-1.1-0.2c-0.5,0-0.9,0.1-1.1,0.2
			c-0.4,0.1-0.6,0.4-0.7,0.7c-0.1,0.2-0.4,0.6-0.4,1c-0.1,0.4-0.1,0.7-0.1,1.1C514.1,98.2,514.1,98.6,514.2,98.9z"/>
		<path class="st2" d="M398.1,109.1c1.1,0,2,0.2,2.4,0.9c0.6,0.6,0.9,1.3,0.9,2.3c0,1-0.2,1.8-0.9,2.4s-1.3,0.9-2.4,0.9h-3.3v4.5
			h-1.5v-10.9h4.8V109.1z M397.6,114.3c0.9,0,1.5-0.1,1.8-0.5c0.4-0.4,0.6-0.9,0.6-1.5s-0.2-1.1-0.6-1.5c-0.4-0.4-1-0.5-1.8-0.5
			h-2.8v4h2.8V114.3z"/>
		<path class="st2" d="M409.9,120c-0.2,0.1-0.5,0.2-1,0.2c-0.4,0-0.6-0.1-0.9-0.2c-0.2-0.2-0.2-0.5-0.2-1c-0.4,0.4-0.7,0.7-1.2,1
			c-0.5,0.2-1,0.2-1.6,0.2c-0.4,0-0.7,0-1-0.1c-0.4-0.1-0.6-0.2-0.9-0.4c-0.2-0.1-0.4-0.4-0.6-0.7c-0.1-0.2-0.2-0.6-0.2-1
			c0-0.5,0.1-0.9,0.2-1.1c0.1-0.2,0.4-0.5,0.6-0.7c0.2-0.1,0.5-0.4,0.9-0.4c0.4-0.1,0.6-0.1,1-0.2c0.4-0.1,0.7-0.1,1-0.1
			c0.4,0,0.6-0.1,0.9-0.1c0.2-0.1,0.5-0.1,0.6-0.2c0.1-0.1,0.2-0.4,0.2-0.6c0-0.2,0-0.5-0.1-0.7c-0.1-0.1-0.2-0.2-0.4-0.4
			c-0.1-0.1-0.4-0.1-0.6-0.2c-0.2,0-0.4,0-0.6,0c-0.6,0-1,0.1-1.3,0.4c-0.4,0.2-0.6,0.6-0.6,1.2h-1.3c0-0.5,0.1-0.9,0.4-1.2
			c0.2-0.4,0.4-0.6,0.7-0.9c0.4-0.2,0.6-0.4,1.1-0.5c0.4-0.1,0.9-0.1,1.2-0.1c0.4,0,0.7,0,1.1,0.1c0.4,0,0.6,0.1,1,0.4
			c0.2,0.1,0.5,0.4,0.7,0.6c0.1,0.2,0.2,0.6,0.2,1.1v4c0,0.2,0,0.5,0,0.6c0,0.1,0.1,0.2,0.4,0.2c0.1,0,0.2,0,0.4-0.1L409.9,120
			L409.9,120z M407.9,115.9c-0.1,0.1-0.4,0.2-0.6,0.2c-0.2,0-0.5,0.1-0.9,0.1c-0.2,0-0.6,0.1-0.9,0.1c-0.2,0-0.6,0.1-0.9,0.2
			c-0.2,0.1-0.4,0.2-0.6,0.5c-0.1,0.2-0.2,0.5-0.2,0.7c0,0.2,0,0.4,0.1,0.5c0.1,0.1,0.2,0.2,0.4,0.4c0.1,0.1,0.2,0.1,0.5,0.2
			c0.2,0,0.4,0,0.6,0c0.5,0,0.9,0,1.1-0.1c0.2-0.1,0.6-0.2,0.7-0.5c0.2-0.1,0.4-0.4,0.5-0.6c0.1-0.2,0.1-0.4,0.1-0.6L407.9,115.9
			L407.9,115.9z"/>
		<path class="st2" d="M414.3,121.1c-0.1,0.4-0.2,0.7-0.5,1c-0.1,0.2-0.4,0.5-0.5,0.6c-0.1,0.1-0.4,0.2-0.6,0.4
			c-0.2,0.1-0.5,0.1-0.7,0.1c-0.1,0-0.2,0-0.5,0c-0.1,0-0.2,0-0.5-0.1v-1.2c0.1,0,0.2,0.1,0.4,0.1c0.1,0,0.2,0,0.4,0
			c0.2,0,0.5-0.1,0.6-0.2c0.1-0.1,0.4-0.4,0.4-0.5l0.5-1.3l-3.2-7.8h1.5l2.3,6.5l0,0l2.2-6.5h1.3L414.3,121.1z"/>
		<path class="st2" d="M420.2,109.1v4l0,0c0.2-0.5,0.6-0.7,1-1c0.5-0.2,1-0.2,1.5-0.2c0.6,0,1.1,0.1,1.6,0.4s0.9,0.5,1.1,0.9
			c0.2,0.4,0.5,0.9,0.7,1.3c0.1,0.5,0.2,1,0.2,1.6s-0.1,1.1-0.2,1.6c-0.1,0.5-0.4,1-0.7,1.3c-0.2,0.4-0.7,0.6-1.1,0.9
			c-0.5,0.2-1,0.4-1.6,0.4c-0.2,0-0.4,0-0.6-0.1c-0.2,0-0.5-0.1-0.7-0.2c-0.2-0.1-0.5-0.2-0.6-0.4c-0.2-0.1-0.4-0.4-0.5-0.6l0,0v1.1
			h-1.3v-10.9L420.2,109.1L420.2,109.1z M424.8,115c-0.1-0.4-0.2-0.6-0.5-1c-0.2-0.2-0.5-0.5-0.7-0.6c-0.4-0.1-0.7-0.2-1.1-0.2
			c-0.5,0-0.9,0.1-1.1,0.2c-0.4,0.1-0.6,0.4-0.7,0.7c-0.2,0.2-0.4,0.6-0.4,1c-0.1,0.4-0.1,0.7-0.1,1.1c0,0.4,0,0.7,0.1,1.1
			c0.1,0.4,0.2,0.7,0.5,1c0.2,0.2,0.5,0.5,0.7,0.6c0.4,0.1,0.7,0.2,1.1,0.2c0.5,0,0.9-0.1,1.1-0.2c0.2-0.1,0.5-0.4,0.7-0.7
			c0.2-0.2,0.4-0.6,0.4-1c0.1-0.4,0.1-0.7,0.1-1.1C425,115.7,425,115.3,424.8,115z"/>
		<path class="st2" d="M427.7,114.5c0.1-0.5,0.4-1,0.7-1.3c0.4-0.4,0.7-0.6,1.2-0.9c0.5-0.2,1-0.4,1.7-0.4c0.6,0,1.2,0.1,1.7,0.4
			c0.5,0.2,0.9,0.5,1.2,0.9c0.4,0.4,0.6,0.9,0.7,1.3c0.1,0.5,0.2,1.1,0.2,1.6c0,0.6-0.1,1.1-0.2,1.6c-0.1,0.5-0.4,1-0.7,1.3
			c-0.4,0.4-0.7,0.6-1.2,0.9c-0.5,0.2-1,0.4-1.7,0.4c-0.6,0-1.2-0.1-1.7-0.4c-0.5-0.2-0.9-0.5-1.2-0.9s-0.6-0.9-0.7-1.3
			c-0.1-0.5-0.2-1.1-0.2-1.6S427.5,115,427.7,114.5z M429,117.4c0.1,0.4,0.2,0.7,0.5,1c0.2,0.2,0.5,0.5,0.7,0.6
			c0.2,0.1,0.6,0.2,1,0.2c0.4,0,0.6-0.1,1-0.2c0.2-0.1,0.6-0.4,0.7-0.6c0.2-0.2,0.4-0.6,0.5-1c0.1-0.4,0.2-0.9,0.2-1.2
			c0-0.5-0.1-0.9-0.2-1.2c-0.1-0.4-0.2-0.7-0.5-1c-0.2-0.2-0.5-0.5-0.7-0.6c-0.2-0.1-0.6-0.2-1-0.2c-0.4,0-0.6,0.1-1,0.2
			c-0.2,0.1-0.6,0.4-0.7,0.6c-0.2,0.2-0.4,0.6-0.5,1c-0.1,0.4-0.2,0.9-0.2,1.2C428.9,116.5,428.9,117,429,117.4z"/>
		<path class="st2" d="M436,112.1h1.7l2,2.8l2-2.8h1.6l-2.7,3.7l3.1,4.3h-1.7l-2.2-3.3l-2.2,3.3h-1.6l2.9-4.2L436,112.1z"/>
		<path class="st2" d="M450,112.1v1.7l0,0c0.4-0.6,0.7-1.1,1.2-1.5c0.5-0.4,1.1-0.5,1.7-0.5v1.3c-0.5,0-1,0.1-1.3,0.2
			c-0.4,0.1-0.6,0.4-0.9,0.6c-0.2,0.2-0.4,0.6-0.5,1c-0.1,0.4-0.1,0.9-0.1,1.3v3.5h-1.3V112h1.2V112.1z"/>
		<path class="st2" d="M459.2,119.6c-0.6,0.5-1.3,0.7-2.2,0.7c-0.6,0-1.2-0.1-1.6-0.4c-0.5-0.2-0.9-0.5-1.2-0.9
			c-0.4-0.4-0.6-0.9-0.7-1.3c-0.1-0.5-0.2-1.1-0.2-1.7s0.1-1.1,0.2-1.7c0.1-0.5,0.5-1,0.7-1.3c0.4-0.4,0.7-0.6,1.2-0.9
			c0.5-0.2,1-0.4,1.5-0.4c0.7,0,1.3,0.1,1.7,0.5c0.5,0.2,0.9,0.6,1.1,1.1c0.2,0.5,0.5,1,0.6,1.5c0.1,0.5,0.1,1,0.1,1.5h-5.9
			c0,0.4,0,0.7,0.1,1c0.1,0.4,0.2,0.6,0.5,0.9c0.2,0.2,0.5,0.5,0.7,0.6c0.4,0.1,0.7,0.2,1.1,0.2c0.6,0,1-0.1,1.3-0.4
			c0.4-0.2,0.6-0.6,0.7-1.2h1.3C460.2,118.4,459.8,119.1,459.2,119.6z M458.9,114.5c-0.1-0.2-0.2-0.5-0.5-0.7
			c-0.2-0.2-0.5-0.4-0.7-0.5c-0.2-0.1-0.6-0.1-0.9-0.1c-0.4,0-0.6,0-0.9,0.1s-0.5,0.2-0.7,0.5c-0.2,0.2-0.4,0.5-0.5,0.7
			c-0.1,0.2-0.1,0.6-0.2,0.9h4.5C459.1,115.1,459.1,114.7,458.9,114.5z"/>
		<path class="st2" d="M463.2,109.1V120h-1.3v-10.9H463.2z"/>
		<path class="st2" d="M470.8,119.6c-0.6,0.5-1.3,0.7-2.2,0.7c-0.6,0-1.2-0.1-1.6-0.4c-0.5-0.2-0.9-0.5-1.2-0.9
			c-0.4-0.4-0.6-0.9-0.7-1.3c-0.1-0.5-0.2-1.1-0.2-1.7s0.1-1.1,0.2-1.7c0.1-0.5,0.5-1,0.7-1.3c0.4-0.4,0.7-0.6,1.2-0.9
			c0.5-0.2,1-0.4,1.5-0.4c0.7,0,1.3,0.1,1.7,0.5c0.5,0.2,0.9,0.6,1.1,1.1c0.2,0.5,0.5,1,0.6,1.5c0.1,0.5,0.1,1,0.1,1.5h-5.9
			c0,0.4,0,0.7,0.1,1c0.1,0.4,0.2,0.6,0.5,0.9c0.2,0.2,0.5,0.5,0.7,0.6c0.4,0.1,0.7,0.2,1.1,0.2c0.6,0,1-0.1,1.3-0.4
			c0.4-0.2,0.6-0.6,0.7-1.2h1.3C471.8,118.4,471.4,119.1,470.8,119.6z M470.4,114.5c-0.1-0.2-0.2-0.5-0.5-0.7
			c-0.2-0.2-0.5-0.4-0.7-0.5c-0.2-0.1-0.6-0.1-0.9-0.1c-0.4,0-0.6,0-0.9,0.1s-0.5,0.2-0.7,0.5c-0.2,0.2-0.4,0.5-0.5,0.7
			c-0.1,0.2-0.1,0.6-0.2,0.9h4.5C470.7,115.1,470.5,114.7,470.4,114.5z"/>
		<path class="st2" d="M480.4,120c-0.2,0.1-0.5,0.2-1,0.2c-0.4,0-0.6-0.1-0.9-0.2c-0.2-0.2-0.2-0.5-0.2-1c-0.4,0.4-0.7,0.7-1.2,1
			c-0.5,0.2-1,0.2-1.6,0.2c-0.4,0-0.7,0-1-0.1c-0.4-0.1-0.6-0.2-0.9-0.4c-0.2-0.1-0.4-0.4-0.6-0.7c-0.1-0.2-0.2-0.6-0.2-1
			c0-0.5,0.1-0.9,0.2-1.1c0.1-0.2,0.4-0.5,0.6-0.7c0.2-0.1,0.5-0.4,0.9-0.4c0.4-0.1,0.6-0.1,1-0.2c0.4-0.1,0.7-0.1,1-0.1
			c0.4,0,0.6-0.1,0.9-0.1c0.2-0.1,0.5-0.1,0.6-0.2c0.1-0.1,0.2-0.4,0.2-0.6c0-0.2,0-0.5-0.1-0.7c-0.1-0.1-0.2-0.2-0.4-0.4
			c-0.1-0.1-0.4-0.1-0.6-0.2c-0.2,0-0.4,0-0.6,0c-0.6,0-1,0.1-1.3,0.4c-0.4,0.2-0.6,0.6-0.6,1.2h-1.3c0-0.5,0.1-0.9,0.4-1.2
			c0.2-0.4,0.4-0.6,0.7-0.9c0.4-0.2,0.6-0.4,1.1-0.5c0.4-0.1,0.9-0.1,1.2-0.1c0.4,0,0.7,0,1.1,0.1c0.4,0,0.6,0.1,1,0.4
			c0.2,0.1,0.5,0.4,0.7,0.6c0.1,0.2,0.2,0.6,0.2,1.1v4c0,0.2,0,0.5,0,0.6c0,0.1,0.1,0.2,0.4,0.2c0.1,0,0.2,0,0.4-0.1L480.4,120
			L480.4,120z M478.2,115.9c-0.1,0.1-0.4,0.2-0.6,0.2s-0.5,0.1-0.9,0.1c-0.2,0-0.6,0.1-0.9,0.1s-0.6,0.1-0.9,0.2
			c-0.2,0.1-0.4,0.2-0.6,0.5c-0.1,0.2-0.2,0.5-0.2,0.7c0,0.2,0,0.4,0.1,0.5c0.1,0.1,0.2,0.2,0.4,0.4c0.1,0.1,0.2,0.1,0.5,0.2
			c0.2,0,0.4,0,0.6,0c0.4,0,0.9,0,1.1-0.1c0.2-0.1,0.6-0.2,0.7-0.5c0.2-0.1,0.4-0.4,0.5-0.6c0.1-0.2,0.1-0.4,0.1-0.6L478.2,115.9
			L478.2,115.9z"/>
		<path class="st2" d="M482.6,118.3c0.1,0.2,0.2,0.4,0.5,0.5c0.2,0.1,0.4,0.2,0.7,0.2c0.2,0,0.5,0.1,0.7,0.1c0.2,0,0.4,0,0.6,0
			s0.5-0.1,0.6-0.1c0.2-0.1,0.4-0.2,0.5-0.4c0.1-0.1,0.2-0.4,0.2-0.6c0-0.4-0.1-0.6-0.4-0.7c-0.2-0.1-0.6-0.4-1-0.4
			c-0.4,0-0.9-0.2-1.2-0.2c-0.5-0.1-0.9-0.2-1.2-0.4c-0.4-0.1-0.7-0.4-1-0.6c-0.2-0.2-0.4-0.7-0.4-1.2c0-0.4,0.1-0.7,0.2-1
			c0.1-0.2,0.4-0.5,0.7-0.7c0.2-0.1,0.6-0.4,1-0.4c0.4-0.1,0.7-0.1,1.1-0.1c0.5,0,0.9,0,1.2,0.1c0.4,0.1,0.7,0.2,1,0.4
			c0.2,0.2,0.5,0.5,0.7,0.7c0.1,0.4,0.2,0.7,0.4,1.2h-1.3c0-0.2-0.1-0.5-0.2-0.6c-0.1-0.1-0.2-0.2-0.5-0.4c-0.1-0.1-0.4-0.1-0.6-0.2
			c-0.2,0-0.4-0.1-0.6-0.1s-0.4,0-0.6,0c-0.2,0-0.4,0.1-0.5,0.1c-0.1,0.1-0.2,0.1-0.4,0.2c-0.1,0.1-0.1,0.2-0.1,0.5s0.1,0.4,0.2,0.6
			c0.1,0.1,0.4,0.2,0.6,0.4c0.2,0.1,0.5,0.1,0.9,0.2c0.4,0.1,0.6,0.1,1,0.2c0.4,0.1,0.6,0.1,1,0.2c0.4,0.1,0.6,0.2,0.9,0.4
			c0.2,0.1,0.5,0.4,0.6,0.6c0.1,0.2,0.2,0.6,0.2,1c0,0.5-0.1,0.9-0.2,1.2c-0.2,0.4-0.5,0.6-0.7,0.7c-0.4,0.2-0.7,0.4-1.1,0.4
			c-0.4,0.1-0.9,0.1-1.2,0.1c-0.5,0-0.9,0-1.2-0.1c-0.4-0.1-0.7-0.2-1.1-0.5c-0.4-0.2-0.6-0.5-0.7-0.9c-0.2-0.4-0.2-0.7-0.4-1.2h1.3
			C482.4,117.9,482.5,118.1,482.6,118.3z"/>
		<path class="st2" d="M494.9,119.6c-0.6,0.5-1.3,0.7-2.2,0.7c-0.6,0-1.2-0.1-1.6-0.4c-0.5-0.2-0.9-0.5-1.2-0.9
			c-0.4-0.4-0.6-0.9-0.7-1.3c-0.1-0.5-0.2-1.1-0.2-1.7s0.1-1.1,0.2-1.7c0.1-0.5,0.5-1,0.7-1.3c0.4-0.4,0.7-0.6,1.2-0.9
			c0.5-0.2,1-0.4,1.5-0.4c0.7,0,1.3,0.1,1.7,0.5c0.5,0.2,0.9,0.6,1.1,1.1c0.2,0.5,0.5,1,0.6,1.5c0.1,0.5,0.1,1,0.1,1.5h-5.9
			c0,0.4,0,0.7,0.1,1c0.1,0.4,0.2,0.6,0.5,0.9c0.2,0.2,0.5,0.5,0.7,0.6c0.4,0.1,0.7,0.2,1.1,0.2c0.6,0,1-0.1,1.3-0.4
			c0.4-0.2,0.6-0.6,0.7-1.2h1.3C495.8,118.4,495.5,119.1,494.9,119.6z M494.5,114.5c-0.1-0.2-0.2-0.5-0.5-0.7
			c-0.2-0.2-0.5-0.4-0.7-0.5c-0.2-0.1-0.6-0.1-0.9-0.1c-0.4,0-0.6,0-0.9,0.1c-0.2,0.1-0.5,0.2-0.7,0.5c-0.2,0.2-0.4,0.5-0.5,0.7
			c-0.1,0.2-0.1,0.6-0.2,0.9h4.5C494.7,115.1,494.6,114.7,494.5,114.5z"/>
		<path class="st2" d="M498.4,118.3c0.1,0.2,0.2,0.4,0.5,0.5c0.2,0.1,0.4,0.2,0.7,0.2c0.2,0,0.5,0.1,0.7,0.1c0.2,0,0.4,0,0.6,0
			s0.5-0.1,0.6-0.1c0.2-0.1,0.4-0.2,0.5-0.4c0.1-0.1,0.2-0.4,0.2-0.6c0-0.4-0.1-0.6-0.4-0.7c-0.2-0.1-0.6-0.4-1-0.4
			c-0.4,0-0.9-0.2-1.2-0.2c-0.5-0.1-0.9-0.2-1.2-0.4c-0.4-0.1-0.7-0.4-1-0.6c-0.2-0.2-0.4-0.7-0.4-1.2c0-0.4,0.1-0.7,0.2-1
			c0.1-0.2,0.4-0.5,0.7-0.7c0.2-0.1,0.6-0.4,1-0.4c0.4-0.1,0.7-0.1,1.1-0.1c0.5,0,0.9,0,1.2,0.1c0.4,0.1,0.7,0.2,1,0.4
			c0.2,0.2,0.5,0.5,0.7,0.7c0.1,0.4,0.2,0.7,0.4,1.2H502c0-0.2-0.1-0.5-0.2-0.6c-0.1-0.1-0.2-0.2-0.5-0.4c-0.1-0.1-0.4-0.1-0.6-0.2
			c-0.2,0-0.4-0.1-0.6-0.1s-0.4,0-0.6,0s-0.4,0.1-0.5,0.1c-0.1,0.1-0.2,0.1-0.4,0.2c-0.1,0.1-0.1,0.2-0.1,0.5s0.1,0.4,0.2,0.6
			c0.1,0.1,0.4,0.2,0.6,0.4c0.2,0.1,0.5,0.1,0.9,0.2c0.4,0.1,0.6,0.1,1,0.2c0.4,0.1,0.6,0.1,1,0.2c0.4,0.1,0.6,0.2,0.9,0.4
			c0.2,0.1,0.5,0.4,0.6,0.6c0.1,0.2,0.2,0.6,0.2,1c0,0.5-0.1,0.9-0.2,1.2c-0.2,0.4-0.5,0.6-0.7,0.7c-0.4,0.2-0.7,0.4-1.1,0.4
			c-0.4,0.1-0.9,0.1-1.2,0.1c-0.5,0-0.9,0-1.2-0.1c-0.4-0.1-0.7-0.2-1.1-0.5c-0.4-0.2-0.6-0.5-0.7-0.9c-0.2-0.4-0.2-0.7-0.4-1.2h1.3
			C498.3,117.9,498.3,118.1,498.4,118.3z"/>
		<path class="st2" d="M510.6,112.1v1.1l0,0c0.2-0.5,0.6-0.7,1-1c0.5-0.2,1-0.2,1.5-0.2c0.6,0,1.1,0.1,1.6,0.4
			c0.5,0.2,0.9,0.5,1.1,0.9c0.2,0.4,0.5,0.9,0.7,1.3c0.1,0.5,0.2,1,0.2,1.6s-0.1,1.1-0.2,1.6c-0.1,0.5-0.4,1-0.7,1.3
			c-0.2,0.4-0.7,0.6-1.1,0.9c-0.5,0.2-1,0.4-1.6,0.4c-0.2,0-0.4,0-0.6-0.1c-0.2,0-0.5-0.1-0.7-0.2c-0.2-0.1-0.5-0.2-0.6-0.4
			c-0.2-0.1-0.4-0.4-0.5-0.6l0,0v4h-1.3v-10.9L510.6,112.1L510.6,112.1z M515.4,115c-0.1-0.4-0.2-0.6-0.5-1
			c-0.2-0.2-0.5-0.5-0.7-0.6c-0.4-0.1-0.7-0.2-1.1-0.2c-0.5,0-0.9,0.1-1.1,0.2c-0.4,0.1-0.6,0.4-0.7,0.7c-0.2,0.2-0.4,0.6-0.4,1
			c-0.1,0.4-0.1,0.7-0.1,1.1c0,0.4,0,0.7,0.1,1.1c0.1,0.4,0.2,0.7,0.5,1c0.2,0.2,0.5,0.5,0.7,0.6c0.4,0.1,0.7,0.2,1.1,0.2
			c0.5,0,0.9-0.1,1.1-0.2c0.2-0.1,0.5-0.4,0.7-0.7c0.2-0.2,0.4-0.6,0.4-1c0.1-0.4,0.1-0.7,0.1-1.1
			C515.5,115.7,515.4,115.3,515.4,115z"/>
		<path class="st2" d="M525.4,120c-0.2,0.1-0.5,0.2-1,0.2c-0.4,0-0.6-0.1-0.9-0.2c-0.2-0.2-0.2-0.5-0.2-1c-0.4,0.4-0.7,0.7-1.2,1
			c-0.5,0.2-1,0.2-1.6,0.2c-0.4,0-0.7,0-1-0.1c-0.4-0.1-0.6-0.2-0.9-0.4c-0.2-0.1-0.4-0.4-0.6-0.7c-0.1-0.2-0.2-0.6-0.2-1
			c0-0.5,0.1-0.9,0.2-1.1c0.1-0.2,0.4-0.5,0.6-0.7c0.2-0.1,0.5-0.4,0.9-0.4c0.4-0.1,0.6-0.1,1-0.2c0.4-0.1,0.7-0.1,1-0.1
			c0.4,0,0.6-0.1,0.9-0.1c0.2-0.1,0.5-0.1,0.6-0.2c0.1-0.1,0.2-0.4,0.2-0.6c0-0.2,0-0.5-0.1-0.7c-0.1-0.1-0.2-0.2-0.4-0.4
			c-0.1-0.1-0.4-0.1-0.6-0.2c-0.2,0-0.4,0-0.6,0c-0.6,0-1,0.1-1.3,0.4c-0.4,0.2-0.6,0.6-0.6,1.2h-1.3c0-0.5,0.1-0.9,0.4-1.2
			c0.2-0.4,0.4-0.6,0.7-0.9c0.4-0.2,0.6-0.4,1.1-0.5c0.4-0.1,0.9-0.1,1.2-0.1s0.7,0,1.1,0.1c0.4,0,0.6,0.1,1,0.4
			c0.2,0.1,0.5,0.4,0.7,0.6c0.1,0.2,0.2,0.6,0.2,1.1v4c0,0.2,0,0.5,0,0.6c0,0.1,0.1,0.2,0.4,0.2c0.1,0,0.2,0,0.4-0.1L525.4,120
			L525.4,120z M523.3,115.9c-0.1,0.1-0.4,0.2-0.6,0.2c-0.2,0-0.5,0.1-0.9,0.1c-0.2,0-0.6,0.1-0.9,0.1c-0.2,0-0.6,0.1-0.9,0.2
			c-0.2,0.1-0.4,0.2-0.6,0.5c-0.1,0.2-0.2,0.5-0.2,0.7c0,0.2,0,0.4,0.1,0.5c0.1,0.1,0.2,0.2,0.4,0.4c0.1,0.1,0.2,0.1,0.5,0.2
			c0.2,0,0.4,0,0.6,0c0.5,0,0.9,0,1.1-0.1c0.2-0.1,0.6-0.2,0.7-0.5c0.2-0.1,0.4-0.4,0.5-0.6c0.1-0.2,0.1-0.4,0.1-0.6L523.3,115.9
			L523.3,115.9z"/>
		<path class="st2" d="M529.7,121.1c-0.1,0.4-0.2,0.7-0.5,1c-0.1,0.2-0.4,0.5-0.5,0.6c-0.1,0.1-0.4,0.2-0.6,0.4
			c-0.2,0.1-0.5,0.1-0.7,0.1c-0.1,0-0.2,0-0.5,0c-0.1,0-0.2,0-0.5-0.1v-1.2c0.1,0,0.2,0.1,0.4,0.1s0.2,0,0.4,0
			c0.2,0,0.5-0.1,0.6-0.2c0.1-0.1,0.4-0.4,0.4-0.5l0.5-1.3l-3.2-7.8h1.5l2.3,6.5l0,0l2.2-6.5h1.3L529.7,121.1z"/>
		<path class="st2" d="M535.4,112.1v1.2l0,0c0.6-0.9,1.5-1.3,2.6-1.3c0.5,0,1,0.1,1.3,0.4c0.4,0.2,0.7,0.5,0.9,1.1
			c0.2-0.5,0.6-0.7,1.1-1c0.5-0.2,0.9-0.4,1.5-0.4c0.4,0,0.7,0,1.1,0.1c0.4,0.1,0.6,0.2,0.9,0.4c0.2,0.2,0.4,0.4,0.5,0.7
			c0.1,0.2,0.2,0.6,0.2,1.1v5.7h-1.3v-5.1c0-0.2,0-0.5-0.1-0.7c0-0.2-0.1-0.4-0.2-0.6c-0.1-0.1-0.2-0.2-0.5-0.4
			c-0.2-0.1-0.5-0.1-0.7-0.1c-0.6,0-1.1,0.1-1.5,0.6c-0.4,0.4-0.6,0.9-0.6,1.5v4.9h-1.3v-5.1c0-0.2,0-0.5-0.1-0.7
			c0-0.2-0.1-0.4-0.2-0.6c-0.1-0.1-0.2-0.2-0.5-0.4c-0.2-0.1-0.5-0.1-0.7-0.1c-0.4,0-0.7,0.1-1,0.2c-0.2,0.1-0.5,0.4-0.6,0.6
			c-0.1,0.2-0.2,0.5-0.4,0.6c-0.1,0.2-0.1,0.4-0.1,0.6v4.9h-1.3v-7.9h1.3V112.1z"/>
		<path class="st2" d="M552.9,119.6c-0.6,0.5-1.3,0.7-2.2,0.7c-0.6,0-1.2-0.1-1.6-0.4c-0.5-0.2-0.9-0.5-1.2-0.9
			c-0.4-0.4-0.6-0.9-0.7-1.3c-0.1-0.5-0.2-1.1-0.2-1.7s0.1-1.1,0.2-1.7c0.1-0.5,0.5-1,0.7-1.3c0.4-0.4,0.7-0.6,1.2-0.9
			c0.5-0.2,1-0.4,1.5-0.4c0.7,0,1.3,0.1,1.7,0.5c0.5,0.2,0.9,0.6,1.1,1.1c0.2,0.5,0.5,1,0.6,1.5c0.1,0.5,0.1,1,0.1,1.5h-5.9
			c0,0.4,0,0.7,0.1,1c0.1,0.4,0.2,0.6,0.5,0.9c0.2,0.2,0.5,0.5,0.7,0.6c0.4,0.1,0.7,0.2,1.1,0.2c0.6,0,1-0.1,1.3-0.4
			c0.4-0.2,0.6-0.6,0.7-1.2h1.3C553.9,118.4,553.4,119.1,552.9,119.6z M552.5,114.5c-0.1-0.2-0.2-0.5-0.5-0.7
			c-0.2-0.2-0.5-0.4-0.7-0.5c-0.2-0.1-0.6-0.1-0.9-0.1c-0.4,0-0.6,0-0.9,0.1c-0.2,0.1-0.5,0.2-0.7,0.5c-0.2,0.2-0.4,0.5-0.5,0.7
			c-0.1,0.2-0.1,0.6-0.2,0.9h4.5C552.8,115.1,552.7,114.7,552.5,114.5z"/>
		<path class="st2" d="M556.7,112.1v1.2l0,0c0.5-1,1.3-1.5,2.6-1.5c0.5,0,1,0.1,1.3,0.2c0.4,0.1,0.6,0.4,0.9,0.6
			c0.2,0.2,0.4,0.6,0.5,0.9c0.1,0.4,0.1,0.7,0.1,1.2v5.3h-1.3v-5.4c0-0.5-0.1-0.9-0.4-1.2c-0.2-0.2-0.7-0.4-1.2-0.4
			c-0.4,0-0.7,0-1,0.1c-0.2,0.1-0.5,0.2-0.7,0.5c-0.2,0.2-0.4,0.5-0.5,0.7c-0.1,0.2-0.1,0.6-0.1,1v4.5h-1.3V112h1.2V112.1z"/>
		<path class="st2" d="M567.3,112.1v1.1h-1.6v4.9c0,0.1,0,0.2,0,0.4s0.1,0.1,0.1,0.2c0.1,0,0.1,0.1,0.2,0.1c0.1,0,0.2,0,0.5,0h0.6
			v1.1h-1c-0.4,0-0.6,0-0.9-0.1c-0.2,0-0.5-0.1-0.6-0.2c-0.1-0.1-0.2-0.2-0.4-0.5s-0.1-0.5-0.1-0.9v-5h-1.3v-1.1h1.3v-2.3h1.3v2.3
			H567.3z"/>
	</g>
	<g>
		<polygon class="st0" points="402.5,22.2 368.9,22.2 352,51.3 368.9,80.5 402.5,80.5 419.3,51.3 		"/>
	</g>
	<g>
		<rect x="389.3" y="48.1" class="st0" width="173.9" height="6.5"/>
	</g>
	<g>
		<g>
			<polygon class="st0" points="559.1,38 571,51.3 559.1,64.6 550.7,64.6 562.3,51.3 550.7,38 			"/>
		</g>
	</g>
	<g>
		<g>
			<circle class="st28" cx="379.9" cy="38.9" r="7.6"/>
		</g>
		<g>
			<circle class="st29" cx="379.9" cy="38.9" r="5.4"/>
		</g>
		<g>
			<circle class="st3" cx="391.1" cy="61.4" r="7.6"/>
		</g>
		<g>
			<g>
				<circle class="st30" cx="373.5" cy="45.2" r="7.6"/>
			</g>
			<g>
				<path class="st0" d="M373.5,53.1c-4.4,0-7.9-3.5-7.9-7.9s3.5-7.9,7.9-7.9s7.9,3.5,7.9,7.9S377.9,53.1,373.5,53.1z M373.5,38
					c-4,0-7.2,3.3-7.2,7.2s3.3,7.2,7.2,7.2c4,0,7.2-3.3,7.2-7.2S377.6,38,373.5,38z"/>
			</g>
		</g>
		<g>
			<g>
				<path class="st3" d="M398.9,37.7c-0.9-0.2-1.8-0.2-2.7-0.2c-5.7,0-11,4-12.2,9.9c-1.5,6.7,2.8,13.4,9.5,14.9
					c0.9,0.2,1.8,0.2,2.7,0.2c5.7,0,11-4,12.2-9.9C410.1,45.9,405.8,39.2,398.9,37.7z"/>
			</g>
			<g>
				<path class="st0" d="M396.2,62.9c-1,0-1.8-0.1-2.8-0.4c-3.4-0.7-6.2-2.8-8.2-5.7c-1.8-2.9-2.4-6.4-1.7-9.8
					c0.6-2.9,2.3-5.5,4.6-7.3c2.3-1.8,5.1-2.8,8.1-2.8c1,0,1.8,0.1,2.8,0.4c7,1.6,11.5,8.6,9.9,15.5c-0.6,2.9-2.3,5.5-4.6,7.3
					C402.1,61.9,399.2,62.9,396.2,62.9z M396.2,37.8c-2.7,0-5.4,1-7.6,2.7c-2.2,1.7-3.7,4.2-4.3,6.8c-0.7,3.2-0.1,6.4,1.6,9.2
					c1.7,2.7,4.4,4.6,7.6,5.3c0.9,0.2,1.7,0.2,2.6,0.2c2.7,0,5.4-1,7.6-2.7c2.2-1.7,3.7-4.2,4.3-6.8c1.5-6.5-2.7-13-9.2-14.4l0,0
					C398,38,397.1,37.8,396.2,37.8z"/>
			</g>
		</g>
		<g>
			<g>
				<g>
					<path class="st29" d="M395.4,53.4l0.1,0.1l7.1-2.3l-4-11.9l-0.2,0.5L395.4,53.4z"/>
				</g>
			</g>
			<g>
				<g>
					<path class="st28" d="M395.5,53.6l3.2-14.2l-8.6,9L395.5,53.6z"/>
				</g>
			</g>
			<g>
				<g>
					<path class="st29" d="M394,59.6v0.2l8.2-7.5l-7.1,2.3l-0.1,0.1L394,59.6z"/>
				</g>
			</g>
			<g>
				<g>
					<path class="st28" d="M389.8,49.7L394,60l1.1-5.1L389.8,49.7z"/>
				</g>
			</g>
			<g>
				<g>
					<path class="st0" d="M397,47l-1.5,6.6l7.1-2.3L397,47z"/>
				</g>
			</g>
			<g>
				<g>
					<path class="st29" d="M397,47l-6.8,1.5l5.5,5.1L397,47z"/>
				</g>
			</g>
		</g>
		<g>
			<g>
				<circle class="st3" cx="378.8" cy="54.3" r="14.7"/>
			</g>
			<g>
				<path class="st0" d="M378.8,69.6c-8.4,0-15.3-6.8-15.3-15.3s6.8-15.3,15.3-15.3S394,45.9,394,54.3S387.2,69.6,378.8,69.6z
					 M378.8,40.3c-7.7,0-14.1,6.2-14.1,14.1c0,7.7,6.2,14.1,14.1,14.1s14.1-6.2,14.1-14.1C392.8,46.6,386.5,40.3,378.8,40.3z"/>
			</g>
		</g>
		<g>
			<g>
				<path class="st0" d="M373.4,54.3l-2.2,2.2l-2.2-2.2l2.2-2.2L373.4,54.3z M378.8,48.8l3.9,3.9l2.2-2.2l-3.9-3.8l-2.2-2.2
					l-2.2,2.2l-3.8,3.8l2.2,2.2L378.8,48.8z M386.5,52.1l-2.2,2.2l2.2,2.2l2.2-2.2L386.5,52.1z M378.8,59.8l-3.9-3.9l-2.2,2.2
					l3.9,3.9l2.2,2.2L381,62l3.9-3.9l-2.2-2.2L378.8,59.8z M378.8,56.7l2.2-2.2l-2.2-2.2l-2.2,2.2L378.8,56.7z"/>
			</g>
		</g>
	</g>
</g>
</svg>
