<svg id="Layer_1" data-name="Layer 1" xmlns="http://www.w3.org/2000/svg" viewBox="0 0 162.62 50.17"><g id="Group_3" data-name="Group 3"><g id="Layer_2" data-name="Layer 2"><g id="PAYBOX" style="isolation:isolate"><g style="isolation:isolate"><path d="M47.56,38.11a1.79,1.79,0,0,1-2-2V18a1.78,1.78,0,0,1,2-2h7.47a7.93,7.93,0,0,1,5.55,1.79,6.51,6.51,0,0,1,2,5,6.51,6.51,0,0,1-2,5,7.85,7.85,0,0,1-5.55,1.82H49.54v6.38C49.54,37.43,48.88,38.11,47.56,38.11Zm2-11.56h4.9q4.28,0,4.28-3.72t-4.28-3.69h-4.9Z" fill="#1b9bfd"/><path d="M62.81,38.11a1.7,1.7,0,0,1-1.55-.74,1.81,1.81,0,0,1,0-1.8l8.19-18.14a2.83,2.83,0,0,1,1-1.28,2.38,2.38,0,0,1,2.61,0,2.9,2.9,0,0,1,1,1.28l8.22,18.14a1.88,1.88,0,0,1,.06,1.81,1.59,1.59,0,0,1-1.49.73,2,2,0,0,1-1.35-.42,3.56,3.56,0,0,1-.85-1.29l-1.55-3.59H66.41L64.89,36.4a4.11,4.11,0,0,1-.84,1.31A1.79,1.79,0,0,1,62.81,38.11Zm8.9-17.8-3.94,9.34h7.94l-3.94-9.34Z" fill="#1b9bfd"/><path d="M89.9,38.11c-1.32,0-2-.69-2-2.08V27.82l-6.63-9.33a1.79,1.79,0,0,1-.36-1.2,1.62,1.62,0,0,1,.51-1.08,1.8,1.8,0,0,1,1.3-.45A2.56,2.56,0,0,1,84.85,17L90,24.28,95.11,17a3.73,3.73,0,0,1,1-1,2.16,2.16,0,0,1,1.15-.29,1.56,1.56,0,0,1,1.6.88,1.82,1.82,0,0,1-.33,1.88l-6.6,9.33V36C91.89,37.42,91.23,38.11,89.9,38.11Z" fill="#1b9bfd"/></g><g style="isolation:isolate"><path d="M103.05,37.86a1.86,1.86,0,0,1-2.11-2.11V18.11a1.86,1.86,0,0,1,2.11-2.1h7.44a8.39,8.39,0,0,1,5.33,1.5,5,5,0,0,1,1.89,4.17,5.13,5.13,0,0,1-.9,3,5.22,5.22,0,0,1-2.48,1.86,5.43,5.43,0,0,1,2.9,1.84,5.24,5.24,0,0,1,1,3.33,5.47,5.47,0,0,1-2,4.51,8.43,8.43,0,0,1-5.47,1.6Zm1.7-12.59h5.06c2.7,0,4.06-1,4.06-3.13S112.51,19,109.81,19h-5.06Zm0,9.58h5.58q4.1,0,4.09-3.28t-4.09-3.29h-5.58Z" fill="#34c57f"/><path d="M131.13,38.17a10.71,10.71,0,0,1-5.53-1.39,9.42,9.42,0,0,1-3.67-3.93,12.74,12.74,0,0,1-1.31-5.93,12.71,12.71,0,0,1,1.31-6,9.33,9.33,0,0,1,3.65-3.89,11.85,11.85,0,0,1,11.1,0A9.42,9.42,0,0,1,140.34,21a12.64,12.64,0,0,1,1.3,5.92,12.81,12.81,0,0,1-1.3,6,9.52,9.52,0,0,1-3.66,3.93A10.69,10.69,0,0,1,131.13,38.17Zm0-3.41a5.64,5.64,0,0,0,4.68-2.08,8.9,8.9,0,0,0,1.68-5.76,8.93,8.93,0,0,0-1.66-5.77,6.41,6.41,0,0,0-9.38,0,8.93,8.93,0,0,0-1.67,5.77,9,9,0,0,0,1.67,5.76A5.67,5.67,0,0,0,131.13,34.76Z" fill="#34c57f"/><path d="M144.62,38.11a1.89,1.89,0,0,1-1.27-.42,1.63,1.63,0,0,1-.58-1,1.76,1.76,0,0,1,.42-1.29l6.45-8.62-6.11-8.18a1.94,1.94,0,0,1-.43-1.32,1.53,1.53,0,0,1,.56-1.05,1.84,1.84,0,0,1,1.24-.42A2.59,2.59,0,0,1,147,17l4.93,6.82L156.83,17a2.63,2.63,0,0,1,2.11-1.27,1.93,1.93,0,0,1,1.27.4,1.49,1.49,0,0,1,.56,1,2,2,0,0,1-.47,1.35l-6.1,8.18,6.41,8.62a1.83,1.83,0,0,1,.44,1.29,1.53,1.53,0,0,1-.56,1,1.93,1.93,0,0,1-1.3.42,2.64,2.64,0,0,1-2.08-1.3l-5.21-7.13-5.17,7.13A2.69,2.69,0,0,1,144.62,38.11Z" fill="#34c57f"/></g></g></g><g id="Layer_10" data-name="Layer 10"><g id="Group_2" data-name="Group 2"><g id="Group_1" data-name="Group 1"><g id="Path_1" data-name="Path 1"><path d="M32.26,23.74,19.09,15.63a1.52,1.52,0,0,0-1.59,0L5.84,22.72a1.54,1.54,0,0,0-.51,2.09,1.55,1.55,0,0,0,.51.51l11.67,7.15a1.54,1.54,0,0,0,1.55,0l5-2.83a1.1,1.1,0,0,0,.56-1V26.65a.49.49,0,0,0-.49-.49.54.54,0,0,0-.25.06l-5.57,3.19L9.54,24l8.74-5.32,11.66,7.18V39.37L18.29,46.89,4.6,39.34V9.66l8.77-5.41v8.6L8.25,15.7a1.69,1.69,0,0,1,.64,1.76l-.08.4a1.79,1.79,0,0,0,0,.3c0,.3,0,.61,0,.91l6.88-4a1.51,1.51,0,0,0,.76-1.31V1.56A1.55,1.55,0,0,0,15.93.41,1.52,1.52,0,0,0,14.09.23L2.29,7.53a1.5,1.5,0,0,0-.72,1.29V40.24a1.53,1.53,0,0,0,.78,1.33L17.59,50a1.53,1.53,0,0,0,1.51,0l13.14-8.41A1.54,1.54,0,0,0,33,40.24V25A1.51,1.51,0,0,0,32.26,23.74Z" fill="#34c57f"/></g></g><g id="Path_2" data-name="Path 2"><path d="M4.61,9.66l8.76-5.41v8.6L7.17,16.3a.72.72,0,0,0-.37.63v2.46a.48.48,0,0,0,.48.48.55.55,0,0,0,.24-.07L15.66,15a1.55,1.55,0,0,0,.75-1.32V1.56A1.52,1.52,0,0,0,14.09.23L2.29,7.53a1.5,1.5,0,0,0-.72,1.29V40.24a1.47,1.47,0,0,0,0,.36l3-1.38Z" fill="#1b9bfd"/></g></g></g></g></svg>