<?xml version="1.0" encoding="utf-8"?>
<!-- Generator: Adobe Illustrator 24.3.0, SVG Export Plug-In . SVG Version: 6.00 Build 0)  -->
<svg version="1.1" id="Layer_1" xmlns="http://www.w3.org/2000/svg" xmlns:xlink="http://www.w3.org/1999/xlink" x="0px" y="0px"
	 viewBox="0 0 495 376.2" style="enable-background:new 0 0 495 376.2;" xml:space="preserve">
<style type="text/css">
	.st0{fill:#FFB15B;}
	.st1{fill:url(#SVGID_1_);}
	.st2{fill:#E8E8E8;}
	.st3{fill:#34C57F;}
	.st4{fill:#1B9BFD;}
	.st5{fill:#FF5358;}
	.st6{opacity:0.72;fill:#FFFFFF;enable-background:new    ;}
	.st7{fill:#252E3B;}
	.st8{fill:#6B7ADB;}
	.st9{fill:url(#SVGID_2_);}
	.st10{fill:#4855B0;}
	.st11{fill:url(#SVGID_3_);}
	.st12{fill:url(#SVGID_4_);}
	.st13{fill:url(#SVGID_5_);}
	.st14{fill:url(#SVGID_6_);}
	.st15{fill:url(#SVGID_7_);}
	.st16{fill:url(#SVGID_8_);}
	.st17{fill:url(#SVGID_9_);}
	.st18{fill:url(#SVGID_10_);}
	.st19{fill:url(#SVGID_11_);}
	.st20{fill:url(#SVGID_12_);}
	.st21{fill:#FFAD55;}
	.st22{fill:#E665A9;}
	.st23{fill:#78C2FF;}
	.st24{enable-background:new    ;}
	.st25{fill:#FFFFFF;}
	.st26{fill:#6AEAA6;stroke:#FFFFFF;stroke-width:1.9997;stroke-miterlimit:9.9988;}
	.st27{fill:#13375B;}
	.st28{fill:#F7A491;}
	.st29{fill:#F48C7F;}
	.st30{fill:#355389;}
	.st31{fill:#86B1F2;}
	.st32{fill:#9BC1F9;}
	.st33{fill:#184655;}
	.st34{fill:#F8A492;}
	.st35{fill:#F47458;}
	.st36{fill:#EEA987;}
	.st37{fill:#3F4685;}
	.st38{fill:url(#SVGID_13_);}
	.st39{fill:url(#SVGID_14_);}
	.st40{fill:url(#SVGID_15_);}
	.st41{fill:#4A529C;}
	.st42{fill:#EDDAD3;}
	.st43{fill:#EEA886;}
	.st44{fill:#163342;}
	.st45{fill:#A77860;}
	.st46{fill:#F0B90B;}
	.st47{fill:#F7CF2B;}
	.st48{fill:#F2F2F2;}
	.st49{opacity:0.45;fill:#F8F8F8;enable-background:new    ;}
	.st50{fill:#C9C9C9;}
	.st51{fill:#E2E2E2;}
	.st52{fill:#343434;}
	.st53{fill:#8C8C8C;}
	.st54{fill:#3C3C3B;}
	.st55{fill:#141414;}
	.st56{fill:#393939;}
	.st57{fill:#2BAF83;}
	.st58{fill:#26A17B;}
	.st59{fill:#28B284;}
	.st60{fill:#EFEFEF;}
	.st61{fill:#F8BB66;}
	.st62{fill:#F89829;}
	.st63{opacity:0.46;fill:#F8F8F8;enable-background:new    ;}
	.st64{fill:#EFAA88;}
	.st65{fill:#DB9C7C;}
	.st66{fill:#FCCCA2;}
	.st67{fill:#DB9B7B;}
	.st68{fill:#DE9673;}
	.st69{fill:#363636;}
	.st70{fill:#4D589E;}
	.st71{fill:url(#SVGID_16_);}
	.st72{fill:url(#SVGID_17_);}
	.st73{fill:#0E3CA5;}
	.st74{fill:#5493F7;}
	.st75{fill:#BC2020;}
	.st76{fill:url(#SVGID_18_);}
	.st77{fill:url(#SVGID_19_);}
	.st78{fill:url(#SVGID_20_);}
	.st79{fill:#DF3030;}
	.st80{fill:url(#SVGID_21_);}
	.st81{fill:url(#SVGID_22_);}
	.st82{fill:url(#SVGID_23_);}
</style>
<g id="BG">
	<g>
		<rect x="275.1" y="132.6" class="st0" width="113.2" height="6.3"/>
		<rect x="275.1" y="108.8" class="st0" width="113.2" height="6.3"/>
		<g>
			
				<linearGradient id="SVGID_1_" gradientUnits="userSpaceOnUse" x1="338.3849" y1="-532.8" x2="83.3522" y2="-532.8" gradientTransform="matrix(1 0 0 -1 0 -324)">
				<stop  offset="0" style="stop-color:#34C57F"/>
				<stop  offset="1" style="stop-color:#34E97F"/>
			</linearGradient>
			<path class="st1" d="M111.1,337h179.1c6.4,0,11.7-5.2,11.7-11.7v-233c0-6.4-5.2-11.7-11.7-11.7H111.1c-6.4,0-11.7,5.2-11.7,11.7
				v233.1C99.5,331.8,104.7,337,111.1,337z"/>
		</g>
		<rect x="111.1" y="64.7" class="st2" width="179.1" height="247.3"/>
		<path class="st3" d="M290.2,38.6v40.9h-17.9c-9.7,11.5-17.9,0-17.9,0h-17.9c-9.8,11.5-17.9,0-17.9,0h-17.9
			c-9.8,11.5-17.9,0-17.9,0h-17.9c-9.7,11.5-17.9,0-17.9,0h-18c-9.8,11.5-17.9,0-17.9,0V38.6H290.2z"/>
		<g>
			<path class="st4" d="M129,79.5c0,0,8.2,11.5,17.9,0V38.6H129V79.5z"/>
			<path class="st4" d="M164.8,79.5c0,0,8.2,11.5,17.9,0V38.6h-17.9V79.5z"/>
			<path class="st4" d="M200.7,79.5c0,0,8.2,11.5,17.9,0V38.6h-17.9V79.5z"/>
			<path class="st4" d="M236.5,79.5c0,0,8.2,11.5,17.9,0V38.6h-17.9V79.5z"/>
			<path class="st4" d="M290.2,38.6v40.9c-9.7,11.5-17.9,0-17.9,0V38.6H290.2z"/>
		</g>
		<path class="st5" d="M412.5,145.5h-90.7c-6.2,0-11.3-5-11.3-11.3v-20.4c0-6.2,5-11.3,11.3-11.3h90.7c6.2,0,11.3,5,11.3,11.3v20.4
			C423.8,140.5,418.8,145.5,412.5,145.5z"/>
		<rect x="137.5" y="136.8" class="st6" width="126.4" height="126.4"/>
		<rect x="53.2" y="112" class="st6" width="76.4" height="76.4"/>
		<rect x="53.2" y="200" class="st6" width="76.4" height="76.4"/>
		<g>
			<g>
				<g>
					<path class="st7" d="M469.1,276.3c-5.5,0-9.9-5.2-9.9-11.6s4.5-11.6,9.9-11.6s9.9,5.2,9.9,11.6
						C479,271.1,474.5,276.3,469.1,276.3z M469.1,254.1c-5,0-9,4.8-9,10.6c0,5.9,4,10.6,9,10.6s9-4.8,9-10.6
						C478.1,258.8,474,254.1,469.1,254.1z"/>
				</g>
			</g>
			<g>
				<rect x="444.1" y="264.7" class="st8" width="49.9" height="72.3"/>
			</g>
			<g>
				<g>
					<path class="st7" d="M419.7,263.8c-6.6,0-12-6.3-12-13.9c0-7.7,5.4-13.9,12-13.9s12,6.3,12,13.9
						C431.7,257.5,426.3,263.8,419.7,263.8z M419.7,237c-6,0-10.9,5.8-10.9,12.8c0,7.1,4.9,12.8,10.9,12.8s10.9-5.8,10.9-12.8
						C430.6,242.7,425.7,237,419.7,237z"/>
				</g>
			</g>
			<g>
				<g>
					<path class="st7" d="M354.5,284c-8.2,0-14.9-7.8-14.9-17.4s6.7-17.4,14.9-17.4s14.9,7.8,14.9,17.4S362.7,284,354.5,284z
						 M354.5,250.3c-7.6,0-13.8,7.3-13.8,16.3s6.2,16.3,13.8,16.3c7.6,0,13.8-7.3,13.8-16.3S362.1,250.3,354.5,250.3z"/>
				</g>
			</g>
			<g>
				<rect x="319.3" y="266.6" class="st5" width="70.4" height="70.4"/>
			</g>
			<g>
				
					<linearGradient id="SVGID_2_" gradientUnits="userSpaceOnUse" x1="401.4977" y1="-617.4" x2="517.467" y2="-617.4" gradientTransform="matrix(1 0 0 -1 0 -324)">
					<stop  offset="0" style="stop-color:#5BB1F7"/>
					<stop  offset="1" style="stop-color:#30CFC2"/>
				</linearGradient>
				<rect x="389.7" y="249.8" class="st9" width="60.1" height="87.2"/>
			</g>
		</g>
		<g>
			<g>
				<path class="st8" d="M172.6,160.1c4.2-1.9,9.6-3,14.7-3.5c0.8-0.1,1.6-0.1,2.3-0.2c1.1-0.1,2.3-0.2,3.3-0.2
					c0.5,3.9,3.8,6.8,7.8,6.8s7.3-3,7.8-6.8c1,0,2.1,0.1,3.3,0.2c0.8,0.1,1.5,0.1,2.3,0.2c7.8,0.8,16.6,2.8,20,7.5
					c6.7,9.1,8,32.6,7,77.5h-1.4v2.3h-9.3v-2.3h-1.8v-11.4H225v4.7h-48.6v-4.7h-3.6v11.4h-1.7v2.3h-9.3v-2.3h-1.6
					c-0.9-44.9,0.4-68.3,7-77.5c1.1-1.5,2.9-2.8,4.9-3.8L172.6,160.1z"/>
			</g>
			<g>
				<path class="st10" d="M211.7,156.4c-0.1,6-5,10.9-11.1,10.9c-6,0-10.9-4.8-11.1-10.9c1.1-0.1,2.3-0.2,3.3-0.2
					c0.5,3.9,3.8,6.8,7.8,6.8s7.3-3,7.8-6.8C209.5,156.2,210.6,156.3,211.7,156.4z"/>
			</g>
		</g>
		<g>
			
				<linearGradient id="SVGID_3_" gradientUnits="userSpaceOnUse" x1="9.4" y1="-646.85" x2="77.7" y2="-646.85" gradientTransform="matrix(1 0 0 -1 0 -324)">
				<stop  offset="0" style="stop-color:#FF9340"/>
				<stop  offset="1" style="stop-color:#FFCE45"/>
			</linearGradient>
			<rect x="9.4" y="318.7" class="st11" width="68.3" height="8.3"/>
			
				<linearGradient id="SVGID_4_" gradientUnits="userSpaceOnUse" x1="11.9" y1="-638.55" x2="80.2" y2="-638.55" gradientTransform="matrix(1 0 0 -1 0 -324)">
				<stop  offset="0" style="stop-color:#F58631"/>
				<stop  offset="1" style="stop-color:#F2C23F"/>
			</linearGradient>
			<rect x="11.9" y="310.4" class="st12" width="68.3" height="8.3"/>
			
				<linearGradient id="SVGID_5_" gradientUnits="userSpaceOnUse" x1="10.5" y1="-630.25" x2="78.8" y2="-630.25" gradientTransform="matrix(1 0 0 -1 0 -324)">
				<stop  offset="0" style="stop-color:#FF9340"/>
				<stop  offset="1" style="stop-color:#FFCE45"/>
			</linearGradient>
			<rect x="10.5" y="302.1" class="st13" width="68.3" height="8.3"/>
			
				<linearGradient id="SVGID_6_" gradientUnits="userSpaceOnUse" x1="11.9" y1="-621.95" x2="80.2" y2="-621.95" gradientTransform="matrix(1 0 0 -1 0 -324)">
				<stop  offset="0" style="stop-color:#F58631"/>
				<stop  offset="1" style="stop-color:#F2C23F"/>
			</linearGradient>
			<rect x="11.9" y="293.8" class="st14" width="68.3" height="8.3"/>
			
				<linearGradient id="SVGID_7_" gradientUnits="userSpaceOnUse" x1="13.1" y1="-613.65" x2="81.4" y2="-613.65" gradientTransform="matrix(1 0 0 -1 0 -324)">
				<stop  offset="0" style="stop-color:#FF9340"/>
				<stop  offset="1" style="stop-color:#FFCE45"/>
			</linearGradient>
			<rect x="13.1" y="285.5" class="st15" width="68.3" height="8.3"/>
			
				<linearGradient id="SVGID_8_" gradientUnits="userSpaceOnUse" x1="10.9" y1="-605.45" x2="79.2" y2="-605.45" gradientTransform="matrix(1 0 0 -1 0 -324)">
				<stop  offset="0" style="stop-color:#F58631"/>
				<stop  offset="1" style="stop-color:#F2C23F"/>
			</linearGradient>
			<rect x="10.9" y="277.3" class="st16" width="68.3" height="8.3"/>
			
				<linearGradient id="SVGID_9_" gradientUnits="userSpaceOnUse" x1="9.4" y1="-597.15" x2="77.7" y2="-597.15" gradientTransform="matrix(1 0 0 -1 0 -324)">
				<stop  offset="0" style="stop-color:#FF9340"/>
				<stop  offset="1" style="stop-color:#FFCE45"/>
			</linearGradient>
			<rect x="9.4" y="269" class="st17" width="68.3" height="8.3"/>
			
				<linearGradient id="SVGID_10_" gradientUnits="userSpaceOnUse" x1="12.2" y1="-588.85" x2="80.5" y2="-588.85" gradientTransform="matrix(1 0 0 -1 0 -324)">
				<stop  offset="0" style="stop-color:#F58631"/>
				<stop  offset="1" style="stop-color:#F2C23F"/>
			</linearGradient>
			<rect x="12.2" y="260.7" class="st18" width="68.3" height="8.3"/>
			
				<linearGradient id="SVGID_11_" gradientUnits="userSpaceOnUse" x1="14.8" y1="-654.75" x2="83.1" y2="-654.75" gradientTransform="matrix(1 0 0 -1 0 -324)">
				<stop  offset="0" style="stop-color:#F58631"/>
				<stop  offset="1" style="stop-color:#F2C23F"/>
			</linearGradient>
			<rect x="14.8" y="326.6" class="st19" width="68.3" height="8.3"/>
			
				<linearGradient id="SVGID_12_" gradientUnits="userSpaceOnUse" x1="964.2529" y1="1352.953" x2="1032.7634" y2="1352.953" gradientTransform="matrix(0.9754 0.2204 0.2204 -0.9754 -1219.5464 1356.4967)">
				<stop  offset="0" style="stop-color:#FF9340"/>
				<stop  offset="1" style="stop-color:#FFCE45"/>
			</linearGradient>
			<polygon class="st20" points="86.6,261.8 18.4,260.2 18.6,251.9 86.8,253.6 			"/>
		</g>
		<g>
			<path class="st21" d="M114.3,140l-7.4,5.6v26.8h-31v-26.8l-7.4-5.6c0,0,2.1-8.1,7.4-10.2c2.2-0.9,5.2-1.5,8-1.9
				c0.5,1.6,3.6,2.9,7.5,2.9c3.8,0,7-1.3,7.5-2.9c2.8,0.4,5.8,1,8,1.9C112.2,132,114.3,140,114.3,140z"/>
		</g>
		<g>
			<path class="st22" d="M98.2,219L98.2,219c0.8-2.3,1.5-4.5,1.9-6.4l0,0l5.7-0.3l-0.9-5.4c-4.1-0.4-8.7-0.5-11.4-0.5
				c-0.2,2.2-2.2,3.2-2.2,3.2s-2.1-1.1-2.2-3.2c-2.7,0-7.3,0.1-11.4,0.5l-0.9,5.4l5.7,0.3l0,0c0.5,1.9,1.1,4.2,1.9,6.4l0,0
				c0,0-11.3,18.9-11.3,40.3h18.1h18.1C109.5,237.9,98.2,219,98.2,219z"/>
		</g>
		<g>
			<g>
				<polygon class="st23" points="12.5,95 0.8,95 0.8,83.3 3,83.3 3,92.8 12.5,92.8 				"/>
			</g>
			<g>
				<polygon class="st23" points="82.1,95 70.4,95 70.4,92.8 79.9,92.8 79.9,83.3 82.1,83.3 				"/>
			</g>
			<g>
				<polygon class="st23" points="3,39.9 0.8,39.9 0.8,28.2 12.5,28.2 12.5,30.4 3,30.4 				"/>
			</g>
			<g>
				<polygon class="st23" points="82.1,39.9 79.9,39.9 79.9,30.4 70.4,30.4 70.4,28.2 82.1,28.2 				"/>
			</g>
		</g>
		<path class="st23" d="M360.7,15.3l1.9,9.5l-50.4,22.5l0.9,2l22.3,30.4l0.4,1l4.1-1.8l3,3.9l1.5-0.7c-1.2,1.1-1.6,2.9-0.9,4.5
			c0.9,2,3.3,2.9,5.3,2s2.9-3.3,2-5.3c-0.7-1.6-2.3-2.5-4-2.4l20.7-9.2c-1.2,1.1-1.6,2.9-0.9,4.5c0.9,2,3.3,2.9,5.3,2s2.9-3.3,2-5.3
			c-0.7-1.6-2.3-2.5-4-2.4l1.6-0.7l-0.7-1.6l-27.7,12.3l-1.9-2.5l31.3-13.9l-0.4-1l-6.1-30l-3.3-16.7L383.8,7l-0.7-1.6L360.7,15.3z
			 M349.3,84.1c0.5,1.2,0,2.6-1.2,3.1s-2.6,0-3.1-1.2s0-2.6,1.2-3.1S348.8,82.9,349.3,84.1z M372.5,73.7c0.5,1.2,0,2.6-1.2,3.1
			s-2.6,0-3.1-1.2s0-2.6,1.2-3.1S372,72.5,372.5,73.7z M337.4,52.3l13.2-5.9l3.6,9.9l-11.8,5.3L337.4,52.3z M340.6,62.4l-11.8,5.3
			l-6.3-8.7l13.2-5.9L340.6,62.4z M349.8,44.4l-13.5,6l-5-9.3l14.8-6.6L349.8,44.4z M348,33.8l14.8-6.6l2.2,10.5l-13.4,6L348,33.8z
			 M354.9,58.4l3.6,9.9l-10.1,4.5l-5-9.3L354.9,58.4z M356.6,57.6l11.5-5.1l2.2,10.5l-10.1,4.5L356.6,57.6z M367.6,50.3l-11.8,5.3
			l-3.6-9.9l13.2-5.9l2.2,10.3L367.6,50.3z M329.7,41.9l5,9.3l-13.4,6l-6.3-8.7L329.7,41.9z M330.1,69.4l11.5-5.1l5,9.3l-10.1,4.5
			L330.1,69.4z"/>
		<path class="st6" d="M193.2,288.1h-51.9c-2.1,0-3.8-1.7-3.8-3.8v-9c0-2.1,1.7-3.8,3.8-3.8h51.9c2.1,0,3.8,1.7,3.8,3.8v9
			C197,286.4,195.3,288.1,193.2,288.1z"/>
		<path class="st6" d="M260,288.1h-43.2c-2.1,0-3.8-1.7-3.8-3.8v-9c0-2.1,1.7-3.8,3.8-3.8H260c2.1,0,3.8,1.7,3.8,3.8v9
			C263.8,286.4,262.1,288.1,260,288.1z"/>
		<rect x="136.6" y="112" class="st6" width="84.2" height="7.6"/>
		<rect x="136.6" y="124.2" class="st6" width="95.9" height="7.6"/>
		<g class="st24">
			<path class="st4" d="M20,65.7c0,1.8-0.7,3.3-2.2,4.4c-1.5,1.1-3.3,1.7-5.4,1.7c-2.3,0-4.5-0.6-6.5-1.9l1.2-2.5
				c1.7,1.3,3.5,1.9,5.5,1.9c1.4,0,2.6-0.3,3.4-0.9c0.8-0.6,1.2-1.5,1.2-2.5c0-1.8-1.4-3.1-4.2-4c-4.1-1.3-6.2-3.3-6.2-6.1
				c0-1.6,0.7-3,2-4.1c1.3-1.1,3-1.6,5.1-1.6c2.1,0,3.9,0.5,5.4,1.4L18,53.7c-1.5-0.7-2.9-1.1-4.3-1.1c-1.3,0-2.3,0.3-3.1,0.9
				s-1.2,1.3-1.2,2.1c0,1.6,1.4,2.9,4.2,3.8c2.3,0.7,3.9,1.6,4.8,2.5C19.5,62.9,20,64.1,20,65.7z"/>
			<path class="st4" d="M37.5,71.4h-2.8V63c0-1.3-0.4-2.4-1.1-3.3c-0.7-0.9-1.7-1.3-2.9-1.3c-1.2,0-2.3,0.4-3.3,1.3
				c-0.9,0.9-1.4,1.8-1.4,2.9v8.7h-2.8V49.3h2.8v8.8c1.3-1.3,3-2,5.1-2c2,0,3.6,0.6,4.7,1.9c1.1,1.2,1.7,2.9,1.7,5V71.4z"/>
			<path class="st4" d="M56.7,63.9c0,2.2-0.7,4.1-2.2,5.6c-1.5,1.5-3.4,2.3-5.7,2.3c-2.3,0-4.2-0.8-5.7-2.3
				c-1.5-1.5-2.2-3.4-2.2-5.6c0-2.2,0.7-4.1,2.2-5.6c1.5-1.5,3.4-2.3,5.7-2.3c2.3,0,4.2,0.8,5.7,2.3C55.9,59.8,56.7,61.7,56.7,63.9z
				 M53.9,63.9c0-1.6-0.5-2.9-1.5-4c-1-1.1-2.2-1.6-3.7-1.6c-1.5,0-2.8,0.5-3.7,1.6c-1,1.1-1.5,2.4-1.5,4s0.5,2.9,1.5,4
				c1,1.1,2.2,1.6,3.7,1.6c1.5,0,2.8-0.5,3.7-1.6C53.5,66.8,53.9,65.5,53.9,63.9z"/>
			<path class="st4" d="M75.6,63.6c0,2.4-0.7,4.4-2.2,6c-1.5,1.5-3.4,2.3-5.6,2.3c-2.1,0-3.7-0.6-5-1.8v7.7H60V61.3
				c0-2.4-0.1-4.1-0.2-5.1h2.7l0.3,1.6c1.6-1.3,3.3-1.9,5.3-1.9c2.2,0,4,0.7,5.4,2.2C74.9,59.6,75.6,61.4,75.6,63.6z M72.9,63.6
				c0-1.5-0.5-2.8-1.4-3.8s-2.2-1.6-3.6-1.6c-1.2,0-2.3,0.5-3.4,1.4c-1.1,0.9-1.7,2-1.7,3.1v2.5c0,1.1,0.5,2.1,1.4,3
				c1,0.8,2.1,1.3,3.5,1.3c1.6,0,2.9-0.5,3.8-1.6C72.5,66.8,72.9,65.4,72.9,63.6z"/>
		</g>
		<g class="st24">
			<path class="st25" d="M322.6,132.5c-1,0-1.6-0.5-1.6-1.6v-14.2c0-1.1,0.5-1.6,1.6-1.6h5.9c1.9,0,3.3,0.5,4.4,1.4
				c1,0.9,1.5,2.3,1.5,4s-0.5,3-1.5,4s-2.5,1.4-4.4,1.4h-4.3v5C324.1,132,323.6,132.5,322.6,132.5z M324.1,123.4h3.9
				c2.2,0,3.4-1,3.4-2.9c0-1.9-1.1-2.9-3.4-2.9h-3.9V123.4z"/>
			<path class="st25" d="M335.3,132.5c-0.6,0-1-0.2-1.2-0.6c-0.2-0.4-0.2-0.9,0-1.4l6.5-14.3c0.2-0.5,0.5-0.8,0.8-1s0.6-0.3,1-0.3
				c0.4,0,0.7,0.1,1,0.3s0.6,0.5,0.8,1l6.5,14.3c0.3,0.6,0.3,1,0,1.4s-0.6,0.6-1.2,0.6c-0.5,0-0.8-0.1-1.1-0.3
				c-0.3-0.2-0.5-0.6-0.7-1l-1.2-2.8h-8.4l-1.2,2.8c-0.2,0.5-0.4,0.8-0.7,1C336.1,132.4,335.7,132.5,335.3,132.5z M342.3,118.5
				l-3.1,7.4h6.3L342.3,118.5L342.3,118.5z"/>
			<path class="st25" d="M357.4,132.5c-1,0-1.6-0.5-1.6-1.6v-6.5l-5.2-7.4c-0.2-0.3-0.3-0.6-0.3-0.9s0.2-0.6,0.4-0.9s0.6-0.4,1-0.4
				c0.6,0,1.2,0.3,1.7,1l4,5.7l4.1-5.7c0.3-0.4,0.5-0.6,0.8-0.8c0.2-0.2,0.5-0.2,0.9-0.2c0.6,0,1.1,0.2,1.3,0.7
				c0.2,0.5,0.1,1-0.3,1.5l-5.2,7.4v6.5C359,132,358.5,132.5,357.4,132.5z"/>
			<path class="st25" d="M369.4,132.3c-1.1,0-1.7-0.6-1.7-1.7v-13.9c0-1.1,0.6-1.7,1.7-1.7h5.9c1.8,0,3.2,0.4,4.2,1.2
				c1,0.8,1.5,1.9,1.5,3.3c0,0.9-0.2,1.7-0.7,2.4c-0.5,0.7-1.1,1.2-2,1.5c1,0.3,1.7,0.8,2.3,1.5c0.5,0.7,0.8,1.6,0.8,2.6
				c0,1.5-0.5,2.7-1.6,3.6c-1,0.8-2.5,1.3-4.3,1.3H369.4z M370.7,122.4h4c2.1,0,3.2-0.8,3.2-2.5s-1.1-2.5-3.2-2.5h-4V122.4z
				 M370.7,129.9h4.4c2.2,0,3.2-0.9,3.2-2.6c0-1.7-1.1-2.6-3.2-2.6h-4.4V129.9z"/>
			<path class="st25" d="M392.2,132.6c-1.7,0-3.1-0.4-4.4-1.1c-1.2-0.7-2.2-1.8-2.9-3.1s-1-2.9-1-4.7c0-1.8,0.3-3.4,1-4.7
				s1.6-2.3,2.9-3.1c1.2-0.7,2.7-1.1,4.4-1.1c1.7,0,3.1,0.4,4.4,1.1c1.2,0.7,2.2,1.7,2.9,3.1c0.7,1.3,1,2.9,1,4.7
				c0,1.8-0.3,3.4-1,4.7c-0.7,1.3-1.6,2.4-2.9,3.1C395.4,132.2,393.9,132.6,392.2,132.6z M392.2,129.9c1.6,0,2.8-0.5,3.7-1.6
				c0.9-1.1,1.3-2.6,1.3-4.5c0-2-0.4-3.5-1.3-4.5c-0.9-1.1-2.1-1.6-3.7-1.6c-1.6,0-2.8,0.5-3.7,1.6s-1.3,2.6-1.3,4.5
				c0,1.9,0.4,3.5,1.3,4.5C389.4,129.3,390.7,129.9,392.2,129.9z"/>
			<path class="st25" d="M403.6,132.5c-0.4,0-0.7-0.1-1-0.3c-0.3-0.2-0.4-0.5-0.5-0.8s0.1-0.7,0.3-1l5.1-6.8l-4.8-6.5
				c-0.3-0.4-0.4-0.7-0.3-1c0-0.3,0.2-0.6,0.4-0.8s0.6-0.3,1-0.3c0.6,0,1.1,0.3,1.6,1l3.9,5.4l3.9-5.4c0.5-0.7,1-1,1.7-1
				c0.4,0,0.7,0.1,1,0.3c0.3,0.2,0.4,0.5,0.4,0.8c0,0.3-0.1,0.7-0.4,1.1l-4.8,6.5l5.1,6.8c0.3,0.3,0.4,0.7,0.3,1
				c0,0.3-0.2,0.6-0.4,0.8c-0.3,0.2-0.6,0.3-1,0.3c-0.6,0-1.1-0.3-1.6-1l-4.1-5.6l-4.1,5.6C404.7,132.2,404.2,132.5,403.6,132.5z"/>
		</g>
		
			<ellipse transform="matrix(0.2298 -0.9732 0.9732 0.2298 -158.0308 451.2016)" class="st26" cx="206.1" cy="325.4" rx="9.3" ry="9.3"/>
	</g>
</g>
<g id="hand1">
	<g>
		<path class="st27" d="M127.4,238.7l0.5,0.5c0.3,0.2,0.7,0.2,0.9,0l9.1-10c0.2-0.2,0.2-0.6-0.1-0.9l-0.5-0.5
			c-0.3-0.2-0.7-0.2-0.9,0l-9.1,10C127.1,238.1,127.1,238.5,127.4,238.7z"/>
		<path class="st28" d="M96.6,230.6c1.2-1,10.6,3.1,10.5,4.6c-0.1,1.4,6.5,15.4,6.5,15.4l11.5-9.2l0,0c0.1-0.3,1.2-3.9,1.2-4.6
			c0.1-0.7,2-1.8,2.9-1.7c0.9,0.2-0.8,1.3-0.9,1.5c-0.3,0.6,0.9,0.8,0.9,0.8s3.3-1.8,3.4-2.9c0.1-1.1,0.8-3.3,1.5-2.9
			c0.4,0.2,0.4,1.8,0.3,2.6c0.2-0.9,0.5-1.8,0.8-1.9c0.5-0.2,0.8,0.5,0.7,0.8s-1,4-1.2,4.4c-0.3,0.4-5.6,4.7-6.4,5.7
			c0,0-14.9,17.1-16,17.5c-0.9,0.4-4.2-5.5-7.4-9.4C101.8,247.4,92.8,233.7,96.6,230.6z"/>
		<g>
			<path class="st28" d="M112.3,260.8c0,0,0.2-0.1,0.3-0.2c-0.4-4.3-0.3-8.5,1.1-9.9c0-0.1-0.3-0.7-0.6-1.3c-1.6,1.2-2.3,4.4-2,9.6
				c0,0.4,0.1,0.6,0.2,1.1C111.7,260.5,112.1,260.9,112.3,260.8z"/>
		</g>
	</g>
</g>
<g id="person1">
	<g>
		<path class="st29" d="M67.4,357.2c0,0-2,2-2.1,2.7c0,0.7-0.2,8.6,0.7,9.3c0.8,0.7,3.3,1.3,2.5,2.1c-0.6,0.6-5.2,0.5-8.2,0.3
			c-0.9,0-2-7.2-2.4-8.2c-0.5-1.5-1.8-4.9-1.3-6c0.2-0.5,1.3-1.6,2.8-2.6c1.6-1,3.1-3.4,3.1-3.4L67.4,357.2z"/>
		<path class="st28" d="M88.6,361.9l-1.8,5.2c-0.1,0.8-0.7,2.9-0.7,3.6c0,2.8,12.6-2.4,9.8-3.6c-0.3-0.1-1.1-1-1.1-2
			c-0.1-1.5,1.1-3.3,1.1-3.3L88.6,361.9z"/>
		<g>
			<path class="st30" d="M108.4,265.2c0,0,0.9,9.3,0.9,9.4c0,15.1,3,44.5,2.4,47.3c-1.4,6.9-16.2,42.1-16.2,42.1l-8-1L98,320.8
				l-3.8-17l-5.4-33.6L108.4,265.2z"/>
			<path class="st27" d="M81.5,273.4l-1.5,8.8l-4.1,36.3L60.1,354c0,0,2.2,5.2,5.5,5.9l25-36.4l15.5-46.6l-0.5-10.4L81.5,273.4z"/>
		</g>
		<path class="st31" d="M111.6,243l-11.1,1.1c0,0-0.5-9.2-0.5-13.5c0-5.3,0.4-12.1,1.1-12c1.8,0.4,4.2,1.4,5.6,3.4
			C111.7,228.9,111.6,243,111.6,243z"/>
		<path class="st32" d="M106.1,229.7c0.2,1.6,4.5,45.5,4.5,45.5c-20.3,9.8-31.5,1.7-31.5,1.7s0.7-30.8-0.1-35
			c-0.5-2.8-1.2-21.2,0.6-21.8c2.3-0.7,4.9-1.4,7.8-1.7c2.5-0.3,12-0.4,13.7,0.2C101.2,218.7,105.2,222.9,106.1,229.7z"/>
		<path class="st33" d="M59.5,354.9c0,0,4.7,13.3,6.6,14c0.5,0.2,2.8,0.6,3.3,1.6c0.1,0.3,0,1.4,0,1.4h-9.8c0,0-1.2-5.9-1.7-8.5
			c0,0-2.6-6.3-2.3-6.9C55.8,356,59.5,354.9,59.5,354.9z"/>
		<path class="st33" d="M85.4,371.6l1.4-4.6c0,0,3,1.3,4.6,1.1c1.5-0.2,4.5-1.1,4.5-1.1c6.1,2,11,3,10.1,4.6l0,0H85.4z"/>
		<path class="st34" d="M59.1,275.7c0-0.1,0-0.2,0-0.3c0.3-3,2.8-28.6,3.2-29.7c0.4-1,11.7-17.2,11.7-17.2l5.5,7.6l-10.9,14.5
			c-0.2,0.9-4.2,18.2-4.2,18.2s-0.8,3.1-1.2,5c0.2,0.5,0.3,0.9,0.5,1.2c0.4,0.8,0.8,1.4,1.2,1.9c0.5,0.7,1.3,2.1,1.4,2.5
			s0.3,1.4,0.4,1.9c0.1,0.6,0.3,1.2,0.3,1.5c0,0.2,0.2,0.6,0.4,0.8c0.2,0.4-0.2,0.8-0.6,0.7c-0.4-0.1-0.7-0.6-0.9-1
			c-0.5-0.9-0.8-2.5-1-2.5c-0.1,0.1-0.6,2.9-0.7,3.2c-0.1,0.3-0.6,3.6-1,4.1c-0.3,0.6-0.7,0.5-0.8,0.1c-0.1-0.3,0.3-4.9,0.3-4.9
			s0.1-0.6-0.2-0.4s-0.7,4.3-0.8,4.9c-0.2,0.6-0.6,0.9-0.9,0.4c-0.4-0.6,0.3-5,0.3-5s0.1-0.5-0.2-0.5c-0.2,0.1-0.5,3.6-0.7,3.9
			s-0.6,0.4-0.9-0.1c-0.3-0.6,0.4-4.5,0.4-4.5s0-0.3-0.2-0.2c-0.1,0.1-0.6,3.1-0.9,3.4c-0.3,0.2-0.5,0-0.5,0
			c-0.6-0.4,0.3-3.2,0.3-4.6s0.6-3,0.4-4.7C59.2,276.1,59.2,275.9,59.1,275.7z"/>
		<path class="st32" d="M65.2,238.8l9.6,6.5c0,0,5.4-8.1,8.4-11c3.7-3.6-1.3-14.7-3.7-14.1C74.3,221.6,65.2,238.8,65.2,238.8z"/>
		<path class="st28" d="M88.2,209l-1.4,9.5c0,0,5.3,11.4,8.4,10.4c2.6-0.8,1-10.9,1-10.9s-1.4-5.4-1-8.1
			C95.6,207.3,88.2,209,88.2,209z"/>
		<path class="st35" d="M95.2,210c0.4-2.7-7-0.9-7-0.9l-0.1,0.8c0.2,0.5,0.5,1,0.8,1.3c1.7,1.8,4.2,2.9,6.5,2.9
			C95.2,212.6,95,211.1,95.2,210z"/>
		<g>
			<path class="st28" d="M87,195.5c-0.2-0.1-1.7,10.9,1.1,13.9c2.8,3,8.2,4,10.2,1.6c2.2-2.6,2-14.4-2.3-17.5
				C91.7,190.5,87,195.5,87,195.5z"/>
			<path class="st33" d="M94.3,187.7c-3.4,0.7-5.5,2.7-6.3,3.6c-1.5,0.2-3.6,1-5.7,4.6c-2.6,4.4-0.7,9.2,2.4,11.6
				c3.1,2.4,3,5.1,3,5.1l0.5-1.4c0.4-1.1,0.5-2.2,0.4-3.3c-0.1-0.7-0.2-1.4-0.5-2c-0.7-1.6,1.6-2.6,2.2-4c0.5-1,0.5-3.3,1.3-5
				l0.9-1.3c0,0,2.2-1.7,4.3-1.2C98.9,194.8,98.6,186.8,94.3,187.7z"/>
			<path class="st28" d="M90.1,203.8c0,1.3-0.6,2.4-1.4,2.4s-1.4-1.1-1.4-2.4c0-1.3,0.6-2.4,1.4-2.4
				C89.5,201.4,90.1,202.5,90.1,203.8z"/>
		</g>
		<path class="st25" d="M94.7,206.9l4.2-0.2c0,0,0,1.6-1.9,1.8C94.8,208.6,94.7,206.9,94.7,206.9z"/>
	</g>
</g>
<g id="hand3">
	<g>
		<g>
			<path class="st36" d="M320.7,188.5c0,0-1.7,1.8-2.3,1c-0.6-0.8-1.4-2-1.4-2L320.7,188.5z"/>
			<path class="st36" d="M324.2,171.1l-2.3,9.9c0.7-0.8,1.8-2.1,2.2-1.7c0.5,0.6-1.3,3.2-1.6,4.4c-0.3,1.1-0.7,2.7-1.2,3.7l-0.8,1.6
				l-3.5-1.5c0,0,0.3-7.1,0.4-8.7c0.2-2.6,5.3-8.1,5.8-8.2C324.1,170.6,324.2,171.1,324.2,171.1z"/>
		</g>
		<g>
			<path class="st37" d="M316.3,206.8c2-3.8,6.4-18.3,6.4-18.3l-6-1.3c0,0-3.3,7.3-4.9,12.4c-0.8,2.5-1.8,4.9-2,5.3
				c-0.2,0.4-10.6,8.1-11.8,8.6c-1.1,0.6-5.5,2-7.6,4.1s-1.1,5-1.1,5c4.3,5.7,12.5-1.5,12.5-1.5S313.5,212.1,316.3,206.8z"/>
		</g>
		<path class="st37" d="M306.1,217.5c0,0-9.7,10.3-10,14.2c-0.3,2.8-1.9-8.3-1.9-8.3L306.1,217.5z"/>
	</g>
</g>
<g id="person2">
	<g>
		
			<linearGradient id="SVGID_13_" gradientUnits="userSpaceOnUse" x1="188" y1="1057.25" x2="263" y2="1057.25" gradientTransform="matrix(1 0 0 1 0 -702)">
			<stop  offset="0" style="stop-color:#FF9340"/>
			<stop  offset="1" style="stop-color:#FFD255"/>
		</linearGradient>
		<rect x="188" y="350.7" class="st38" width="75" height="9.1"/>
		
			<linearGradient id="SVGID_14_" gradientUnits="userSpaceOnUse" x1="193.9" y1="1065.95" x2="268.9" y2="1065.95" gradientTransform="matrix(1 0 0 1 0 -702)">
			<stop  offset="0" style="stop-color:#F58631"/>
			<stop  offset="1" style="stop-color:#F2C23F"/>
		</linearGradient>
		<rect x="193.9" y="359.4" class="st39" width="75" height="9.1"/>
		
			<linearGradient id="SVGID_15_" gradientUnits="userSpaceOnUse" x1="148.7" y1="1048.35" x2="224" y2="1048.35" gradientTransform="matrix(1 0 0 1 0 -702)">
			<stop  offset="0" style="stop-color:#FF9F55"/>
			<stop  offset="1" style="stop-color:#FFD255"/>
		</linearGradient>
		<polygon class="st40" points="224,343.4 150.5,358.2 148.7,349.3 222.2,334.5 		"/>
		<path class="st41" d="M251.9,345.5c0,0-1,2.4-1.9,3.4c-0.9,0.9-4.1,2.6-4.2,5.5c-0.1,3.1,5.4,2.3,7.6,2.2c2.1-0.1,2.3-1.7,3.2-3.5
			c0.9-1.7,1.8-1.4,2-2.8s-0.6-4.6-0.6-4.6L251.9,345.5z"/>
		<g>
			<path class="st41" d="M299.5,361.1c0,0,2.9,3.2,6,3.9c3,0.7,5.1,1.6,5.1,3.4s-8.8,2.9-12.2,1c-5.1-2.8-5.7-2-6.2-3.3
				c-0.6-1.4,0.7-5,0.7-5.4C292.8,360.1,299.5,361.1,299.5,361.1z"/>
		</g>
		<g>
			<path class="st42" d="M292.6,270.5c0,0,2.9,22.8,4,30.5c1.4,9,1.8,16.5,2.2,21.1c0.5,5.9,1.1,36.7,1.4,38.4
				c0.3,1.7-8.2,0.8-8.2,0.8s-5.7-40-7.2-46.3c-1.4-5.8-5.1-29.8-6.5-28.2c-1.3,1.6-17.3,18.9-18.3,23.4c-1,4.6-1.8,35.3-1.8,35.3
				s-6.1,2.9-7.9,1.4c0,0-3.7-27-3-35.6c0.3-3.3,10-30.7,15.7-45.1C266.2,258.6,292.6,270.5,292.6,270.5z"/>
		</g>
		<path class="st37" d="M284.1,215.8c0,0,8.3,1.8,9.2,2.7c1.1,0.9,2.8,10,2.9,12.6c0.1,2.5-1.2,13.1-2.3,17
			c-1.1,3.9-1.1,24.5-0.7,27.7c0,0-16.7,3.1-33.1,0.7c0,0,3.1-17.8,2.5-23.2c-0.8-6.9-2.6-22.9-2.6-22.9s2.3-10.7,3.8-11.9
			s11.7-3.1,11.7-3.1L284.1,215.8z"/>
		<path class="st43" d="M281,190.1c0,0,10-3.6,9.2,9.7c-0.8,13.2-3.1,14.6-9.7,12.6c-6.5-1.9-7-10.3-7.8-14.3
			C271.9,194.1,277.7,190.7,281,190.1z"/>
		<path class="st43" d="M285.7,217.9c0,0-5.2,4.1-10.1-2.5c0,0,0.3-5.3-1.2-10.3s10.4,6.8,10.4,6.8c-0.1,0.1-0.2,0.6-0.1,1.3
			c0.1,0.6,0.2,1.3,0.4,2.1C285.4,216.9,285.3,216.6,285.7,217.9z"/>
		<path class="st44" d="M274,204.7c0,0,0-3.5,1.5-3.8s2.2,1.7,2.2,1.7h1.2c0,0-1-3.6,0.4-4.4c1.4-0.8,9.8,0,10.9-1.2
			s-0.4-8.4-2.7-9.1c-2.3-0.7-8.5-2.2-12.5,1.3c0,0-3.6,0-3.6,4.2C271.4,196.2,272.9,202.8,274,204.7z"/>
		<path class="st45" d="M285,215.2c-7.7-1.4-8.8-5.8-8.8-5.9c3,3.9,8.5,3.8,8.5,3.8C284.7,213.7,284.8,214.5,285,215.2z"/>
		<path class="st43" d="M277.2,199.4c-0.4-1.2-2.9-1.1-2.7,0.8c0.2,1.9,2.3,4.7,3.1,4.2C278.4,203.8,277.8,201,277.2,199.4z"/>
		<path class="st43" d="M272.9,216c0,0,4.6,9.5,11.5,8.8s3-7.3,2.3-8.4C286.6,216.4,282.5,213.7,272.9,216z"/>
	</g>
</g>
<g id="coin">
	<g>
		<g>
			<path class="st46" d="M225.4,246.4c-4.2-8.9-0.3-19.5,8.6-23.6c8.9-4.2,19.5-0.3,23.6,8.6c4.2,8.9,0.3,19.5-8.6,23.6
				C240.2,259.2,229.6,255.3,225.4,246.4z"/>
			<path class="st46" d="M250,254.5l-15-32.2c8.7-3.5,18.7,0.4,22.7,9C261.7,239.9,258.3,250.1,250,254.5z"/>
			<path class="st46" d="M225.4,246.4c-3.5-7.5-1.3-16.3,4.9-21.3l14.6,31.3C237.1,257.9,229,254,225.4,246.4z"/>
			<path class="st47" d="M229.3,244.6c-3.2-6.8-0.2-14.8,6.5-18c6.8-3.2,14.8-0.2,18,6.5c3.2,6.8,0.2,14.8-6.5,18
				C240.5,254.3,232.5,251.4,229.3,244.6z"/>
			<path class="st48" d="M236.9,239.2l-1.9,1.9l-1.9-1.9l1.9-1.9L236.9,239.2z M241.6,234.6l3.3,3.3l1.9-1.9l-3.3-3.3l-1.9-1.9
				l-1.9,1.9l-3.3,3.3l1.9,1.9L241.6,234.6z M248.1,237.3l-1.9,1.9l1.9,1.9l1.9-1.9L248.1,237.3z M241.6,243.9l-3.3-3.3l-1.9,1.9
				l3.3,3.3l1.9,1.9l1.9-1.9l3.3-3.3l-1.9-1.9L241.6,243.9z M241.6,241.1l1.9-1.9l-1.9-1.9l-1.9,1.9L241.6,241.1z"/>
			<path class="st49" d="M252.5,252.9c6.4-5,8.8-13.9,5.2-21.6c-3.6-7.7-11.9-11.6-19.9-9.9L252.5,252.9z"/>
			<path class="st49" d="M244.9,256.4l-14.6-31.3c1.1-0.9,2.4-1.7,3.7-2.3c0.3-0.2,0.6-0.3,1-0.4l15,32.2c-0.3,0.2-0.6,0.3-0.9,0.5
				C247.7,255.6,246.3,256.1,244.9,256.4z"/>
		</g>
		<g>
			<path class="st50" d="M278.6,269.5c-6.3-13.5-0.5-29.6,13-35.9c13.5-6.3,29.6-0.5,35.9,13s0.5,29.6-13,35.9
				S284.9,283,278.6,269.5z"/>
			<path class="st50" d="M315.9,281.8L293.1,233c13.2-5.2,28.3,0.6,34.4,13.7C333.6,259.6,328.4,275,315.9,281.8z"/>
			<path class="st50" d="M278.6,269.5c-5.4-11.4-2-24.7,7.4-32.4l22.2,47.4C296.3,286.8,284,280.9,278.6,269.5z"/>
			<path class="st51" d="M284.5,266.7c-4.8-10.3-0.4-22.5,9.9-27.3s22.5-0.4,27.3,9.9c4.8,10.3,0.4,22.5-9.9,27.3
				C301.5,281.4,289.3,277,284.5,266.7z"/>
			<g>
				<path class="st52" d="M302.8,264.5l0.2,0.2l9.5-5.6l-9.5-15.8l-0.2,0.7V264.5z"/>
				<path class="st53" d="M303,264.7v-21.4l-9.5,15.8L303,264.7z"/>
				<path class="st54" d="M302.9,273.9l0.1,0.3l9.5-13.4l-9.5,5.6l-0.1,0.1V273.9z"/>
				<path class="st53" d="M293.5,260.9l9.5,13.4v-7.8L293.5,260.9z"/>
				<path class="st55" d="M303,254.8v9.9l9.5-5.6L303,254.8z"/>
				<path class="st56" d="M303,254.8l-9.5,4.3l9.5,5.6V254.8z"/>
			</g>
			<path class="st49" d="M319.7,279.3c9.7-7.6,13.3-21.1,7.9-32.7c-5.4-11.6-18.1-17.6-30.2-15L319.7,279.3z"/>
			<path class="st49" d="M308.2,284.5L286,237.1c1.7-1.4,3.6-2.6,5.6-3.5c0.5-0.2,1-0.4,1.5-0.6l22.8,48.8c-0.5,0.3-0.9,0.5-1.4,0.7
				C312.4,283.4,310.3,284.1,308.2,284.5z"/>
		</g>
		<g>
			<path class="st57" d="M277.9,291.9c-4.2-8.9-0.3-19.5,8.6-23.6c8.9-4.2,19.5-0.3,23.6,8.6c4.2,8.9,0.3,19.5-8.6,23.6
				C292.6,304.7,282,300.8,277.9,291.9z"/>
			<path class="st58" d="M302.5,300l-15-32.2c8.7-3.5,18.7,0.4,22.7,9C314.1,285.4,310.7,295.6,302.5,300z"/>
			<path class="st58" d="M277.9,291.9c-3.5-7.5-1.3-16.3,4.9-21.3l14.6,31.3C289.6,303.4,281.4,299.5,277.9,291.9z"/>
			<path class="st59" d="M281.7,290.1c-3.2-6.8-0.2-14.8,6.5-18c6.8-3.2,14.8-0.2,18,6.5c3.2,6.8,0.2,14.8-6.5,18
				C293,299.8,284.9,296.9,281.7,290.1z"/>
			<path class="st60" d="M296.4,286.7L296.4,286.7c-0.1,0-0.6,0-1.8,0c-0.9,0-1.6,0-1.8,0l0,0c-3.5-0.2-6.1-0.8-6.1-1.5
				s2.6-1.3,6.1-1.5v2.4c0.2,0,0.9,0.1,1.8,0.1c1.1,0,1.6,0,1.7-0.1v-2.4c3.5,0.2,6.1,0.8,6.1,1.5S299.9,286.6,296.4,286.7
				 M296.4,283.5v-2.1h4.9v-3.3H288v3.3h4.9v2.1c-4,0.2-7,1-7,1.9s3,1.7,7,1.9v6.9h3.5v-6.9c4-0.2,7-1,7-1.9
				S300.4,283.7,296.4,283.5"/>
			<path class="st49" d="M304.9,298.4c6.4-5,8.8-13.9,5.2-21.6c-3.6-7.7-11.9-11.6-19.9-9.9L304.9,298.4z"/>
			<path class="st49" d="M297.4,301.9l-14.6-31.3c1.1-0.9,2.4-1.7,3.7-2.3c0.3-0.2,0.6-0.3,1-0.4l15,32.2c-0.3,0.2-0.6,0.3-0.9,0.5
				C300.2,301.1,298.8,301.6,297.4,301.9z"/>
		</g>
		<g>
			<path class="st61" d="M229.4,285.5c-7.5-16-0.6-35.1,15.5-42.6c16-7.5,35.1-0.6,42.6,15.5c7.5,16,0.6,35.1-15.5,42.6
				C256,308.4,236.9,301.5,229.4,285.5z"/>
			<path class="st61" d="M273.8,300.1l-27.1-58c15.7-6.2,33.6,0.8,40.9,16.2C294.8,273.8,288.6,292.1,273.8,300.1z"/>
			<path class="st61" d="M229.4,285.5c-6.4-13.6-2.3-29.4,8.8-38.4l26.3,56.3C250.5,306.1,235.8,299.1,229.4,285.5z"/>
			<path class="st62" d="M236.4,282.2c-5.7-12.2-0.4-26.7,11.8-32.4s26.7-0.4,32.4,11.8c5.7,12.2,0.4,26.7-11.8,32.4
				C256.6,299.7,242.1,294.4,236.4,282.2z"/>
			<path class="st51" d="M270.8,268.9c0.6-3.7-2.3-5.7-6.1-7l1.2-5l-3-0.8l-1.2,4.9c-0.8-0.2-1.6-0.4-2.4-0.6l1.2-4.9l-3-0.8l-1.2,5
				l-6.1-1.5l-0.8,3.2c0,0,2.3,0.5,2.2,0.5c1.2,0.3,1.5,1.1,1.4,1.8l-3.4,13.7c-0.2,0.4-0.5,0.9-1.4,0.7l-2.2-0.6l-1.5,3.5l6.1,1.5
				l-1.3,5.1l3,0.8l1.2-5c0.8,0.2,1.6,0.4,2.4,0.6l-1.2,5l3,0.8l1.3-5c5.2,1,9.1,0.6,10.7-4.1c1.3-3.8-0.1-6-2.8-7.4
				C268.9,272.9,270.4,271.6,270.8,268.9 M263.9,278.6c-0.9,3.8-7.3,1.7-9.4,1.2l1.7-6.7C258.3,273.7,264.9,274.7,263.9,278.6
				 M264.8,268.8c-0.9,3.4-6.1,1.7-7.9,1.3l1.5-6.1C260.2,264.4,265.7,265.2,264.8,268.8"/>
			<path class="st49" d="M278.2,297.2c11.6-9,15.8-25.1,9.3-38.9c-6.5-13.8-21.5-20.9-35.8-17.8L278.2,297.2z"/>
			<path class="st63" d="M264.6,303.4L238.2,247c2-1.6,4.2-3,6.7-4.2c0.6-0.3,1.2-0.5,1.8-0.8l27.1,58c-0.6,0.3-1.1,0.6-1.7,0.9
				C269.6,302.1,267.1,302.9,264.6,303.4z"/>
		</g>
	</g>
</g>
<g id="hand2">
	<g>
		<path class="st64" d="M251.2,284.3c0,0-0.3-0.8-0.3-1.3c0,0,0.1-0.8,0.2-1.3c0-0.2,0-0.3,0-0.4c0-0.4-0.2-1.3,0.1-2.4
			c0.2-1,1.5-4.6,1.5-4.6l3.2,0.5l2.8-0.3c0,0,2,6.1,1.9,7.1c0,0.1,0,0.2,0,0.3c-0.2,0.8-0.7,1.4-0.8,1.8c-0.1,0.2-0.7,1.7-1.2,1.8
			c-0.6,0.2-1.2,0.1-1.5-0.2c0,0-1.3,0.3-2.1-0.1c0,0-1.2,0.3-2-0.4C252.8,284.7,251.6,284.9,251.2,284.3z"/>
		<path class="st37" d="M266,219.2c1.1,0.4,2.2,3.1,1.3,8.2c-1,5.5-2.8,7.9-3.6,9.2c-0.8,1.3-5.4,9.9-5.4,11.1
			c0,3.3-0.2,12.1-0.1,12.8c0.2,1.1,0.7,14.4,0.7,14.4l-7,1.6c0,0-1.2-14.9-1.8-19.4c-0.2-1.8-0.7-6.8,0-11.7
			c0.7-4.8,4.2-15.2,4.7-16.1C255.3,228.4,258.8,216.4,266,219.2z"/>
	</g>
</g>
<g id="hand3_1_">
	<g>
		<path class="st65" d="M337.3,180.1c-0.2-0.7-1.2-1.6-1.3-0.7c-0.1,0.8,0.5,3.4,0.4,4C336.3,184,337.3,180.1,337.3,180.1z"/>
		<path class="st36" d="M336.5,171.6c0,0,3.4,7.4,3.3,9.7c-0.1,2.2,0.1,7.7-1.5,7.9s-2.6-0.2-2.7-2.6c-0.2-2.4,1.8-6.6,1.6-8
			C336.9,177,334.6,170.5,336.5,171.6z"/>
		<path class="st36" d="M339.5,186.2c0,0,1.1,6.7,2.9,9.4s-4.5,2-4.5,2l-1.4-9.3L339.5,186.2z"/>
		<g>
			<path class="st8" d="M365.5,234c0,0,1-3.7-0.6-6.5s-4.9-5-5.9-5.9s-9.8-11.3-10-11.7c-0.1-0.5-2.2-7.4-4.3-11.6
				c-2-4.1-4.1-9.5-4.1-9.5l-4.8,2.7c0,0,3.6,16.7,6.3,20.4c2.8,4,17.1,22.5,17.1,22.5S362.1,239,365.5,234z"/>
		</g>
	</g>
</g>
<g id="person3">
	<g>
		<path class="st66" d="M367.4,196.9c0,0,10.9-6.7,23,6.4c6.4,7,21.4,5.7,22.8,3.8c0.8-1.1-1.3,4.9-6.4,8.8
			c-4.5,3.4-10.7,7.1-23.3,2.7c-12.6-4.4-16-0.6-16-0.6v-21.1L367.4,196.9L367.4,196.9z"/>
		<g>
			<g>
				<path class="st67" d="M353.3,317.5c1.1,2.3,16.3,23.2,17.2,25.5c0.9,2.4,7.2,12.3,7.2,12.3l3.9-2.7c0,0-4.8-13.7-8.8-23.3l0,0
					c-0.4-0.9-0.8-1.8-1.1-2.7c-1.4-3.3-2.7-5.8-3.4-6.5c-2.9-2.8-7.1-6.7-4.8-9.9c2.3-3.2,11.9-20.5,12.2-22.3
					c0.4-1.8,13.9-26.2-14.9-16.2c0,0-5,15.2-5.7,26.4C354.4,309.4,352.2,315.2,353.3,317.5z"/>
			</g>
		</g>
		<g>
			<g>
				<path class="st68" d="M377.7,355.3c0,0,0.3,2.2-0.3,3.5c-0.5,1.3-1.6,7-3.2,7.7c-1.6,0.8-4.9,1.3-4.9,1.5c0,1.2,0.9,1.9,4.3,1.9
					s6.6-4.3,8.9-7.3c2.3-3.1,5.2-4.5,3.4-6.6c-1.9-2.1-4.5-4.4-4.9-4.8C380.8,350.9,377.7,355.3,377.7,355.3z"/>
			</g>
		</g>
		<g>
			<g>
				<path class="st43" d="M389.2,269.6c0,0,4.9,10.4,1.5,17.1c-3.4,6.6-16.1,21.5-17.3,23.9c-1.2,2.4-3.8,5.6-1.7,6.3
					c2.7,0.9,6.1,1.6,11.1,4.9c3.3,2.2,8.8,3.2,12.4,4.9c1.4,0.7,1.8,4.1,0.2,4.9c-1.2,0.6-29.8-5.7-34.1-8.5
					c-1.8-1.2-1.8-4,0.4-11.7c1-3.5,5.5-14.8,6.9-19c1.3-4.1,3.9-10.2,3.9-10.2S370.3,257,389.2,269.6z"/>
			</g>
		</g>
		<g>
			<g>
				<path class="st43" d="M395.1,331.5c0,0,2.8-0.1,4,0.1c1.3,0.2,6.3,0.4,7.7,0.8c1.4,0.3,2.3,2,3.1,1.6c0.8-0.4-0.6-2.4-2.2-3.6
					s-6.2-4.4-8.4-6.5c-2.3-2.2-3.5-2.5-4.7-0.6s-2.3,4.9-2.8,5.7C391.2,329.7,395.1,331.5,395.1,331.5z"/>
			</g>
		</g>
		<path class="st69" d="M353.5,307c0,0-2.8,3.1,21.3,3.1c0,0,24.2-22.9,16.6-37.3c-4-7.6-29.7-2.9-29.7-2.9S358.2,274.5,353.5,307z"
			/>
		<g>
			<path class="st42" d="M370.9,223.7c0,0-3.7,1.8-5,2c-1.3,0.3-6.3,6.8-7.2,9.2c-0.9,2.4,0,6,1.8,10.2s0.1,5.6,0.9,9.8
				c0.8,4.2,1.6,13.1,1.4,15.4s21,2.8,25.8-1.5c0,0-4.8-7.3-5.5-8.3c-0.6-1-0.1-6.7,0.5-8.1c0.6-1.5,4.5-13,4.5-13s3-10.2,0.2-12.4
				c-2.4-1.9-9.1-2.6-10.3-3C376.8,223.5,373.3,223.4,370.9,223.7z"/>
		</g>
		<g>
			<path class="st43" d="M375.6,197.2c-2.2-0.8-10.4-2.7-12.3,7.7s3.8,17.8,9.1,15.9c5.3-2,8.6-9.2,8.9-14.7
				C381.6,200.6,378.4,198.2,375.6,197.2z"/>
		</g>
		<g>
			<path class="st66" d="M363.3,204.9c0,0-0.4-8.9,8.5-9.2s11.3,7,10.5,12.3c-0.7,5.3-4.4,8.1-4.4,8.1s0.3-4.3-1.4-5.4
				c-1.7-1.1-8.6-3.3-11.6-8.5C364.9,202.2,363.5,203.8,363.3,204.9z"/>
		</g>
		<g>
			<path class="st43" d="M369.1,219.4c0,0,0.7,6.9,0.6,9.1c0,0,3.9,3.9,8.3-4.5c0,0-1.9-3.5-0.5-8.2
				C378.9,211,369.1,219.4,369.1,219.4z"/>
		</g>
		<g>
			<path class="st8" d="M368.8,273.4c1.8,8.4,24.3-1.2,24.3-1.2s-12-9-8.7-20.1c0.4-1.3,2.4-6.8,2.8-8c0.3-0.9,0.5-1.8,0.8-2.6
				c2.1-7.5,4.3-10.4,4.3-10.4s-2.3-4.9-6.8-5.9c-3.5-0.8-6.8-1.2-6.8-1.2s-12.1,16.1-12.3,19.6C366.1,247.2,367,265,368.8,273.4z"
				/>
		</g>
		<g>
			<path class="st43" d="M375.6,208.8c0.3-0.8,1.4-1,2-0.6c0.6,0.5,1,1.9,0,3.7C376.7,213.8,373.2,215,375.6,208.8z"/>
		</g>
		<g>
			<path class="st45" d="M369.3,220.9l0.1,1.3c0,0,3.1,0.6,7.1-4.3C376.5,217.9,373.7,221.4,369.3,220.9z"/>
		</g>
		<path class="st42" d="M377.4,222.3c0,0-3.9,1.7-7.9,0.7l-0.3,2v8.1c0,0,7.2-5.7,7.1-5.9c0-0.3,2-3,2-3L377.4,222.3z"/>
		<path class="st69" d="M369.3,368c0,0-0.2-1.5,4.5-1.5c2.7,0,7.8-6,8.3-6.7s1.8-4.9,2.6-5s3.4,2.8,0.8,5.5s-6.6,9.7-11.8,9.7
			C369.5,370,369.2,368.8,369.3,368z"/>
		<path class="st69" d="M394,324.3c0,0,1-4.3,4.2-1.6c3.2,2.6,5.9,5.3,9.4,7.5c3.5,2.3,3.2,3.7,2.2,4.2c-1,0.6-3.3-1.5-4.6-2.2
			C403.7,331.4,401.3,327.7,394,324.3z"/>
		<path class="st8" d="M368.4,224.9c0,0-4.3,11.2-2,18.6l2.4,29.8v0.1l0,0c0,0-0.6,2.7-4.5,1.9l0,0l0,0h-0.1
			c-3.8-0.8-4.5-3.1-4.5-3.1s2-8.6,2.1-11.5c0.1-3-0.5-14.1-0.5-14.1c-3.7-7.4-2.7-10.7-2.7-10.7c1.7-6,6.7-10,6.7-10L368.4,224.9z"
			/>
		<path class="st70" d="M383.4,237.1l3.7,7.1c0.3-0.9,0.5-1.8,0.8-2.6C387.9,241.6,384.5,237.4,383.4,237.1z"/>
		<path class="st45" d="M371.6,326.5c0,0-7.7-2.3-9.6-3.1c1.8,0.9,9.9,5.2,10.7,5.8C372.4,328.3,372,327.4,371.6,326.5z"/>
		<g>
			<g>
				<path class="st7" d="M410.7,293c-3.1,0.2-5.7-2.6-5.9-6.2c-0.2-3.6,2.1-6.6,5.2-6.8c3.1-0.2,5.7,2.6,5.9,6.2
					C416.1,289.8,413.7,292.8,410.7,293z M410,280.5c-2.8,0.2-5,3-4.8,6.4c0.2,3.3,2.7,5.9,5.5,5.8c2.8-0.2,5-3,4.8-6.4
					S412.8,280.3,410,280.5z"/>
			</g>
		</g>
		<g>
			
				<linearGradient id="SVGID_16_" gradientUnits="userSpaceOnUse" x1="397.2" y1="1001.65" x2="424.9" y2="1001.65" gradientTransform="matrix(1 0 0 1 0 -702)">
				<stop  offset="0" style="stop-color:#FF9F55"/>
				<stop  offset="1" style="stop-color:#FFD255"/>
			</linearGradient>
			<polygon class="st71" points="424.9,312 398.7,313.5 397.2,287.3 423.4,285.8 			"/>
		</g>
		<g>
			<g>
				<g>
					<g>
						<g>
							<path class="st43" d="M413.1,284c0,0,0.1-0.7,0-1c0,0-0.2-0.6-0.3-1c0-0.1-0.1-0.2-0.1-0.3c0-0.3-0.1-1-0.4-1.8
								c-0.3-0.7-2.5-3.5-2.5-3.5l-1.8,0.8l-1.8,0.5c0,0-0.6,4.8-0.4,5.6c0,0.1,0,0.1,0.1,0.2c0.2,0.6,0.7,0.9,0.8,1.2
								c0.1,0.1,0.7,1.1,1.1,1.2c0.5,0.1,0.9-0.1,1.1-0.4c0,0,1,0.1,1.5-0.3c0,0,0.9,0.1,1.5-0.6C412,284.6,412.9,284.5,413.1,284z"
								/>
						</g>
					</g>
				</g>
			</g>
		</g>
		<g>
			<path class="st8" d="M379.1,225.9c0,0-2.1,3.1-0.3,6.2c1.7,3.1,5.4,5.6,6.6,6.6c1.1,1,10.9,12.6,11,13.1s3.6,9.5,5.2,14.3
				c1.6,4.7,3.6,12.3,3.6,12.3l5.5-1.8c0,0-4.4-23-7.6-27c-3.2-3.9-10.8-18.3-10.8-18.3S386.5,222.3,379.1,225.9z"/>
		</g>
	</g>
</g>
<g id="brand">
	<g id="Layer_3">
	</g>
	<g>
		
			<linearGradient id="SVGID_17_" gradientUnits="userSpaceOnUse" x1="140.5791" y1="44.9314" x2="189.3" y2="44.9314" gradientTransform="matrix(1 0 0 -1 0 378)">
			<stop  offset="0" style="stop-color:#DF3030"/>
			<stop  offset="0.4018" style="stop-color:#DD3030"/>
			<stop  offset="0.5465" style="stop-color:#D63030"/>
			<stop  offset="0.6496" style="stop-color:#CB3030"/>
			<stop  offset="0.733" style="stop-color:#BA3030"/>
			<stop  offset="0.8036" style="stop-color:#A43030"/>
			<stop  offset="0.8193" style="stop-color:#9E3030"/>
			<stop  offset="1" style="stop-color:#DF3030"/>
		</linearGradient>
		<path class="st72" d="M189.3,330c-0.3-0.8-5-1.5-13.3,0.8s-30.4,3.5-33.1,3.8c-2.7,0.3-2.3,1.7-2.3,1.7s0,0.2,0,0.6
			c4.9-0.3,30.4-2.1,41.2-4.7c3.6-0.9,6-0.6,7.5,0.2L189.3,330z"/>
		<path class="st73" d="M142.5,313.2c0,0,14.4-13.3,32.6,1.3l-30.4,9.8c0,0-4.2-1.6-6-6.2C137,313.5,142.5,313.2,142.5,313.2z"/>
		<path class="st74" d="M130.8,323c0,0,4.9-9.8,12.9-12.9c0,0,10-1.1,2.7,6.7C146.3,316.8,140.5,321.9,130.8,323z"/>
		<path class="st74" d="M129.5,326.1c0,0-8,22.1,12.4,34l-0.4-19.6C141.4,340.5,132.3,328.1,129.5,326.1z"/>
		<path class="st74" d="M147.9,336.1c-0.2-0.7-10.9-10.4,3.5-18.2c14.4-7.8,22.4-6,26.6-0.4c4.2,5.5,6,9.5,5.8,12.6
			s-29.9,10.2-29.9,10.2L147.9,336.1z"/>
		<path class="st25" d="M189.3,330l0.2,32.6c0,0-0.7,3.7-16.1,4.2s-31.9,0.3-31.9,0.3s-0.8,0-1-2.5s0.2-28.3,0.2-28.3
			s-0.3-1.3,2.3-1.7c2.7-0.3,24.8-1.5,33.1-3.8S189,329.1,189.3,330z"/>
		<path class="st75" d="M141.4,366.3c0,0,10.1,1.3,20.5-0.6s18.6-3.3,21.8-3.5s7.2-0.2,4.5,1.6c-2.7,1.8-17.4,3.2-24.4,3.3
			c-7,0.1-22.5,0-22.5,0L141.4,366.3z"/>
		<g>
			
				<linearGradient id="SVGID_18_" gradientUnits="userSpaceOnUse" x1="140.5" y1="39.75" x2="189.3245" y2="39.75" gradientTransform="matrix(1 0 0 -1 0 378)">
				<stop  offset="0" style="stop-color:#DF3030"/>
				<stop  offset="0.4018" style="stop-color:#DD3030"/>
				<stop  offset="0.5465" style="stop-color:#D63030"/>
				<stop  offset="0.6496" style="stop-color:#CB3030"/>
				<stop  offset="0.733" style="stop-color:#BA3030"/>
				<stop  offset="0.8036" style="stop-color:#A43030"/>
				<stop  offset="0.8193" style="stop-color:#9E3030"/>
				<stop  offset="1" style="stop-color:#DF3030"/>
			</linearGradient>
			<path class="st76" d="M160.7,340.6c0,0,11.3-1.7,20.4-3.4c9.1-1.7,8.2,0.6,8.2,0.6l0,0v-3.1c-1.5-0.6-4.1-0.8-8.7,0.2
				c-10.5,2.4-34.4,4.6-40.1,5.1c0,0.7,0,1.5,0,2.3L160.7,340.6z"/>
			
				<linearGradient id="SVGID_19_" gradientUnits="userSpaceOnUse" x1="140.5" y1="44.75" x2="189.3245" y2="44.75" gradientTransform="matrix(1 0 0 -1 0 378)">
				<stop  offset="0" style="stop-color:#DF3030"/>
				<stop  offset="0.4018" style="stop-color:#DD3030"/>
				<stop  offset="0.5465" style="stop-color:#D63030"/>
				<stop  offset="0.6496" style="stop-color:#CB3030"/>
				<stop  offset="0.733" style="stop-color:#BA3030"/>
				<stop  offset="0.8036" style="stop-color:#A43030"/>
				<stop  offset="0.8193" style="stop-color:#9E3030"/>
				<stop  offset="1" style="stop-color:#DF3030"/>
			</linearGradient>
			<path class="st77" d="M160.7,335.6c0,0,11.3-1.7,20.4-3.4c9.1-1.7,8.2,0.6,8.2,0.6l0,0v-3.1c-1.5-0.6-4.1-0.8-8.7,0.2
				c-10.5,2.4-34.4,4.6-40.1,5.1c0,0.7,0,1.5,0,2.3L160.7,335.6z"/>
			
				<linearGradient id="SVGID_20_" gradientUnits="userSpaceOnUse" x1="140.4466" y1="34.75" x2="189.3466" y2="34.75" gradientTransform="matrix(1 0 0 -1 0 378)">
				<stop  offset="0" style="stop-color:#DF3030"/>
				<stop  offset="0.4018" style="stop-color:#DD3030"/>
				<stop  offset="0.5465" style="stop-color:#D63030"/>
				<stop  offset="0.6496" style="stop-color:#CB3030"/>
				<stop  offset="0.733" style="stop-color:#BA3030"/>
				<stop  offset="0.8036" style="stop-color:#A43030"/>
				<stop  offset="0.8193" style="stop-color:#9E3030"/>
				<stop  offset="1" style="stop-color:#DF3030"/>
			</linearGradient>
			<path class="st78" d="M181.1,342.2c9.1-1.7,8.2,0.6,8.2,0.6h0.1v-3.1c-1.5-0.6-4.1-0.8-8.7,0.2c-10.6,2.4-34.6,4.6-40.2,5.1
				c0,0.8,0,1.5,0,2.3l20.3-1.7C160.7,345.6,172,343.9,181.1,342.2z"/>
			<path class="st79" d="M189.4,359.7c-1.5-0.7-4.1-0.9-8.8,0.2c-10.6,2.4-34.7,4.6-40.2,5.1c0.2,2,1,2,1,2s0.8,0,2.3,0l17-1.4
				c0,0,11.3-1.7,20.4-3.4c9.1-1.7,8.2,0.6,8.2,0.6h0.1c0.1-0.1,0.1-0.2,0.1-0.2L189.4,359.7z"/>
			
				<linearGradient id="SVGID_21_" gradientUnits="userSpaceOnUse" x1="140.3587" y1="19.7875" x2="189.4587" y2="19.7875" gradientTransform="matrix(1 0 0 -1 0 378)">
				<stop  offset="0" style="stop-color:#DF3030"/>
				<stop  offset="0.4018" style="stop-color:#DD3030"/>
				<stop  offset="0.5465" style="stop-color:#D63030"/>
				<stop  offset="0.6496" style="stop-color:#CB3030"/>
				<stop  offset="0.733" style="stop-color:#BA3030"/>
				<stop  offset="0.8036" style="stop-color:#A43030"/>
				<stop  offset="0.8193" style="stop-color:#9E3030"/>
				<stop  offset="1" style="stop-color:#DF3030"/>
			</linearGradient>
			<path class="st80" d="M181.1,357.2c9.1-1.7,8.2,0.6,8.2,0.6h0.1v-3.1c-1.5-0.7-4.1-0.9-8.8,0.2c-10.6,2.5-35,4.7-40.3,5.1
				c0,0.9,0,1.7,0,2.3l20.4-1.7C160.7,360.6,172,358.9,181.1,357.2z"/>
			
				<linearGradient id="SVGID_22_" gradientUnits="userSpaceOnUse" x1="140.4" y1="24.7875" x2="189.4" y2="24.7875" gradientTransform="matrix(1 0 0 -1 0 378)">
				<stop  offset="0" style="stop-color:#DF3030"/>
				<stop  offset="0.4018" style="stop-color:#DD3030"/>
				<stop  offset="0.5465" style="stop-color:#D63030"/>
				<stop  offset="0.6496" style="stop-color:#CB3030"/>
				<stop  offset="0.733" style="stop-color:#BA3030"/>
				<stop  offset="0.8036" style="stop-color:#A43030"/>
				<stop  offset="0.8193" style="stop-color:#9E3030"/>
				<stop  offset="1" style="stop-color:#DF3030"/>
			</linearGradient>
			<path class="st81" d="M181.1,352.2c9.1-1.7,8.2,0.6,8.2,0.6h0.1v-3.1c-1.5-0.7-4.1-0.9-8.7,0.2c-10.6,2.5-34.9,4.7-40.3,5.1
				c0,0.8,0,1.6,0,2.3l20.3-1.7C160.7,355.6,172,353.9,181.1,352.2z"/>
			
				<linearGradient id="SVGID_23_" gradientUnits="userSpaceOnUse" x1="140.4012" y1="29.7875" x2="189.3796" y2="29.7875" gradientTransform="matrix(1 0 0 -1 0 378)">
				<stop  offset="0" style="stop-color:#DF3030"/>
				<stop  offset="0.4018" style="stop-color:#DD3030"/>
				<stop  offset="0.5465" style="stop-color:#D63030"/>
				<stop  offset="0.6496" style="stop-color:#CB3030"/>
				<stop  offset="0.733" style="stop-color:#BA3030"/>
				<stop  offset="0.8036" style="stop-color:#A43030"/>
				<stop  offset="0.8193" style="stop-color:#9E3030"/>
				<stop  offset="1" style="stop-color:#DF3030"/>
			</linearGradient>
			<path class="st82" d="M181.1,347.2c9.1-1.7,8.2,0.6,8.2,0.6h0.1v-3.1c-1.5-0.7-4.1-0.9-8.7,0.2c-10.6,2.5-34.8,4.6-40.2,5.1
				c0,0.8,0,1.6,0,2.3l20.3-1.7C160.7,350.6,172,348.9,181.1,347.2z"/>
		</g>
		<g>
			<path class="st73" d="M140.6,336.3c0,0-0.1,8-0.2,15.6c6.9,0.7,23.6-1.8,23.6-1.8l0.2-17.3c-9.2,1-19.5,1.6-21.3,1.9
				C140.2,335,140.6,336.3,140.6,336.3z"/>
		</g>
		<polygon class="st25" points="142,335.4 142.3,336 142.9,336.1 142.4,336.5 142.5,337.1 142,336.8 141.5,337.1 141.6,336.5 
			141.1,336.1 141.7,336 		"/>
		<polygon class="st25" points="142,339 142.3,339.5 142.9,339.6 142.4,340 142.5,340.6 142,340.3 141.5,340.6 141.6,340 
			141.1,339.6 141.7,339.5 		"/>
		<polygon class="st25" points="142,342.4 142.3,343 142.9,343 142.4,343.5 142.5,344.1 142,343.8 141.5,344.1 141.6,343.5 
			141.1,343 141.7,343 		"/>
		<polygon class="st25" points="142,345.9 142.3,346.4 142.9,346.5 142.4,346.9 142.5,347.5 142,347.3 141.5,347.5 141.6,346.9 
			141.1,346.5 141.7,346.4 		"/>
		<polygon class="st25" points="142,349.4 142.3,349.9 142.9,350 142.4,350.4 142.5,351 142,350.7 141.5,351 141.6,350.4 141.1,350 
			141.7,349.9 		"/>
		<polygon class="st25" points="146.1,335.4 146.4,336 147,336.1 146.5,336.5 146.6,337.1 146.1,336.8 145.6,337.1 145.7,336.5 
			145.2,336.1 145.8,336 		"/>
		<polygon class="st25" points="146.1,339 146.4,339.5 147,339.6 146.5,340 146.6,340.6 146.1,340.3 145.6,340.6 145.7,340 
			145.2,339.6 145.8,339.5 		"/>
		<polygon class="st25" points="146.1,342.4 146.4,343 147,343 146.5,343.5 146.6,344.1 146.1,343.8 145.6,344.1 145.7,343.5 
			145.2,343 145.8,343 		"/>
		<polygon class="st25" points="146.1,345.9 146.4,346.4 147,346.5 146.5,346.9 146.6,347.5 146.1,347.3 145.6,347.5 145.7,346.9 
			145.2,346.5 145.8,346.4 		"/>
		<polygon class="st25" points="146.1,349.4 146.4,349.9 147,350 146.5,350.4 146.6,351 146.1,350.7 145.6,351 145.7,350.4 
			145.2,350 145.8,349.9 		"/>
		<polygon class="st25" points="150.3,335.1 150.6,335.7 151.2,335.7 150.7,336.2 150.8,336.8 150.3,336.5 149.8,336.8 149.9,336.2 
			149.4,335.7 150,335.7 		"/>
		<polygon class="st25" points="150.3,338.7 150.6,339.2 151.2,339.3 150.7,339.7 150.8,340.3 150.3,340 149.8,340.3 149.9,339.7 
			149.4,339.3 150,339.2 		"/>
		<polygon class="st25" points="150.3,342.1 150.6,342.6 151.2,342.7 150.7,343.2 150.8,343.7 150.3,343.5 149.8,343.7 149.9,343.2 
			149.4,342.7 150,342.6 		"/>
		<polygon class="st25" points="150.3,345.6 150.6,346.1 151.2,346.2 150.7,346.6 150.8,347.2 150.3,346.9 149.8,347.2 149.9,346.6 
			149.4,346.2 150,346.1 		"/>
		<polygon class="st25" points="150.3,349.1 150.6,349.6 151.2,349.7 150.7,350.1 150.8,350.7 150.3,350.4 149.8,350.7 149.9,350.1 
			149.4,349.7 150,349.6 		"/>
		<polygon class="st25" points="154.5,334.8 154.8,335.3 155.4,335.4 154.9,335.8 155,336.4 154.5,336.1 154,336.4 154.1,335.8 
			153.6,335.4 154.2,335.3 		"/>
		<polygon class="st25" points="154.5,338.3 154.8,338.9 155.4,338.9 154.9,339.4 155,340 154.5,339.7 154,340 154.1,339.4 
			153.6,338.9 154.2,338.9 		"/>
		<polygon class="st25" points="154.5,341.8 154.8,342.3 155.4,342.4 154.9,342.8 155,343.4 154.5,343.1 154,343.4 154.1,342.8 
			153.6,342.4 154.2,342.3 		"/>
		<polygon class="st25" points="154.5,345.2 154.8,345.8 155.4,345.9 154.9,346.3 155,346.9 154.5,346.6 154,346.9 154.1,346.3 
			153.6,345.9 154.2,345.8 		"/>
		<polygon class="st25" points="154.5,348.7 154.8,349.3 155.4,349.4 154.9,349.8 155,350.4 154.5,350.1 154,350.4 154.1,349.8 
			153.6,349.4 154.2,349.3 		"/>
		<polygon class="st25" points="158.6,334.3 158.9,334.8 159.5,334.9 159,335.3 159.1,335.9 158.6,335.7 158.1,335.9 158.2,335.3 
			157.7,334.9 158.3,334.8 		"/>
		<polygon class="st25" points="158.6,337.8 158.9,338.4 159.5,338.4 159,338.9 159.1,339.5 158.6,339.2 158.1,339.5 158.2,338.9 
			157.7,338.4 158.3,338.4 		"/>
		<polygon class="st25" points="158.6,341.3 158.9,341.8 159.5,341.9 159,342.3 159.1,342.9 158.6,342.6 158.1,342.9 158.2,342.3 
			157.7,341.9 158.3,341.8 		"/>
		<polygon class="st25" points="158.6,344.7 158.9,345.3 159.5,345.4 159,345.8 159.1,346.4 158.6,346.1 158.1,346.4 158.2,345.8 
			157.7,345.4 158.3,345.3 		"/>
		<polygon class="st25" points="158.6,348.2 158.9,348.8 159.5,348.9 159,349.3 159.1,349.9 158.6,349.6 158.1,349.9 158.2,349.3 
			157.7,348.9 158.3,348.8 		"/>
		<polygon class="st25" points="162.9,333.8 163.1,334.3 163.7,334.4 163.3,334.8 163.4,335.4 162.9,335.2 162.3,335.4 162.4,334.8 
			162,334.4 162.6,334.3 		"/>
		<polygon class="st25" points="162.9,337.3 163.1,337.9 163.7,338 163.3,338.4 163.4,339 162.9,338.7 162.3,339 162.4,338.4 
			162,338 162.6,337.9 		"/>
		<polygon class="st25" points="162.9,340.8 163.1,341.3 163.7,341.4 163.3,341.8 163.4,342.4 162.9,342.1 162.3,342.4 162.4,341.8 
			162,341.4 162.6,341.3 		"/>
		<polygon class="st25" points="162.9,344.2 163.1,344.8 163.7,344.9 163.3,345.3 163.4,345.9 162.9,345.6 162.3,345.9 162.4,345.3 
			162,344.9 162.6,344.8 		"/>
		<polygon class="st25" points="162.9,347.7 163.1,348.3 163.7,348.4 163.3,348.8 163.4,349.4 162.9,349.1 162.3,349.4 162.4,348.8 
			162,348.4 162.6,348.3 		"/>
		<polygon class="st25" points="144.1,337.2 144.4,337.7 145,337.8 144.5,338.2 144.6,338.8 144.1,338.5 143.6,338.8 143.7,338.2 
			143.2,337.8 143.8,337.7 		"/>
		<polygon class="st25" points="144.1,340.6 144.4,341.2 145,341.2 144.5,341.7 144.6,342.3 144.1,342 143.6,342.3 143.7,341.7 
			143.2,341.2 143.8,341.2 		"/>
		<polygon class="st25" points="144.1,344.1 144.4,344.6 145,344.7 144.5,345.1 144.6,345.7 144.1,345.4 143.6,345.7 143.7,345.1 
			143.2,344.7 143.8,344.6 		"/>
		<polygon class="st25" points="144.1,347.6 144.4,348.1 145,348.2 144.5,348.6 144.6,349.2 144.1,348.9 143.6,349.2 143.7,348.6 
			143.2,348.2 143.8,348.1 		"/>
		<polygon class="st25" points="148.2,337 148.5,337.6 149.1,337.7 148.6,338.1 148.7,338.7 148.2,338.4 147.7,338.7 147.8,338.1 
			147.3,337.7 147.9,337.6 		"/>
		<polygon class="st25" points="148.2,340.5 148.5,341 149.1,341.1 148.6,341.5 148.7,342.1 148.2,341.8 147.7,342.1 147.8,341.5 
			147.3,341.1 147.9,341 		"/>
		<polygon class="st25" points="148.2,344 148.5,344.5 149.1,344.6 148.6,345 148.7,345.6 148.2,345.3 147.7,345.6 147.8,345 
			147.3,344.6 147.9,344.5 		"/>
		<polygon class="st25" points="148.2,347.5 148.5,348 149.1,348.1 148.6,348.5 148.7,349.1 148.2,348.8 147.7,349.1 147.8,348.5 
			147.3,348.1 147.9,348 		"/>
		<polygon class="st25" points="152.4,336.7 152.7,337.2 153.3,337.3 152.8,337.8 152.9,338.3 152.4,338.1 151.9,338.3 152,337.8 
			151.5,337.3 152.1,337.2 		"/>
		<polygon class="st25" points="152.4,340.2 152.7,340.7 153.3,340.8 152.8,341.2 152.9,341.8 152.4,341.5 151.9,341.8 152,341.2 
			151.5,340.8 152.1,340.7 		"/>
		<polygon class="st25" points="152.4,343.6 152.7,344.2 153.3,344.3 152.8,344.7 152.9,345.3 152.4,345 151.9,345.3 152,344.7 
			151.5,344.3 152.1,344.2 		"/>
		<polygon class="st25" points="152.4,347.1 152.7,347.7 153.3,347.7 152.8,348.2 152.9,348.8 152.4,348.5 151.9,348.8 152,348.2 
			151.5,347.7 152.1,347.7 		"/>
		<polygon class="st25" points="156.6,336.4 156.8,336.9 157.4,337 157,337.4 157.1,338 156.6,337.7 156,338 156.1,337.4 155.7,337 
			156.3,336.9 		"/>
		<polygon class="st25" points="156.6,339.8 156.8,340.4 157.4,340.4 157,340.9 157.1,341.5 156.6,341.2 156,341.5 156.1,340.9 
			155.7,340.4 156.3,340.4 		"/>
		<polygon class="st25" points="156.6,343.3 156.8,343.8 157.4,343.9 157,344.3 157.1,344.9 156.6,344.7 156,344.9 156.1,344.3 
			155.7,343.9 156.3,343.8 		"/>
		<polygon class="st25" points="156.6,346.8 156.8,347.3 157.4,347.4 157,347.8 157.1,348.4 156.6,348.1 156,348.4 156.1,347.8 
			155.7,347.4 156.3,347.3 		"/>
		<polygon class="st25" points="160.7,335.8 161,336.4 161.6,336.5 161.1,336.9 161.2,337.5 160.7,337.2 160.2,337.5 160.3,336.9 
			159.9,336.5 160.4,336.4 		"/>
		<polygon class="st25" points="160.7,339.3 161,339.8 161.6,339.9 161.1,340.3 161.2,340.9 160.7,340.6 160.2,340.9 160.3,340.3 
			159.9,339.9 160.4,339.8 		"/>
		<polygon class="st25" points="160.7,342.8 161,343.3 161.6,343.4 161.1,343.8 161.2,344.4 160.7,344.1 160.2,344.4 160.3,343.8 
			159.9,343.4 160.4,343.3 		"/>
		<polygon class="st25" points="160.7,346.2 161,346.8 161.6,346.9 161.1,347.3 161.2,347.9 160.7,347.6 160.2,347.9 160.3,347.3 
			159.9,346.9 160.4,346.8 		"/>
	</g>
</g>
</svg>
