<?xml version="1.0" encoding="utf-8"?>
<!-- Generator: Adobe Illustrator 24.3.0, SVG Export Plug-In . SVG Version: 6.00 Build 0)  -->
<svg version="1.1" id="Layer_1" xmlns="http://www.w3.org/2000/svg" xmlns:xlink="http://www.w3.org/1999/xlink" x="0px" y="0px"
	 viewBox="0 0 804 157" style="enable-background:new 0 0 804 157;" xml:space="preserve">
<style type="text/css">
	.st0{enable-background:new    ;}
	.st1{fill:#1B9BFD;}
	.st2{fill:#34C57F;}
</style>
<g id="PAYBOX">
	<g class="st0">
		<path class="st1" d="M13,151.5c-7.2,0-10.9-3.7-10.9-11.1V13.7c0-7.4,3.7-11.1,11.1-11.1h50C79,2.7,91.3,6.6,100,14.5
			c8.6,7.9,13,18.9,13,33.1c0,14.4-4.3,25.5-13,33.3C91.3,88.8,79,92.7,63.2,92.7H23.9v47.7C23.9,147.8,20.2,151.5,13,151.5z
			 M23.9,75.4H60c21.2,0,31.8-9.3,31.8-27.8C91.8,29.2,81.2,20,60,20H23.9V75.4z"/>
		<path class="st1" d="M120.4,151.5c-4.2,0-7.1-1.4-8.7-4.1c-1.6-2.7-1.5-6,0.3-9.9l56.6-127.1c1.4-3.2,3.1-5.5,5.2-7
			c2.1-1.5,4.5-2.2,7.3-2.2c2.5,0,4.8,0.7,7,2.2c2.2,1.5,3.9,3.8,5.3,7l56.6,127.1c1.8,4,2,7.4,0.5,10c-1.5,2.6-4.2,4-8.3,4
			c-3.1,0-5.5-0.8-7.3-2.3c-1.8-1.5-3.4-3.9-4.8-7.1l-12.1-28h-74.6l-11.9,28c-1.4,3.3-2.9,5.7-4.6,7.2
			C125.4,150.7,123.2,151.5,120.4,151.5z M180.8,26.7l-29.5,69.8h59.6l-29.7-69.8H180.8z"/>
		<path class="st1" d="M307.7,151.5c-7.2,0-10.9-3.8-10.9-11.3V81.2L250,16c-2.2-3.2-2.6-6.5-1.1-9.8c1.5-3.3,4.4-5,8.9-5
			c4.5,0,8.3,2.3,11.5,6.9l38.9,54.1L347,8.1c1.8-2.5,3.6-4.3,5.2-5.3c1.7-1,3.8-1.6,6.3-1.6c4.3,0,7.2,1.6,8.6,4.7
			c1.4,3.1,0.8,6.6-1.9,10.3l-46.8,65.2v58.7C318.4,147.7,314.8,151.5,307.7,151.5z"/>
	</g>
	<g class="st0">
		<path class="st2" d="M399.9,150c-7.8,0-11.7-3.9-11.7-11.7V14.4c0-7.8,3.9-11.7,11.7-11.7h49.7c15.3,0,27.2,3.4,35.6,10.1
			c8.4,6.8,12.6,16.2,12.6,28.3c0,7.9-2.1,14.8-6.3,20.5c-4.2,5.7-9.9,9.9-17.1,12.5c8.5,2.2,15.1,6.3,19.9,12.3
			c4.7,6,7.1,13.6,7.1,22.8c0,13.1-4.4,23.2-13.1,30.2c-8.7,7-20.8,10.6-36.3,10.6H399.9z M409.1,67h37.2c20.3,0,30.5-7.9,30.5-23.8
			s-10.2-23.8-30.5-23.8h-37.2V67z M409.1,133.3h40.5c20.5,0,30.7-8.3,30.7-24.9c0-16.4-10.2-24.7-30.7-24.7h-40.5V133.3z"/>
		<path class="st2" d="M594.6,151.9c-14.1,0-26.3-3.1-36.6-9.3c-10.3-6.2-18.3-15-23.9-26.3c-5.6-11.4-8.5-24.7-8.5-40
			c0-15.5,2.8-28.8,8.5-40.1s13.6-20,23.9-26.1c10.3-6.1,22.5-9.2,36.6-9.2c13.9,0,26.1,3.1,36.5,9.2c10.4,6.1,18.4,14.8,24,26.1
			c5.6,11.3,8.5,24.6,8.5,39.9c0,15.5-2.8,28.9-8.5,40.2c-5.6,11.4-13.7,20.1-24,26.3C620.7,148.8,608.6,151.9,594.6,151.9z
			 M594.6,133.1c14.6,0,26-5,34.2-14.9c8.2-10,12.2-23.9,12.2-41.9c0-18-4-31.9-12.1-41.8c-8.1-9.9-19.5-14.8-34.3-14.8
			c-14.6,0-26,4.9-34.2,14.8c-8.2,9.9-12.2,23.8-12.2,41.8c0,18,4.1,31.9,12.2,41.9C568.6,128.1,580,133.1,594.6,133.1z"/>
		<path class="st2" d="M688.3,151.5c-4.2,0-7.2-1.6-9-4.7c-1.8-3.1-1.4-6.5,1.3-10.1l46.2-61.9l-43.5-58.3
			c-2.9-3.8-3.5-7.2-1.7-10.5c1.8-3.2,4.8-4.8,9-4.8s7.9,2.3,11.3,6.9l37.2,50.8l36.8-50.8c3.3-4.6,7.2-6.9,11.5-6.9
			c4.2,0,7.2,1.6,9,4.7c1.8,3.1,1.3,6.7-1.7,10.6l-43.5,58.3l46,61.9c2.6,3.6,3.1,7,1.4,10.1c-1.7,3.1-4.8,4.7-9.1,4.7
			c-4.2,0-8-2.3-11.5-6.9l-39.1-53.5L700,144.6C696.5,149.2,692.6,151.5,688.3,151.5z"/>
	</g>
</g>
</svg>
