<?xml version="1.0" encoding="utf-8"?>
<!-- Generator: Adobe Illustrator 24.3.0, SVG Export Plug-In . SVG Version: 6.00 Build 0)  -->
<svg version="1.1" id="how" xmlns="http://www.w3.org/2000/svg" xmlns:xlink="http://www.w3.org/1999/xlink" x="0px" y="0px"
	 viewBox="0 0 574 223" style="enable-background:new 0 0 574 223;" xml:space="preserve">
<style type="text/css">
	.st0{fill:#1B9BFD;}
</style>
<path class="st0" d="M298.6,129.8c0,3.3-1.4,6.3-3.7,8.4l2.9,19.7h-21.2l2.9-19.7c-2.3-2.1-3.7-5.1-3.7-8.4
	c0-6.3,5.1-11.4,11.4-11.4C293.5,118.4,298.6,123.5,298.6,129.8z M286.4,59.8c-8.1,0-14.7,6.6-14.7,14.7v23.3h29.4V74.5
	C301.1,66.3,294.5,59.8,286.4,59.8z M396,28.2v167.7c0,13.8-11.2,25.1-25.1,25.1H203.2c-13.8,0-25.1-11.2-25.1-25.1V28.2
	c0-13.8,11.2-25.1,25.1-25.1h167.7C384.7,3.1,396,14.3,396,28.2z M334.7,97.7h-13.8V74c0-19-15.4-34.5-34.5-34.5
	c-19,0-34.5,15.4-34.5,34.5v23.7h-12.5v45.5c0,19.7,16,35.7,35.7,35.7H299c19.7,0,35.7-16,35.7-35.7V97.7z M415.3,122.9h7.2v-9h-7.2
	V122.9z M429.6,122.9h7.2v-9h-7.2V122.9z M400.9,122.9h7.2v-9h-7.2V122.9z M541.3,56.6h-60.1c-16.7,0-30.2,13.5-30.2,30.2v27H444v9
	h6.9v24c0,16.7,13.5,30.2,30.2,30.2h60.1c16.7,0,30.2-13.5,30.2-30.2V86.9C571.5,70.1,558,56.6,541.3,56.6z M137.2,122.9h7.2v-9
	h-7.2V122.9z M165.9,122.9h7.2v-9h-7.2V122.9z M151.5,122.9h7.2v-9h-7.2V122.9z M123.1,86.9c0-16.7-13.5-30.2-30.2-30.2H32.7
	C16,56.6,2.5,70.1,2.5,86.9v60.1c0,16.7,13.5,30.2,30.2,30.2h60.1c16.7,0,30.2-13.5,30.2-30.2v-24h6.9v-9h-6.9V86.9z"/>
</svg>
