<svg id="Layer_1" data-name="Layer 1" xmlns="http://www.w3.org/2000/svg" viewBox="0 0 66.97 56"><g id="Group_4670" data-name="Group 4670"><path id="Path_3228" data-name="Path 3228" d="M66.28,29.74l-.18-.09a1.37,1.37,0,0,0-1.44.18,6,6,0,0,1-3.72,1.28H39.38v3.35a2.05,2.05,0,0,1-2.06,2H29.65a2.05,2.05,0,0,1-2.06-2V31.11H6a6,6,0,0,1-3.79-1.34A1.35,1.35,0,0,0,1,29.51l-.06,0a1.4,1.4,0,0,0-1,1.33V50a6,6,0,0,0,6,6H60.94a6,6,0,0,0,6-6V31A1.37,1.37,0,0,0,66.28,29.74Z" fill="#143a66"/><path id="Path_3229" data-name="Path 3229" d="M60.94,8.52H47.36V5.14A5.14,5.14,0,0,0,42.22,0H24.66a5.14,5.14,0,0,0-5.13,5.14V8.52H6a6,6,0,0,0-6,6V22.3a6,6,0,0,0,6,6H27.59V27.27a2.05,2.05,0,0,1,2.06-2.05h7.67a2.05,2.05,0,0,1,2.06,2.05h0v1.06H60.94a6,6,0,0,0,6-6V14.55a6,6,0,0,0-6-6ZM24.44,5.14a.22.22,0,0,1,.22-.23H42.22a.23.23,0,0,1,.23.23V8.52h-18Z" fill="#143a66"/></g></svg>