<svg id="Layer_1" data-name="Layer 1" xmlns="http://www.w3.org/2000/svg" viewBox="0 0 159.36 61"><path id="Path_3230" data-name="Path 3230" d="M82.92,35.48a3.15,3.15,0,0,1-1,2.34l.8,5.53H76.76l.8-5.53a3.2,3.2,0,1,1,5.37-2.34ZM79.51,15.87A4.12,4.12,0,0,0,75.39,20V26.5h8.24V20a4.11,4.11,0,0,0-4.12-4.12ZM110.2,7V54a7,7,0,0,1-7,7h-47a7,7,0,0,1-7-7h0V7a7,7,0,0,1,7-7h47a7,7,0,0,1,7,7ZM93,26.5H89.16V19.86a9.65,9.65,0,0,0-19.3,0V26.5h-3.5V39.25a10,10,0,0,0,10,10h6.69a10,10,0,0,0,10-10Zm22.57,7.06h2V31h-2Zm4,0h2V31h-2Zm-8,0h2V31h-2ZM150.89,15H134.06a8.47,8.47,0,0,0-8.47,8.47V31h-1.94v2.54h1.94v6.72a8.47,8.47,0,0,0,8.47,8.47h16.83a8.47,8.47,0,0,0,8.47-8.47V23.45A8.47,8.47,0,0,0,150.89,15ZM37.72,33.56h2V31h-2Zm8,0h2V31h-2Zm-4,0h2V31h-2Zm-8-10.1A8.47,8.47,0,0,0,25.3,15H8.47A8.47,8.47,0,0,0,0,23.46V40.29a8.47,8.47,0,0,0,8.47,8.47H25.3a8.47,8.47,0,0,0,8.47-8.47V33.56h1.94V31H33.77Z" fill="#143a66"/></svg>